SplineFontDB: 3.0
FontName: FourThreeSevenMedium
FullName: FourThreeSeven
FamilyName: FourThreeSeven
Weight: Medium
Copyright: Copyright (C) 2015 Roman Czyborra, Paul Hardy, Qianqian Fang, Andrew Miller, et al. Licensed under the GNU General Public License; either version 2, or (at your option) a later version, with the GNU Font Embedding Exception.
Version: 7.0.06
ItalicAngle: 0
UnderlinePosition: -100
UnderlineWidth: 40
Ascent: 896
Descent: 128
sfntRevision: 0x00070000
LayerCount: 2
Layer: 0 1 "Back"  1
Layer: 1 1 "Fore"  0
XUID: [1021 560 1349760355 918795]
FSType: 0
OS2Version: 1
OS2_WeightWidthSlopeOnly: 0
OS2_UseTypoMetrics: 1
CreationTime: 1414106996
ModificationTime: 1421679947
PfmFamily: 17
TTFWeight: 500
TTFWidth: 5
LineGap: 72
VLineGap: 0
Panose: 2 0 6 4 0 0 0 0 0 0
OS2TypoAscent: 896
OS2TypoAOffset: 0
OS2TypoDescent: -128
OS2TypoDOffset: 0
OS2TypoLinegap: 0
OS2WinAscent: 896
OS2WinAOffset: 0
OS2WinDescent: 128
OS2WinDOffset: 0
HheadAscent: 896
HheadAOffset: 0
HheadDescent: -128
HheadDOffset: 0
OS2SubXSize: 665
OS2SubYSize: 716
OS2SubXOff: 0
OS2SubYOff: 143
OS2SupXSize: 665
OS2SupYSize: 716
OS2SupXOff: 0
OS2SupYOff: 491
OS2StrikeYSize: 51
OS2StrikeYPos: 265
OS2Vendor: 'PfEd'
OS2CodePages: 603f01ff.ffff0000
OS2UnicodeRanges: ffffffff.e9ffffff.e817ffff.007f001f
MarkAttachClasses: 1
DEI: 91125
TtTable: prep
PUSHW_1
 511
SCANCTRL
PUSHB_1
 1
SCANTYPE
SVTCA[y-axis]
MPPEM
PUSHB_1
 8
LT
IF
PUSHB_2
 1
 1
INSTCTRL
EIF
PUSHB_2
 70
 6
CALL
IF
POP
PUSHB_1
 16
EIF
MPPEM
PUSHB_1
 20
GT
IF
POP
PUSHB_1
 128
EIF
SCVTCI
PUSHB_1
 6
CALL
NOT
IF
EIF
PUSHB_1
 20
CALL
EndTTInstrs
TtTable: fpgm
PUSHB_1
 0
FDEF
PUSHB_1
 0
SZP0
MPPEM
PUSHB_1
 42
LT
IF
PUSHB_1
 74
SROUND
EIF
PUSHB_1
 0
SWAP
MIAP[rnd]
RTG
PUSHB_1
 6
CALL
IF
RTDG
EIF
MPPEM
PUSHB_1
 42
LT
IF
RDTG
EIF
DUP
MDRP[rp0,rnd,grey]
PUSHB_1
 1
SZP0
MDAP[no-rnd]
RTG
ENDF
PUSHB_1
 1
FDEF
DUP
MDRP[rp0,min,white]
PUSHB_1
 12
CALL
ENDF
PUSHB_1
 2
FDEF
MPPEM
GT
IF
RCVT
SWAP
EIF
POP
ENDF
PUSHB_1
 3
FDEF
ROUND[Black]
RTG
DUP
PUSHB_1

StartChar: uni0000
Encoding: 0 -1 0
AltUni2: 000000.ffffffff.0
Width: 1024
GlyphClass: 2
Flags: W
LayerCount: 2
Fore
SplineSet
128 -128 m 1,0,-1
 128 -64 l 1,1,-1
 64 -64 l 1,2,-1
 64 -128 l 1,3,-1
 128 -128 l 1,0,-1
256 -128 m 1,4,-1
 256 -64 l 1,5,-1
 192 -64 l 1,6,-1
 192 -128 l 1,7,-1
 256 -128 l 1,4,-1
384 -128 m 1,8,-1
 384 -64 l 1,9,-1
 320 -64 l 1,10,-1
 320 -128 l 1,11,-1
 384 -128 l 1,8,-1
512 -128 m 1,12,-1
 512 -64 l 1,13,-1
 448 -64 l 1,14,-1
 448 -128 l 1,15,-1
 512 -128 l 1,12,-1
640 -128 m 1,16,-1
 640 -64 l 1,17,-1
 576 -64 l 1,18,-1
 576 -128 l 1,19,-1
 640 -128 l 1,16,-1
768 -128 m 1,20,-1
 768 -64 l 1,21,-1
 704 -64 l 1,22,-1
 704 -128 l 1,23,-1
 768 -128 l 1,20,-1
896 -128 m 1,24,-1
 896 -64 l 1,25,-1
 832 -64 l 1,26,-1
 832 -128 l 1,27,-1
 896 -128 l 1,24,-1
1024 -128 m 1,28,-1
 1024 -64 l 1,29,-1
 960 -64 l 1,30,-1
 960 -128 l 1,31,-1
 1024 -128 l 1,28,-1
1024 0 m 1,32,-1
 1024 64 l 1,33,-1
 960 64 l 1,34,-1
 960 0 l 1,35,-1
 1024 0 l 1,32,-1
64 64 m 1,36,-1
 64 128 l 1,37,-1
 0 128 l 1,38,-1
 0 64 l 1,39,-1
 64 64 l 1,36,-1
1024 128 m 1,40,-1
 1024 192 l 1,41,-1
 960 192 l 1,42,-1
 960 128 l 1,43,-1
 1024 128 l 1,40,-1
64 192 m 1,44,-1
 64 256 l 1,45,-1
 0 256 l 1,46,-1
 0 192 l 1,47,-1
 64 192 l 1,44,-1
1024 256 m 1,48,-1
 1024 320 l 1,49,-1
 960 320 l 1,50,-1
 960 256 l 1,51,-1
 1024 256 l 1,48,-1
1024 384 m 1,52,-1
 1024 448 l 1,53,-1
 960 448 l 1,54,-1
 960 384 l 1,55,-1
 768 384 l 1,56,-1
 768 576 l 1,57,-1
 704 576 l 1,58,59
 704 576 704 576 704 320 c 1,60,-1
 960 320 l 1,61,-1
 960 384 l 1,62,-1
 1024 384 l 1,52,-1
1024 512 m 1,63,-1
 1024 576 l 1,64,-1
 960 576 l 1,65,-1
 960 512 l 1,66,-1
 1024 512 l 1,63,-1
1024 640 m 1,67,-1
 1024 704 l 1,68,-1
 960 704 l 1,69,-1
 960 640 l 1,70,-1
 1024 640 l 1,67,-1
64 704 m 1,71,-1
 64 768 l 1,72,-1
 0 768 l 1,73,-1
 0 704 l 1,74,-1
 64 704 l 1,71,-1
1024 768 m 1,75,-1
 1024 832 l 1,76,-1
 960 832 l 1,77,-1
 960 768 l 1,78,-1
 1024 768 l 1,75,-1
64 832 m 1,79,-1
 64 896 l 1,80,-1
 0 896 l 1,81,-1
 0 832 l 1,82,-1
 64 832 l 1,79,-1
192 832 m 1,83,-1
 192 896 l 1,84,-1
 128 896 l 1,85,-1
 128 832 l 1,86,-1
 192 832 l 1,83,-1
320 832 m 1,87,-1
 320 896 l 1,88,-1
 256 896 l 1,89,-1
 256 832 l 1,90,-1
 320 832 l 1,87,-1
448 832 m 1,91,-1
 448 896 l 1,92,-1
 384 896 l 1,93,-1
 384 832 l 1,94,-1
 448 832 l 1,91,-1
576 832 m 1,95,-1
 576 896 l 1,96,-1
 512 896 l 1,97,-1
 512 832 l 1,98,-1
 576 832 l 1,95,-1
704 832 m 1,99,-1
 704 896 l 1,100,-1
 640 896 l 1,101,-1
 640 832 l 1,102,-1
 704 832 l 1,99,-1
832 832 m 1,103,-1
 832 896 l 1,104,-1
 768 896 l 1,105,-1
 768 832 l 1,106,-1
 832 832 l 1,103,-1
64 -64 m 1,107,-1
 64 0 l 1,108,-1
 0 0 l 1,109,-1
 0 -64 l 1,110,-1
 64 -64 l 1,107,-1
64 384 m 1,111,-1
 0 384 l 1,112,-1
 0 320 l 1,113,-1
 128 320 l 1,114,115
 128 320 128 320 128 448 c 1,116,-1
 192 448 l 1,117,-1
 192 384 l 1,118,-1
 256 384 l 1,119,-1
 256 320 l 1,120,-1
 320 320 l 1,121,122
 320 320 320 320 320 576 c 1,123,-1
 256 576 l 1,124,125
 256 576 256 576 256 448 c 1,126,-1
 192 448 l 1,127,-1
 192 512 l 1,128,-1
 128 512 l 1,129,-1
 128 576 l 1,130,-1
 64 576 l 1,131,-1
 64 512 l 1,132,-1
 0 512 l 1,133,-1
 0 448 l 1,134,-1
 64 448 l 1,135,-1
 64 384 l 1,111,-1
448 384 m 1,136,-1
 448 320 l 1,137,-1
 576 320 l 1,138,-1
 576 384 l 1,139,-1
 448 384 l 1,136,-1
448 384 m 1,140,-1
 448 576 l 1,141,-1
 384 576 l 1,142,-1
 384 384 l 1,143,-1
 448 384 l 1,140,-1
576 384 m 1,144,-1
 640 384 l 1,145,-1
 640 576 l 1,146,-1
 576 576 l 1,147,-1
 576 384 l 1,144,-1
64 576 m 1,148,-1
 64 640 l 1,149,-1
 0 640 l 1,150,-1
 0 576 l 1,151,-1
 64 576 l 1,148,-1
960 832 m 1,152,-1
 960 896 l 1,153,-1
 896 896 l 1,154,-1
 896 832 l 1,155,-1
 960 832 l 1,152,-1
EndSplineSet
EndChar

StartChar: uni0001
Encoding: 1 1 1
Width: 512
GlyphClass: 2
Flags: W
LayerCount: 2
Fore
SplineSet
384 256 m 1,0,-1
 384 320 l 1,1,-1
 320 320 l 1,2,-1
 320 256 l 1,3,-1
 192 256 l 1,4,-1
 192 192 l 1,5,-1
 320 192 l 1,6,-1
 320 256 l 1,7,-1
 384 256 l 1,0,-1
192 384 m 1,8,-1
 192 448 l 1,9,-1
 128 448 l 1,10,-1
 128 384 l 1,11,-1
 192 384 l 1,8,-1
384 384 m 1,12,-1
 384 448 l 1,13,-1
 320 448 l 1,14,-1
 320 384 l 1,15,-1
 384 384 l 1,12,-1
128 128 m 1,16,-1
 128 64 l 1,17,-1
 384 64 l 1,18,-1
 384 128 l 1,19,-1
 128 128 l 1,16,-1
128 128 m 1,20,-1
 128 192 l 1,21,-1
 64 192 l 1,22,-1
 64 128 l 1,23,-1
 128 128 l 1,20,-1
384 128 m 1,24,-1
 448 128 l 1,25,-1
 448 192 l 1,26,-1
 384 192 l 1,27,-1
 384 128 l 1,24,-1
64 192 m 1,28,-1
 64 512 l 1,29,-1
 0 512 l 1,30,-1
 0 192 l 1,31,-1
 64 192 l 1,28,-1
448 192 m 1,32,-1
 512 192 l 1,33,-1
 512 512 l 1,34,-1
 448 512 l 1,35,-1
 448 192 l 1,32,-1
192 256 m 1,36,-1
 192 320 l 1,37,-1
 128 320 l 1,38,-1
 128 256 l 1,39,-1
 192 256 l 1,36,-1
64 512 m 1,40,-1
 128 512 l 1,41,-1
 128 576 l 1,42,-1
 64 576 l 1,43,-1
 64 512 l 1,40,-1
448 512 m 1,44,-1
 448 576 l 1,45,-1
 384 576 l 1,46,-1
 384 512 l 1,47,-1
 448 512 l 1,44,-1
128 576 m 1,48,-1
 384 576 l 1,49,-1
 384 640 l 1,50,-1
 128 640 l 1,51,-1
 128 576 l 1,48,-1
EndSplineSet
EndChar

StartChar: uni0002
Encoding: 2 2 2
Width: 512
GlyphClass: 2
Flags: W
LayerCount: 2
Fore
SplineSet
384 128 m 1,0,-1
 448 128 l 1,1,-1
 448 192 l 1,2,-1
 512 192 l 1,3,-1
 512 512 l 1,4,-1
 448 512 l 1,5,-1
 448 576 l 1,6,-1
 384 576 l 1,7,-1
 384 640 l 1,8,-1
 128 640 l 1,9,-1
 128 576 l 1,10,-1
 64 576 l 1,11,-1
 64 512 l 1,12,-1
 0 512 l 1,13,-1
 0 192 l 1,14,-1
 64 192 l 1,15,-1
 64 128 l 1,16,-1
 128 128 l 1,17,-1
 128 64 l 1,18,-1
 384 64 l 1,19,-1
 384 128 l 1,0,-1
192 192 m 1,20,-1
 192 256 l 1,21,-1
 128 256 l 1,22,-1
 128 320 l 1,23,-1
 192 320 l 1,24,-1
 192 256 l 1,25,-1
 320 256 l 1,26,-1
 320 192 l 1,27,-1
 192 192 l 1,20,-1
320 256 m 1,28,-1
 320 320 l 1,29,-1
 384 320 l 1,30,-1
 384 256 l 1,31,-1
 320 256 l 1,28,-1
128 384 m 1,32,-1
 128 448 l 1,33,-1
 192 448 l 1,34,-1
 192 384 l 1,35,-1
 128 384 l 1,32,-1
320 384 m 1,36,-1
 320 448 l 1,37,-1
 384 448 l 1,38,-1
 384 384 l 1,39,-1
 320 384 l 1,36,-1
EndSplineSet
EndChar

StartChar: uni0003
Encoding: 3 3 3
Width: 512
GlyphClass: 2
Flags: W
LayerCount: 2
Fore
SplineSet
256 128 m 1,0,-1
 256 0 l 1,1,-1
 320 0 l 1,2,-1
 320 128 l 1,3,-1
 384 128 l 1,4,-1
 384 192 l 1,5,-1
 448 192 l 1,6,-1
 448 256 l 1,7,-1
 512 256 l 1,8,-1
 512 512 l 1,9,-1
 448 512 l 1,10,-1
 448 576 l 1,11,-1
 320 576 l 1,12,-1
 320 512 l 1,13,-1
 256 512 l 1,14,-1
 256 576 l 1,15,-1
 128 576 l 1,16,-1
 128 512 l 1,17,-1
 64 512 l 1,18,-1
 64 256 l 1,19,-1
 128 256 l 1,20,-1
 128 192 l 1,21,-1
 192 192 l 1,22,-1
 192 128 l 1,23,-1
 256 128 l 1,0,-1
EndSplineSet
EndChar

StartChar: uni0004
Encoding: 4 4 4
Width: 512
GlyphClass: 2
Flags: W
LayerCount: 2
Fore
SplineSet
256 128 m 1,0,-1
 256 0 l 1,1,-1
 320 0 l 1,2,-1
 320 128 l 1,3,-1
 384 128 l 1,4,-1
 384 256 l 1,5,-1
 448 256 l 1,6,-1
 448 384 l 1,7,-1
 384 384 l 1,8,-1
 384 512 l 1,9,-1
 320 512 l 1,10,-1
 320 640 l 1,11,-1
 256 640 l 1,12,-1
 256 512 l 1,13,-1
 192 512 l 1,14,-1
 192 384 l 1,15,-1
 128 384 l 1,16,-1
 128 256 l 1,17,-1
 192 256 l 1,18,-1
 192 128 l 1,19,-1
 256 128 l 1,0,-1
EndSplineSet
EndChar

StartChar: uni0005
Encoding: 5 5 5
Width: 512
GlyphClass: 2
Flags: W
LayerCount: 2
Fore
SplineSet
384 0 m 1,0,-1
 384 64 l 1,1,-1
 320 64 l 1,2,-1
 320 256 l 1,3,-1
 384 256 l 1,4,-1
 384 192 l 1,5,-1
 512 192 l 1,6,-1
 512 384 l 1,7,-1
 320 384 l 1,8,-1
 320 448 l 1,9,-1
 384 448 l 1,10,-1
 384 640 l 1,11,-1
 192 640 l 1,12,-1
 192 448 l 1,13,-1
 256 448 l 1,14,-1
 256 384 l 1,15,-1
 64 384 l 1,16,-1
 64 192 l 1,17,-1
 192 192 l 1,18,-1
 192 256 l 1,19,-1
 256 256 l 1,20,-1
 256 64 l 1,21,-1
 192 64 l 1,22,-1
 192 0 l 1,23,-1
 384 0 l 1,0,-1
EndSplineSet
EndChar

StartChar: uni0006
Encoding: 6 6 6
Width: 512
GlyphClass: 2
Flags: W
LayerCount: 2
Fore
SplineSet
384 0 m 1,0,-1
 384 64 l 1,1,-1
 320 64 l 1,2,-1
 320 128 l 1,3,-1
 448 128 l 1,4,-1
 448 192 l 1,5,-1
 512 192 l 1,6,-1
 512 384 l 1,7,-1
 448 384 l 1,8,-1
 448 448 l 1,9,-1
 384 448 l 1,10,-1
 384 512 l 1,11,-1
 320 512 l 1,12,-1
 320 640 l 1,13,-1
 256 640 l 1,14,-1
 256 512 l 1,15,-1
 192 512 l 1,16,-1
 192 448 l 1,17,-1
 128 448 l 1,18,-1
 128 384 l 1,19,-1
 64 384 l 1,20,-1
 64 192 l 1,21,-1
 128 192 l 1,22,-1
 128 128 l 1,23,-1
 256 128 l 1,24,-1
 256 64 l 1,25,-1
 192 64 l 1,26,-1
 192 0 l 1,27,-1
 384 0 l 1,0,-1
EndSplineSet
EndChar

StartChar: uni0007
Encoding: 7 7 7
Width: 512
GlyphClass: 2
Flags: W
LayerCount: 2
Fore
SplineSet
320 192 m 1,0,-1
 384 192 l 1,1,-1
 384 384 l 1,2,-1
 320 384 l 1,3,-1
 320 448 l 1,4,-1
 128 448 l 1,5,-1
 128 384 l 1,6,-1
 64 384 l 1,7,-1
 64 192 l 1,8,-1
 128 192 l 1,9,-1
 128 128 l 1,10,-1
 320 128 l 1,11,-1
 320 192 l 1,0,-1
EndSplineSet
EndChar

StartChar: uni0008
Encoding: 8 8 8
Width: 512
GlyphClass: 2
Flags: W
LayerCount: 2
Fore
SplineSet
192 256 m 1
 192 320 l 1
 128 320 l 1
 128 448 l 1
 192 448 l 1
 192 512 l 1
 320 512 l 1
 320 448 l 1
 384 448 l 1
 384 320 l 1
 320 320 l 1
 320 256 l 1
 192 256 l 1
EndSplineSet
Refer: 219 219 S 1 0 0 1 0 0 2
EndChar

StartChar: uni0009
Encoding: 9 9 9
Width: 512
GlyphClass: 2
Flags: W
LayerCount: 2
Fore
SplineSet
192 192 m 1,0,-1
 192 128 l 1,1,-1
 384 128 l 1,2,-1
 384 192 l 1,3,-1
 192 192 l 1,0,-1
192 192 m 1,4,-1
 192 256 l 1,5,-1
 128 256 l 1,6,-1
 128 192 l 1,7,-1
 192 192 l 1,4,-1
384 192 m 1,8,-1
 448 192 l 1,9,-1
 448 256 l 1,10,-1
 384 256 l 1,11,-1
 384 192 l 1,8,-1
128 256 m 1,12,-1
 128 448 l 1,13,-1
 64 448 l 1,14,-1
 64 256 l 1,15,-1
 128 256 l 1,12,-1
448 256 m 1,16,-1
 512 256 l 1,17,-1
 512 448 l 1,18,-1
 448 448 l 1,19,-1
 448 256 l 1,16,-1
128 448 m 1,20,-1
 192 448 l 1,21,-1
 192 512 l 1,22,-1
 128 512 l 1,23,-1
 128 448 l 1,20,-1
448 448 m 1,24,-1
 448 512 l 1,25,-1
 384 512 l 1,26,-1
 384 448 l 1,27,-1
 448 448 l 1,24,-1
192 512 m 1,28,-1
 384 512 l 1,29,-1
 384 576 l 1,30,-1
 192 576 l 1,31,-1
 192 512 l 1,28,-1
EndSplineSet
EndChar

StartChar: uni000A
Encoding: 10 10 10
Width: 512
GlyphClass: 2
Flags: W
LayerCount: 2
Fore
SplineSet
192 192 m 1
 192 256 l 1
 128 256 l 1
 128 320 l 1
 64 320 l 1
 64 448 l 1
 128 448 l 1
 128 320 l 1
 192 320 l 1
 192 256 l 1
 320 256 l 1
 320 192 l 1
 192 192 l 1
320 256 m 1
 320 320 l 1
 384 320 l 1
 384 256 l 1
 320 256 l 1
384 320 m 1
 384 448 l 1
 320 448 l 1
 320 512 l 1
 192 512 l 1
 192 448 l 1
 128 448 l 1
 128 512 l 1
 192 512 l 1
 192 576 l 1
 320 576 l 1
 320 512 l 1
 384 512 l 1
 384 448 l 1
 448 448 l 1
 448 320 l 1
 384 320 l 1
EndSplineSet
Refer: 219 219 S 1 0 0 1 0 0 2
EndChar

StartChar: uni000B
Encoding: 11 11 11
Width: 512
GlyphClass: 2
Flags: W
LayerCount: 2
Fore
SplineSet
128 128 m 1,0,-1
 128 64 l 1,1,-1
 320 64 l 1,2,-1
 320 128 l 1,3,-1
 128 128 l 1,0,-1
128 128 m 1,4,-1
 128 320 l 1,5,-1
 64 320 l 1,6,-1
 64 128 l 1,7,-1
 128 128 l 1,4,-1
320 128 m 1,8,-1
 384 128 l 1,9,-1
 384 320 l 1,10,-1
 320 320 l 1,11,-1
 320 128 l 1,8,-1
128 320 m 1,12,-1
 320 320 l 1,13,-1
 320 384 l 1,14,-1
 128 384 l 1,15,-1
 128 320 l 1,12,-1
320 384 m 1,16,-1
 384 384 l 1,17,-1
 384 448 l 1,18,-1
 320 448 l 1,19,-1
 320 384 l 1,16,-1
448 448 m 1,20,-1
 448 384 l 1,21,-1
 512 384 l 1,22,-1
 512 576 l 1,23,-1
 320 576 l 1,24,-1
 320 512 l 1,25,-1
 384 512 l 1,26,-1
 384 448 l 1,27,-1
 448 448 l 1,20,-1
EndSplineSet
EndChar

StartChar: uni000C
Encoding: 12 12 12
Width: 512
GlyphClass: 2
Flags: W
LayerCount: 2
Fore
SplineSet
448 512 m 1,0,-1
 448 576 l 1,1,-1
 320 576 l 1,2,-1
 320 704 l 1,3,-1
 256 704 l 1,4,-1
 256 576 l 1,5,-1
 128 576 l 1,6,-1
 128 512 l 1,7,-1
 256 512 l 1,8,-1
 256 384 l 1,9,-1
 192 384 l 1,10,-1
 192 320 l 1,11,-1
 128 320 l 1,12,-1
 128 128 l 1,13,-1
 192 128 l 1,14,-1
 192 64 l 1,15,-1
 384 64 l 1,16,-1
 384 128 l 1,17,-1
 192 128 l 1,18,-1
 192 320 l 1,19,-1
 384 320 l 1,20,-1
 384 128 l 1,21,-1
 448 128 l 1,22,-1
 448 320 l 1,23,-1
 384 320 l 1,24,-1
 384 384 l 1,25,-1
 320 384 l 1,26,-1
 320 512 l 1,27,-1
 448 512 l 1,0,-1
EndSplineSet
EndChar

StartChar: uni000D
Encoding: 13 13 13
Width: 512
GlyphClass: 2
Flags: W
LayerCount: 2
Fore
SplineSet
256 64 m 1,0,-1
 320 64 l 1,1,-1
 320 512 l 1,2,-1
 384 512 l 1,3,-1
 384 384 l 1,4,-1
 448 384 l 1,5,-1
 448 512 l 1,6,-1
 384 512 l 1,7,-1
 384 576 l 1,8,-1
 320 576 l 1,9,-1
 320 640 l 1,10,-1
 256 640 l 1,11,-1
 256 192 l 1,12,-1
 128 192 l 1,13,-1
 128 128 l 1,14,-1
 64 128 l 1,15,-1
 64 0 l 1,16,-1
 256 0 l 1,17,-1
 256 64 l 1,0,-1
EndSplineSet
EndChar

StartChar: uni000E
Encoding: 14 14 14
Width: 512
GlyphClass: 2
Flags: W
LayerCount: 2
Fore
SplineSet
448 64 m 1,0,-1
 512 64 l 1,1,-1
 512 640 l 1,2,-1
 384 640 l 1,3,-1
 384 704 l 1,4,-1
 192 704 l 1,5,-1
 192 320 l 1,6,-1
 64 320 l 1,7,-1
 64 256 l 1,8,-1
 0 256 l 1,9,-1
 0 128 l 1,10,-1
 192 128 l 1,11,-1
 192 192 l 1,12,-1
 256 192 l 1,13,-1
 256 640 l 1,14,-1
 320 640 l 1,15,-1
 320 576 l 1,16,-1
 448 576 l 1,17,-1
 448 192 l 1,18,-1
 320 192 l 1,19,-1
 320 128 l 1,20,-1
 256 128 l 1,21,-1
 256 0 l 1,22,-1
 448 0 l 1,23,-1
 448 64 l 1,0,-1
EndSplineSet
EndChar

StartChar: uni000F
Encoding: 15 15 15
Width: 512
GlyphClass: 2
Flags: W
LayerCount: 2
Fore
SplineSet
512 128 m 1,0,-1
 512 192 l 1,1,-1
 448 192 l 1,2,-1
 448 128 l 1,3,-1
 512 128 l 1,0,-1
512 320 m 1,4,-1
 512 384 l 1,5,-1
 384 384 l 1,6,-1
 384 448 l 1,7,-1
 320 448 l 1,8,-1
 320 576 l 1,9,-1
 256 576 l 1,10,-1
 256 448 l 1,11,-1
 192 448 l 1,12,-1
 192 384 l 1,13,-1
 64 384 l 1,14,-1
 64 320 l 1,15,-1
 192 320 l 1,16,-1
 192 256 l 1,17,-1
 128 256 l 1,18,-1
 128 192 l 1,19,-1
 64 192 l 1,20,-1
 64 128 l 1,21,-1
 128 128 l 1,22,-1
 128 192 l 1,23,-1
 192 192 l 1,24,-1
 192 256 l 1,25,-1
 256 256 l 1,26,-1
 256 128 l 1,27,-1
 320 128 l 1,28,-1
 320 256 l 1,29,-1
 384 256 l 1,30,-1
 384 192 l 1,31,-1
 448 192 l 1,32,-1
 448 256 l 1,33,-1
 384 256 l 1,34,-1
 384 320 l 1,35,-1
 512 320 l 1,4,-1
512 512 m 1,36,-1
 512 576 l 1,37,-1
 448 576 l 1,38,-1
 448 512 l 1,39,-1
 384 512 l 1,40,-1
 384 448 l 1,41,-1
 448 448 l 1,42,-1
 448 512 l 1,43,-1
 512 512 l 1,36,-1
256 320 m 1,44,-1
 256 384 l 1,45,-1
 320 384 l 1,46,-1
 320 320 l 1,47,-1
 256 320 l 1,44,-1
192 448 m 1,48,-1
 192 512 l 1,49,-1
 128 512 l 1,50,-1
 128 448 l 1,51,-1
 192 448 l 1,48,-1
128 512 m 1,52,-1
 128 576 l 1,53,-1
 64 576 l 1,54,-1
 64 512 l 1,55,-1
 128 512 l 1,52,-1
EndSplineSet
EndChar

StartChar: uni0010
Encoding: 16 16 16
Width: 512
GlyphClass: 2
Flags: W
LayerCount: 2
Fore
SplineSet
448 320 m 1,0,-1
 448 384 l 1,1,-1
 320 384 l 1,2,-1
 320 448 l 1,3,-1
 192 448 l 1,4,-1
 192 512 l 1,5,-1
 64 512 l 1,6,-1
 64 192 l 1,7,-1
 192 192 l 1,8,-1
 192 256 l 1,9,-1
 320 256 l 1,10,-1
 320 320 l 1,11,-1
 448 320 l 1,0,-1
EndSplineSet
EndChar

StartChar: uni0011
Encoding: 17 17 17
Width: 512
GlyphClass: 2
Flags: W
LayerCount: 2
Fore
SplineSet
320 256 m 1,0,-1
 320 192 l 1,1,-1
 448 192 l 1,2,-1
 448 512 l 1,3,-1
 320 512 l 1,4,-1
 320 448 l 1,5,-1
 192 448 l 1,6,-1
 192 384 l 1,7,-1
 64 384 l 1,8,-1
 64 320 l 1,9,-1
 192 320 l 1,10,-1
 192 256 l 1,11,-1
 320 256 l 1,0,-1
EndSplineSet
EndChar

StartChar: uni0012
Encoding: 18 18 18
Width: 512
GlyphClass: 2
Flags: W
LayerCount: 2
Fore
SplineSet
448 128 m 1,0,-1
 448 192 l 1,1,-1
 384 192 l 1,2,-1
 384 128 l 1,3,-1
 320 128 l 1,4,-1
 320 640 l 1,5,-1
 384 640 l 1,6,-1
 384 576 l 1,7,-1
 448 576 l 1,8,-1
 448 640 l 1,9,-1
 384 640 l 1,10,-1
 384 704 l 1,11,-1
 320 704 l 1,12,-1
 320 768 l 1,13,-1
 256 768 l 1,14,-1
 256 704 l 1,15,-1
 192 704 l 1,16,-1
 192 640 l 1,17,-1
 128 640 l 1,18,-1
 128 576 l 1,19,-1
 192 576 l 1,20,-1
 192 640 l 1,21,-1
 256 640 l 1,22,-1
 256 128 l 1,23,-1
 192 128 l 1,24,-1
 192 64 l 1,25,-1
 256 64 l 1,26,-1
 256 0 l 1,27,-1
 320 0 l 1,28,-1
 320 64 l 1,29,-1
 384 64 l 1,30,-1
 384 128 l 1,31,-1
 448 128 l 1,0,-1
192 128 m 1,32,-1
 192 192 l 1,33,-1
 128 192 l 1,34,-1
 128 128 l 1,35,-1
 192 128 l 1,32,-1
EndSplineSet
EndChar

StartChar: uni0013
Encoding: 19 19 19
Width: 512
GlyphClass: 2
Flags: W
LayerCount: 2
Fore
SplineSet
128 128 m 1,0,-1
 128 0 l 1,1,-1
 192 0 l 1,2,-1
 192 128 l 1,3,-1
 128 128 l 1,0,-1
320 128 m 1,4,-1
 320 0 l 1,5,-1
 384 0 l 1,6,-1
 384 128 l 1,7,-1
 320 128 l 1,4,-1
128 640 m 1,8,-1
 128 192 l 1,9,-1
 192 192 l 1,10,-1
 192 640 l 1,11,-1
 128 640 l 1,8,-1
320 640 m 1,12,-1
 320 192 l 1,13,-1
 384 192 l 1,14,-1
 384 640 l 1,15,-1
 320 640 l 1,12,-1
EndSplineSet
EndChar

StartChar: uni0014
Encoding: 20 20 20
Width: 512
GlyphClass: 2
Flags: W
LayerCount: 2
Fore
SplineSet
256 320 m 1,0,1
 256 320 256 320 256 -64 c 1,2,-1
 448 -64 l 1,3,4
 448 -64 448 -64 448 704 c 1,5,-1
 128 704 l 1,6,-1
 128 640 l 1,7,-1
 64 640 l 1,8,9
 64 640 64 640 64 384 c 1,10,-1
 128 384 l 1,11,-1
 128 320 l 1,12,-1
 256 320 l 1,0,1
320 0 m 1,13,14
 320 0 320 0 320 640 c 1,15,-1
 384 640 l 1,16,17
 384 640 384 640 384 0 c 1,18,-1
 320 0 l 1,13,14
EndSplineSet
EndChar

StartChar: uni0015
Encoding: 21 21 21
Width: 512
GlyphClass: 2
Flags: W
LayerCount: 2
Fore
SplineSet
448 512 m 1,0,-1
 448 576 l 1,1,-1
 384 576 l 1,2,-1
 384 512 l 1,3,-1
 448 512 l 1,0,-1
128 64 m 1,4,-1
 128 0 l 1,5,-1
 384 0 l 1,6,-1
 384 64 l 1,7,-1
 128 64 l 1,4,-1
128 64 m 1,8,-1
 128 128 l 1,9,-1
 64 128 l 1,10,-1
 64 64 l 1,11,-1
 128 64 l 1,8,-1
384 64 m 1,12,-1
 448 64 l 1,13,14
 448 64 448 64 448 192 c 1,15,-1
 384 192 l 1,16,17
 384 192 384 192 384 64 c 1,12,-1
384 192 m 1,18,-1
 384 256 l 1,19,-1
 128 256 l 1,20,-1
 128 192 l 1,21,-1
 384 192 l 1,18,-1
128 256 m 1,22,23
 128 256 128 256 128 384 c 1,24,-1
 64 384 l 1,25,26
 64 384 64 384 64 256 c 1,27,-1
 128 256 l 1,22,23
384 256 m 1,28,-1
 448 256 l 1,29,30
 448 256 448 256 448 384 c 1,31,-1
 384 384 l 1,32,33
 384 384 384 384 384 256 c 1,28,-1
128 384 m 1,34,-1
 384 384 l 1,35,-1
 384 448 l 1,36,-1
 128 448 l 1,37,-1
 128 384 l 1,34,-1
128 448 m 1,38,39
 128 448 128 448 128 576 c 1,40,-1
 64 576 l 1,41,42
 64 576 64 576 64 448 c 1,43,-1
 128 448 l 1,38,39
128 576 m 1,44,-1
 384 576 l 1,45,-1
 384 640 l 1,46,-1
 128 640 l 1,47,-1
 128 576 l 1,44,-1
EndSplineSet
EndChar

StartChar: uni0016
Encoding: 22 22 22
Width: 512
GlyphClass: 2
Flags: W
LayerCount: 2
Fore
SplineSet
64 512 m 1,0,-1
 64 256 l 1,1,-1
 512 256 l 1,2,-1
 512 512 l 1,3,-1
 64 512 l 1,0,-1
EndSplineSet
EndChar

StartChar: uni0017
Encoding: 23 23 23
Width: 512
GlyphClass: 2
Flags: W
LayerCount: 2
Fore
SplineSet
448 0 m 1,0,-1
 448 64 l 1,1,-1
 320 64 l 1,2,-1
 320 128 l 1,3,-1
 384 128 l 1,4,-1
 384 192 l 1,5,-1
 320 192 l 1,6,-1
 320 640 l 1,7,-1
 384 640 l 1,8,-1
 384 576 l 1,9,-1
 448 576 l 1,10,-1
 448 640 l 1,11,-1
 384 640 l 1,12,-1
 384 704 l 1,13,-1
 320 704 l 1,14,-1
 320 768 l 1,15,-1
 256 768 l 1,16,-1
 256 704 l 1,17,-1
 192 704 l 1,18,-1
 192 640 l 1,19,-1
 128 640 l 1,20,-1
 128 576 l 1,21,-1
 192 576 l 1,22,-1
 192 640 l 1,23,-1
 256 640 l 1,24,-1
 256 192 l 1,25,-1
 192 192 l 1,26,-1
 192 128 l 1,27,-1
 256 128 l 1,28,-1
 256 64 l 1,29,-1
 128 64 l 1,30,-1
 128 0 l 1,31,-1
 448 0 l 1,0,-1
448 192 m 1,32,-1
 448 256 l 1,33,-1
 384 256 l 1,34,-1
 384 192 l 1,35,-1
 448 192 l 1,32,-1
192 192 m 1,36,-1
 192 256 l 1,37,-1
 128 256 l 1,38,-1
 128 192 l 1,39,-1
 192 192 l 1,36,-1
EndSplineSet
EndChar

StartChar: uni0018
Encoding: 24 24 24
Width: 512
GlyphClass: 2
Flags: W
LayerCount: 2
Fore
SplineSet
448 576 m 1,0,-1
 448 640 l 1,1,-1
 384 640 l 1,2,-1
 384 576 l 1,3,-1
 448 576 l 1,0,-1
256 640 m 1,4,-1
 256 -128 l 1,5,-1
 320 -128 l 1,6,-1
 320 640 l 1,7,-1
 384 640 l 1,8,-1
 384 704 l 1,9,-1
 320 704 l 1,10,-1
 320 768 l 1,11,-1
 256 768 l 1,12,-1
 256 704 l 1,13,-1
 192 704 l 1,14,-1
 192 640 l 1,15,-1
 128 640 l 1,16,-1
 128 576 l 1,17,-1
 192 576 l 1,18,-1
 192 640 l 1,19,-1
 256 640 l 1,4,-1
EndSplineSet
EndChar

StartChar: uni0019
Encoding: 25 25 25
Width: 512
GlyphClass: 2
Flags: W
LayerCount: 2
Fore
SplineSet
448 128 m 1,0,-1
 448 192 l 1,1,-1
 384 192 l 1,2,-1
 384 128 l 1,3,-1
 320 128 l 1,4,-1
 320 896 l 1,5,-1
 256 896 l 1,6,-1
 256 128 l 1,7,-1
 192 128 l 1,8,-1
 192 64 l 1,9,-1
 256 64 l 1,10,-1
 256 0 l 1,11,-1
 320 0 l 1,12,-1
 320 64 l 1,13,-1
 384 64 l 1,14,-1
 384 128 l 1,15,-1
 448 128 l 1,0,-1
192 128 m 1,16,-1
 192 192 l 1,17,-1
 128 192 l 1,18,-1
 128 128 l 1,19,-1
 192 128 l 1,16,-1
EndSplineSet
EndChar

StartChar: uni001A
Encoding: 26 26 26
Width: 512
GlyphClass: 2
Flags: W
LayerCount: 2
Fore
SplineSet
448 256 m 1,0,-1
 448 320 l 1,1,-1
 384 320 l 1,2,-1
 384 384 l 1,3,-1
 320 384 l 1,4,-1
 320 320 l 1,5,-1
 0 320 l 1,6,-1
 0 256 l 1,7,-1
 320 256 l 1,8,-1
 320 192 l 1,9,-1
 256 192 l 1,10,-1
 256 128 l 1,11,-1
 320 128 l 1,12,-1
 320 192 l 1,13,-1
 384 192 l 1,14,-1
 384 256 l 1,15,-1
 448 256 l 1,0,-1
320 384 m 1,16,-1
 320 448 l 1,17,-1
 256 448 l 1,18,-1
 256 384 l 1,19,-1
 320 384 l 1,16,-1
EndSplineSet
EndChar

StartChar: uni001B
Encoding: 27 27 27
Width: 512
GlyphClass: 2
Flags: W
LayerCount: 2
Fore
SplineSet
256 128 m 1,0,-1
 256 192 l 1,1,-1
 192 192 l 1,2,-1
 192 128 l 1,3,-1
 256 128 l 1,0,-1
512 256 m 1,4,-1
 512 320 l 1,5,-1
 192 320 l 1,6,-1
 192 384 l 1,7,-1
 128 384 l 1,8,-1
 128 320 l 1,9,-1
 64 320 l 1,10,-1
 64 256 l 1,11,-1
 128 256 l 1,12,-1
 128 192 l 1,13,-1
 192 192 l 1,14,-1
 192 256 l 1,15,-1
 512 256 l 1,4,-1
256 384 m 1,16,-1
 256 448 l 1,17,-1
 192 448 l 1,18,-1
 192 384 l 1,19,-1
 256 384 l 1,16,-1
EndSplineSet
EndChar

StartChar: uni001C
Encoding: 28 28 28
Width: 512
GlyphClass: 2
Flags: W
LayerCount: 2
Fore
SplineSet
448 0 m 1,0,-1
 448 64 l 1,1,-1
 128 64 l 1,2,-1
 128 448 l 1,3,-1
 64 448 l 1,4,-1
 64 0 l 1,5,-1
 448 0 l 1,0,-1
EndSplineSet
EndChar

StartChar: uni001D
Encoding: 29 29 29
Width: 512
GlyphClass: 2
Flags: W
LayerCount: 2
Fore
SplineSet
192 128 m 1,0,-1
 192 192 l 1,1,-1
 128 192 l 1,2,-1
 128 128 l 1,3,-1
 192 128 l 1,0,-1
512 256 m 1,4,-1
 512 320 l 1,5,-1
 448 320 l 1,6,-1
 448 384 l 1,7,-1
 384 384 l 1,8,-1
 384 320 l 1,9,-1
 128 320 l 1,10,-1
 128 384 l 1,11,-1
 64 384 l 1,12,-1
 64 320 l 1,13,-1
 0 320 l 1,14,-1
 0 256 l 1,15,-1
 64 256 l 1,16,-1
 64 192 l 1,17,-1
 128 192 l 1,18,-1
 128 256 l 1,19,-1
 384 256 l 1,20,-1
 384 192 l 1,21,-1
 320 192 l 1,22,-1
 320 128 l 1,23,-1
 384 128 l 1,24,-1
 384 192 l 1,25,-1
 448 192 l 1,26,-1
 448 256 l 1,27,-1
 512 256 l 1,4,-1
192 384 m 1,28,-1
 192 448 l 1,29,-1
 128 448 l 1,30,-1
 128 384 l 1,31,-1
 192 384 l 1,28,-1
384 384 m 1,32,-1
 384 448 l 1,33,-1
 320 448 l 1,34,-1
 320 384 l 1,35,-1
 384 384 l 1,32,-1
EndSplineSet
EndChar

StartChar: uni001E
Encoding: 30 30 30
Width: 512
GlyphClass: 2
Flags: W
LayerCount: 2
Fore
SplineSet
64 320 m 1,0,-1
 64 192 l 1,1,-1
 448 192 l 1,2,-1
 448 320 l 1,3,-1
 384 320 l 1,4,-1
 384 448 l 1,5,-1
 320 448 l 1,6,-1
 320 576 l 1,7,-1
 192 576 l 1,8,-1
 192 448 l 1,9,-1
 128 448 l 1,10,-1
 128 320 l 1,11,-1
 64 320 l 1,0,-1
EndSplineSet
EndChar

StartChar: uni001F
Encoding: 31 31 31
Width: 512
GlyphClass: 2
Flags: W
LayerCount: 2
Fore
SplineSet
192 320 m 1,0,-1
 192 192 l 1,1,-1
 320 192 l 1,2,-1
 320 320 l 1,3,-1
 384 320 l 1,4,-1
 384 448 l 1,5,-1
 448 448 l 1,6,-1
 448 576 l 1,7,-1
 64 576 l 1,8,-1
 64 448 l 1,9,-1
 128 448 l 1,10,-1
 128 320 l 1,11,-1
 192 320 l 1,0,-1
EndSplineSet
EndChar

StartChar: uni0021
Encoding: 33 33 33
Width: 512
GlyphClass: 2
Flags: W
LayerCount: 2
Fore
SplineSet
256 128 m 1,0,1
 256 128 256 128 256 0 c 1,2,-1
 320 0 l 1,3,4
 320 0 320 0 320 128 c 1,5,-1
 256 128 l 1,0,1
256 640 m 1,6,-1
 256 192 l 1,7,-1
 320 192 l 1,8,-1
 320 640 l 1,9,-1
 256 640 l 1,6,-1
EndSplineSet
EndChar

StartChar: uni0022
Encoding: 34 34 34
Width: 512
GlyphClass: 2
Flags: W
LayerCount: 2
Fore
SplineSet
128 768 m 1,0,1
 128 768 128 768 128 512 c 1,2,-1
 192 512 l 1,3,4
 192 512 192 512 192 768 c 1,5,-1
 128 768 l 1,0,1
384 768 m 1,6,7
 384 768 384 768 384 512 c 1,8,-1
 448 512 l 1,9,10
 448 512 448 512 448 768 c 1,11,-1
 384 768 l 1,6,7
EndSplineSet
EndChar

StartChar: uni0023
Encoding: 35 35 35
Width: 512
GlyphClass: 2
Flags: W
LayerCount: 2
Fore
SplineSet
448 192 m 1,0,-1
 448 256 l 1,1,-1
 384 256 l 1,2,3
 384 256 384 256 384 384 c 1,4,-1
 448 384 l 1,5,6
 448 384 448 384 448 640 c 1,7,-1
 384 640 l 1,8,-1
 384 448 l 1,9,-1
 256 448 l 1,10,-1
 256 640 l 1,11,-1
 192 640 l 1,12,-1
 192 448 l 1,13,-1
 64 448 l 1,14,-1
 64 384 l 1,15,-1
 128 384 l 1,16,17
 128 384 128 384 128 256 c 1,18,-1
 64 256 l 1,19,20
 64 256 64 256 64 0 c 1,21,-1
 128 0 l 1,22,-1
 128 192 l 1,23,-1
 256 192 l 1,24,-1
 256 0 l 1,25,-1
 320 0 l 1,26,-1
 320 192 l 1,27,-1
 448 192 l 1,0,-1
192 256 m 1,28,29
 192 256 192 256 192 384 c 1,30,-1
 320 384 l 1,31,32
 320 384 320 384 320 256 c 1,33,-1
 192 256 l 1,28,29
EndSplineSet
EndChar

StartChar: uni0024
Encoding: 36 36 36
Width: 512
GlyphClass: 2
Flags: W
LayerCount: 2
Fore
SplineSet
512 448 m 1,0,-1
 512 512 l 1,1,-1
 448 512 l 1,2,-1
 448 448 l 1,3,-1
 512 448 l 1,0,-1
320 64 m 1,4,-1
 448 64 l 1,5,-1
 448 128 l 1,6,-1
 320 128 l 1,7,8
 320 128 320 128 320 256 c 1,9,-1
 448 256 l 1,10,11
 448 256 448 256 448 128 c 1,12,-1
 512 128 l 1,13,14
 512 128 512 128 512 256 c 1,15,-1
 448 256 l 1,16,-1
 448 320 l 1,17,-1
 320 320 l 1,18,-1
 320 512 l 1,19,-1
 448 512 l 1,20,-1
 448 576 l 1,21,-1
 320 576 l 1,22,-1
 320 640 l 1,23,-1
 256 640 l 1,24,-1
 256 576 l 1,25,-1
 128 576 l 1,26,-1
 128 512 l 1,27,-1
 64 512 l 1,28,29
 64 512 64 512 64 384 c 1,30,-1
 128 384 l 1,31,-1
 128 320 l 1,32,-1
 256 320 l 1,33,-1
 256 128 l 1,34,-1
 128 128 l 1,35,-1
 128 64 l 1,36,-1
 256 64 l 1,37,-1
 256 0 l 1,38,-1
 320 0 l 1,39,-1
 320 64 l 1,4,-1
128 128 m 1,40,-1
 128 192 l 1,41,-1
 64 192 l 1,42,-1
 64 128 l 1,43,-1
 128 128 l 1,40,-1
128 384 m 1,44,45
 128 384 128 384 128 512 c 1,46,-1
 256 512 l 1,47,48
 256 512 256 512 256 384 c 1,49,-1
 128 384 l 1,44,45
EndSplineSet
EndChar

StartChar: uni0025
Encoding: 37 37 37
Width: 512
GlyphClass: 2
Flags: W
LayerCount: 2
Fore
SplineSet
512 576 m 1,0,-1
 512 640 l 1,1,-1
 448 640 l 1,2,-1
 448 576 l 1,3,-1
 384 576 l 1,4,5
 384 576 384 576 384 448 c 1,6,-1
 320 448 l 1,7,-1
 320 384 l 1,8,-1
 256 384 l 1,9,10
 256 384 256 384 256 256 c 1,11,-1
 192 256 l 1,12,-1
 192 192 l 1,13,-1
 128 192 l 1,14,15
 128 192 128 192 128 64 c 1,16,-1
 64 64 l 1,17,-1
 64 0 l 1,18,-1
 128 0 l 1,19,-1
 128 64 l 1,20,-1
 192 64 l 1,21,22
 192 64 192 64 192 192 c 1,23,-1
 256 192 l 1,24,25
 256 192 256 192 256 64 c 1,26,-1
 320 64 l 1,27,-1
 320 0 l 1,28,-1
 448 0 l 1,29,-1
 448 64 l 1,30,-1
 320 64 l 1,31,32
 320 64 320 64 320 192 c 1,33,-1
 256 192 l 1,34,-1
 256 256 l 1,35,-1
 320 256 l 1,36,-1
 320 192 l 1,37,-1
 448 192 l 1,38,39
 448 192 448 192 448 64 c 1,40,-1
 512 64 l 1,41,42
 512 64 512 64 512 192 c 1,43,-1
 448 192 l 1,44,-1
 448 256 l 1,45,-1
 320 256 l 1,46,47
 320 256 320 256 320 384 c 1,48,-1
 384 384 l 1,49,-1
 384 448 l 1,50,-1
 448 448 l 1,51,52
 448 448 448 448 448 576 c 1,53,-1
 512 576 l 1,0,-1
256 384 m 1,54,-1
 256 448 l 1,55,-1
 128 448 l 1,56,-1
 128 384 l 1,57,-1
 256 384 l 1,54,-1
128 448 m 1,58,59
 128 448 128 448 128 576 c 1,60,-1
 64 576 l 1,61,62
 64 576 64 576 64 448 c 1,63,-1
 128 448 l 1,58,59
256 448 m 1,64,-1
 320 448 l 1,65,66
 320 448 320 448 320 576 c 1,67,-1
 256 576 l 1,68,69
 256 576 256 576 256 448 c 1,64,-1
128 576 m 1,70,-1
 256 576 l 1,71,-1
 256 640 l 1,72,-1
 128 640 l 1,73,-1
 128 576 l 1,70,-1
EndSplineSet
EndChar

StartChar: uni0026
Encoding: 38 38 38
Width: 512
GlyphClass: 2
Flags: W
LayerCount: 2
Fore
SplineSet
512 0 m 1,0,-1
 512 64 l 1,1,-1
 448 64 l 1,2,-1
 448 0 l 1,3,-1
 512 0 l 1,0,-1
128 64 m 1,4,-1
 128 0 l 1,5,-1
 320 0 l 1,6,-1
 320 64 l 1,7,-1
 128 64 l 1,4,-1
128 64 m 1,8,-1
 128 256 l 1,9,-1
 64 256 l 1,10,-1
 64 64 l 1,11,-1
 128 64 l 1,8,-1
320 64 m 1,12,-1
 448 64 l 1,13,14
 448 64 448 64 448 192 c 1,15,-1
 384 192 l 1,16,-1
 384 128 l 1,17,-1
 320 128 l 1,18,-1
 320 64 l 1,12,-1
384 192 m 1,19,-1
 384 256 l 1,20,-1
 320 256 l 1,21,-1
 320 192 l 1,22,-1
 384 192 l 1,19,-1
448 192 m 1,23,-1
 512 192 l 1,24,25
 512 192 512 192 512 320 c 1,26,-1
 448 320 l 1,27,28
 448 320 448 320 448 192 c 1,23,-1
128 256 m 1,29,-1
 192 256 l 1,30,-1
 192 320 l 1,31,-1
 128 320 l 1,32,-1
 128 256 l 1,29,-1
320 256 m 1,33,34
 320 256 320 256 320 384 c 1,35,-1
 256 384 l 1,36,-1
 256 448 l 1,37,-1
 192 448 l 1,38,39
 192 448 192 448 192 320 c 1,40,-1
 256 320 l 1,41,-1
 256 256 l 1,42,-1
 320 256 l 1,33,34
320 384 m 1,43,-1
 384 384 l 1,44,-1
 384 448 l 1,45,-1
 320 448 l 1,46,-1
 320 384 l 1,43,-1
192 448 m 1,47,48
 192 448 192 448 192 576 c 1,49,-1
 128 576 l 1,50,51
 128 576 128 576 128 448 c 1,52,-1
 192 448 l 1,47,48
384 448 m 1,53,-1
 448 448 l 1,54,55
 448 448 448 448 448 576 c 1,56,-1
 384 576 l 1,57,58
 384 576 384 576 384 448 c 1,53,-1
192 576 m 1,59,-1
 384 576 l 1,60,-1
 384 640 l 1,61,-1
 192 640 l 1,62,-1
 192 576 l 1,59,-1
EndSplineSet
EndChar

StartChar: uni0027
Encoding: 39 39 39
Width: 512
GlyphClass: 2
Flags: W
LayerCount: 2
Fore
SplineSet
256 768 m 1,0,1
 256 768 256 768 256 512 c 1,2,-1
 320 512 l 1,3,4
 320 512 320 512 320 768 c 1,5,-1
 256 768 l 1,0,1
EndSplineSet
EndChar

StartChar: uni0028
Encoding: 40 40 40
Width: 512
GlyphClass: 2
Flags: W
LayerCount: 2
Fore
SplineSet
384 -64 m 1,0,-1
 384 0 l 1,1,-1
 320 0 l 1,2,-1
 320 -64 l 1,3,-1
 384 -64 l 1,0,-1
384 640 m 1,4,-1
 384 704 l 1,5,-1
 320 704 l 1,6,-1
 320 640 l 1,7,-1
 256 640 l 1,8,9
 256 640 256 640 256 512 c 1,10,-1
 192 512 l 1,11,12
 192 512 192 512 192 128 c 1,13,-1
 256 128 l 1,14,15
 256 128 256 128 256 0 c 1,16,-1
 320 0 l 1,17,18
 320 0 320 0 320 128 c 1,19,-1
 256 128 l 1,20,21
 256 128 256 128 256 512 c 1,22,-1
 320 512 l 1,23,24
 320 512 320 512 320 640 c 1,25,-1
 384 640 l 1,4,-1
EndSplineSet
EndChar

StartChar: uni0029
Encoding: 41 41 41
Width: 512
GlyphClass: 2
Flags: W
LayerCount: 2
Fore
SplineSet
192 0 m 1,0,-1
 128 0 l 1,1,-1
 128 -64 l 1,2,-1
 192 -64 l 1,3,-1
 192 0 l 1,0,-1
192 0 m 1,4,-1
 256 0 l 1,5,6
 256 0 256 0 256 128 c 1,7,-1
 192 128 l 1,8,9
 192 128 192 128 192 0 c 1,4,-1
256 128 m 1,10,-1
 320 128 l 1,11,12
 320 128 320 128 320 512 c 1,13,-1
 256 512 l 1,14,15
 256 512 256 512 256 128 c 1,10,-1
256 512 m 1,16,17
 256 512 256 512 256 640 c 1,18,-1
 192 640 l 1,19,20
 192 640 192 640 192 512 c 1,21,-1
 256 512 l 1,16,17
192 640 m 1,22,-1
 192 704 l 1,23,-1
 128 704 l 1,24,-1
 128 640 l 1,25,-1
 192 640 l 1,22,-1
EndSplineSet
EndChar

StartChar: uni002A
Encoding: 42 42 42
Width: 512
GlyphClass: 2
Flags: W
LayerCount: 2
Fore
SplineSet
512 128 m 1,0,-1
 512 192 l 1,1,-1
 448 192 l 1,2,-1
 448 128 l 1,3,-1
 512 128 l 1,0,-1
512 384 m 1,4,-1
 512 448 l 1,5,-1
 448 448 l 1,6,-1
 448 384 l 1,7,-1
 384 384 l 1,8,-1
 384 320 l 1,9,-1
 320 320 l 1,10,-1
 320 512 l 1,11,-1
 256 512 l 1,12,-1
 256 320 l 1,13,-1
 192 320 l 1,14,-1
 192 256 l 1,15,-1
 128 256 l 1,16,-1
 128 192 l 1,17,-1
 64 192 l 1,18,-1
 64 128 l 1,19,-1
 128 128 l 1,20,-1
 128 192 l 1,21,-1
 192 192 l 1,22,-1
 192 256 l 1,23,-1
 256 256 l 1,24,-1
 256 64 l 1,25,-1
 320 64 l 1,26,-1
 320 256 l 1,27,-1
 384 256 l 1,28,-1
 384 192 l 1,29,-1
 448 192 l 1,30,-1
 448 256 l 1,31,-1
 384 256 l 1,32,-1
 384 320 l 1,33,-1
 448 320 l 1,34,-1
 448 384 l 1,35,-1
 512 384 l 1,4,-1
192 320 m 1,36,-1
 192 384 l 1,37,-1
 128 384 l 1,38,-1
 128 320 l 1,39,-1
 192 320 l 1,36,-1
128 384 m 1,40,-1
 128 448 l 1,41,-1
 64 448 l 1,42,-1
 64 384 l 1,43,-1
 128 384 l 1,40,-1
EndSplineSet
EndChar

StartChar: uni002B
Encoding: 43 43 43
Width: 512
GlyphClass: 2
Flags: W
LayerCount: 2
Fore
SplineSet
512 256 m 1,0,-1
 512 320 l 1,1,-1
 320 320 l 1,2,-1
 320 512 l 1,3,-1
 256 512 l 1,4,-1
 256 320 l 1,5,-1
 64 320 l 1,6,-1
 64 256 l 1,7,-1
 256 256 l 1,8,-1
 256 64 l 1,9,-1
 320 64 l 1,10,-1
 320 256 l 1,11,-1
 512 256 l 1,0,-1
EndSplineSet
EndChar

StartChar: uni002C
Encoding: 44 44 44
Width: 512
GlyphClass: 2
Flags: W
LayerCount: 2
Fore
SplineSet
256 -64 m 1,0,-1
 192 -64 l 1,1,-1
 192 -128 l 1,2,-1
 256 -128 l 1,3,-1
 256 -64 l 1,0,-1
256 -64 m 1,4,-1
 320 -64 l 1,5,-1
 320 128 l 1,6,-1
 192 128 l 1,7,-1
 192 64 l 1,8,-1
 256 64 l 1,9,10
 256 64 256 64 256 -64 c 1,4,-1
EndSplineSet
EndChar

StartChar: uni002D
Encoding: 45 45 45
Width: 512
GlyphClass: 2
Flags: W
LayerCount: 2
Fore
SplineSet
384 256 m 1,0,-1
 384 320 l 1,1,-1
 128 320 l 1,2,-1
 128 256 l 1,3,-1
 384 256 l 1,0,-1
EndSplineSet
EndChar

StartChar: uni002E
Encoding: 46 46 46
Width: 512
GlyphClass: 2
Flags: W
LayerCount: 2
Fore
SplineSet
192 128 m 1,0,1
 192 128 192 128 192 0 c 1,2,-1
 320 0 l 1,3,4
 320 0 320 0 320 128 c 1,5,-1
 192 128 l 1,0,1
EndSplineSet
EndChar

StartChar: uni002F
Encoding: 47 47 47
Width: 512
GlyphClass: 2
Flags: W
LayerCount: 2
Fore
SplineSet
64 128 m 1,0,1
 64 128 64 128 64 0 c 1,2,-1
 128 0 l 1,3,4
 128 0 128 0 128 128 c 1,5,-1
 64 128 l 1,0,1
128 128 m 1,6,-1
 192 128 l 1,7,-1
 192 192 l 1,8,-1
 128 192 l 1,9,-1
 128 128 l 1,6,-1
192 192 m 1,10,-1
 256 192 l 1,11,12
 256 192 256 192 256 320 c 1,13,-1
 192 320 l 1,14,15
 192 320 192 320 192 192 c 1,10,-1
256 320 m 1,16,-1
 320 320 l 1,17,18
 320 320 320 320 320 448 c 1,19,-1
 256 448 l 1,20,21
 256 448 256 448 256 320 c 1,16,-1
320 448 m 1,22,-1
 384 448 l 1,23,-1
 384 512 l 1,24,-1
 320 512 l 1,25,-1
 320 448 l 1,22,-1
384 512 m 1,26,-1
 448 512 l 1,27,28
 448 512 448 512 448 640 c 1,29,-1
 384 640 l 1,30,31
 384 640 384 640 384 512 c 1,26,-1
EndSplineSet
EndChar

StartChar: uni0030
Encoding: 48 48 48
Width: 512
GlyphClass: 2
Flags: W
LayerCount: 2
Fore
SplineSet
192 64 m 1,0,-1
 192 0 l 1,1,-1
 320 0 l 1,2,-1
 320 64 l 1,3,-1
 192 64 l 1,0,-1
192 64 m 1,4,-1
 192 128 l 1,5,-1
 128 128 l 1,6,-1
 128 64 l 1,7,-1
 192 64 l 1,4,-1
320 64 m 1,8,-1
 384 64 l 1,9,-1
 384 128 l 1,10,-1
 320 128 l 1,11,-1
 320 64 l 1,8,-1
128 128 m 1,12,13
 128 128 128 128 128 512 c 1,14,-1
 64 512 l 1,15,16
 64 512 64 512 64 128 c 1,17,-1
 128 128 l 1,12,13
384 128 m 1,18,-1
 448 128 l 1,19,20
 448 128 448 128 448 512 c 1,21,-1
 384 512 l 1,22,23
 384 512 384 512 384 128 c 1,18,-1
128 512 m 1,24,-1
 192 512 l 1,25,-1
 192 576 l 1,26,-1
 128 576 l 1,27,-1
 128 512 l 1,24,-1
384 512 m 1,28,-1
 384 576 l 1,29,-1
 320 576 l 1,30,-1
 320 512 l 1,31,-1
 384 512 l 1,28,-1
192 576 m 1,32,-1
 320 576 l 1,33,-1
 320 640 l 1,34,-1
 192 640 l 1,35,-1
 192 576 l 1,32,-1
EndSplineSet
EndChar

StartChar: uni0031
Encoding: 49 49 49
Width: 512
GlyphClass: 2
Flags: W
LayerCount: 2
Fore
SplineSet
448 0 m 1,0,-1
 448 64 l 1,1,-1
 320 64 l 1,2,-1
 320 640 l 1,3,-1
 256 640 l 1,4,-1
 256 576 l 1,5,-1
 192 576 l 1,6,-1
 192 512 l 1,7,-1
 128 512 l 1,8,-1
 128 448 l 1,9,-1
 192 448 l 1,10,-1
 192 512 l 1,11,-1
 256 512 l 1,12,-1
 256 64 l 1,13,-1
 128 64 l 1,14,-1
 128 0 l 1,15,-1
 448 0 l 1,0,-1
EndSplineSet
EndChar

StartChar: uni0032
Encoding: 50 50 50
Width: 512
GlyphClass: 2
Flags: W
LayerCount: 2
Fore
SplineSet
448 0 m 1,0,-1
 448 64 l 1,1,-1
 128 64 l 1,2,3
 128 64 128 64 128 192 c 1,4,-1
 64 192 l 1,5,-1
 64 0 l 1,6,-1
 448 0 l 1,0,-1
128 192 m 1,7,-1
 192 192 l 1,8,-1
 192 256 l 1,9,-1
 128 256 l 1,10,-1
 128 192 l 1,7,-1
192 256 m 1,11,-1
 256 256 l 1,12,-1
 256 320 l 1,13,-1
 192 320 l 1,14,-1
 192 256 l 1,11,-1
256 320 m 1,15,-1
 384 320 l 1,16,-1
 384 384 l 1,17,-1
 256 384 l 1,18,-1
 256 320 l 1,15,-1
384 384 m 1,19,-1
 448 384 l 1,20,-1
 448 576 l 1,21,-1
 384 576 l 1,22,-1
 384 384 l 1,19,-1
64 576 m 1,23,24
 64 576 64 576 64 448 c 1,25,-1
 128 448 l 1,26,27
 128 448 128 448 128 576 c 1,28,-1
 64 576 l 1,23,24
128 576 m 1,29,-1
 384 576 l 1,30,-1
 384 640 l 1,31,-1
 128 640 l 1,32,-1
 128 576 l 1,29,-1
EndSplineSet
EndChar

StartChar: uni0033
Encoding: 51 51 51
Width: 512
GlyphClass: 2
Flags: W
LayerCount: 2
Fore
SplineSet
128 64 m 1,0,-1
 128 0 l 1,1,-1
 384 0 l 1,2,-1
 384 64 l 1,3,-1
 128 64 l 1,0,-1
128 64 m 1,4,5
 128 64 128 64 128 192 c 1,6,-1
 64 192 l 1,7,8
 64 192 64 192 64 64 c 1,9,-1
 128 64 l 1,4,5
384 64 m 1,10,-1
 448 64 l 1,11,12
 448 64 448 64 448 320 c 1,13,-1
 384 320 l 1,14,15
 384 320 384 320 384 64 c 1,10,-1
384 320 m 1,16,-1
 384 384 l 1,17,-1
 192 384 l 1,18,-1
 192 320 l 1,19,-1
 384 320 l 1,16,-1
384 384 m 1,20,-1
 448 384 l 1,21,-1
 448 576 l 1,22,-1
 384 576 l 1,23,-1
 384 384 l 1,20,-1
64 576 m 1,24,25
 64 576 64 576 64 448 c 1,26,-1
 128 448 l 1,27,28
 128 448 128 448 128 576 c 1,29,-1
 64 576 l 1,24,25
128 576 m 1,30,-1
 384 576 l 1,31,-1
 384 640 l 1,32,-1
 128 640 l 1,33,-1
 128 576 l 1,30,-1
EndSplineSet
EndChar

StartChar: uni0034
Encoding: 52 52 52
Width: 512
GlyphClass: 2
Flags: W
LayerCount: 2
Fore
SplineSet
448 192 m 1,0,-1
 448 256 l 1,1,-1
 384 256 l 1,2,3
 384 256 384 256 384 640 c 1,4,-1
 320 640 l 1,5,-1
 320 576 l 1,6,-1
 256 576 l 1,7,-1
 256 512 l 1,8,-1
 192 512 l 1,9,-1
 192 448 l 1,10,-1
 128 448 l 1,11,-1
 128 384 l 1,12,-1
 64 384 l 1,13,-1
 64 192 l 1,14,-1
 320 192 l 1,15,-1
 320 0 l 1,16,-1
 384 0 l 1,17,-1
 384 192 l 1,18,-1
 448 192 l 1,0,-1
128 256 m 1,19,20
 128 256 128 256 128 384 c 1,21,-1
 192 384 l 1,22,-1
 192 448 l 1,23,-1
 256 448 l 1,24,-1
 256 512 l 1,25,-1
 320 512 l 1,26,27
 320 512 320 512 320 256 c 1,28,-1
 128 256 l 1,19,20
EndSplineSet
EndChar

StartChar: uni0035
Encoding: 53 53 53
Width: 512
GlyphClass: 2
Flags: W
LayerCount: 2
Fore
SplineSet
448 576 m 1,0,-1
 448 640 l 1,1,-1
 64 640 l 1,2,-1
 64 320 l 1,3,-1
 384 320 l 1,4,5
 384 320 384 320 384 64 c 1,6,-1
 128 64 l 1,7,-1
 128 0 l 1,8,-1
 384 0 l 1,9,-1
 384 64 l 1,10,-1
 448 64 l 1,11,12
 448 64 448 64 448 320 c 1,13,-1
 384 320 l 1,14,-1
 384 384 l 1,15,-1
 128 384 l 1,16,-1
 128 576 l 1,17,-1
 448 576 l 1,0,-1
128 64 m 1,18,-1
 128 128 l 1,19,-1
 64 128 l 1,20,-1
 64 64 l 1,21,-1
 128 64 l 1,18,-1
EndSplineSet
EndChar

StartChar: uni0036
Encoding: 54 54 54
Width: 512
GlyphClass: 2
Flags: W
LayerCount: 2
Fore
SplineSet
384 576 m 1,0,-1
 384 640 l 1,1,-1
 192 640 l 1,2,-1
 192 576 l 1,3,-1
 128 576 l 1,4,-1
 128 512 l 1,5,-1
 64 512 l 1,6,-1
 64 64 l 1,7,-1
 128 64 l 1,8,-1
 128 0 l 1,9,-1
 384 0 l 1,10,-1
 384 64 l 1,11,-1
 128 64 l 1,12,13
 128 64 128 64 128 320 c 1,14,-1
 384 320 l 1,15,16
 384 320 384 320 384 64 c 1,17,-1
 448 64 l 1,18,19
 448 64 448 64 448 320 c 1,20,-1
 384 320 l 1,21,-1
 384 384 l 1,22,-1
 128 384 l 1,23,24
 128 384 128 384 128 512 c 1,25,-1
 192 512 l 1,26,-1
 192 576 l 1,27,-1
 384 576 l 1,0,-1
EndSplineSet
EndChar

StartChar: uni0037
Encoding: 55 55 55
Width: 512
GlyphClass: 2
Flags: W
LayerCount: 2
Fore
SplineSet
256 256 m 1,0,1
 256 256 256 256 256 0 c 1,2,-1
 320 0 l 1,3,4
 320 0 320 0 320 256 c 1,5,-1
 256 256 l 1,0,1
320 256 m 1,6,-1
 384 256 l 1,7,-1
 384 448 l 1,8,-1
 320 448 l 1,9,-1
 320 256 l 1,6,-1
384 448 m 1,10,-1
 448 448 l 1,11,-1
 448 640 l 1,12,-1
 64 640 l 1,13,-1
 64 576 l 1,14,-1
 384 576 l 1,15,16
 384 576 384 576 384 448 c 1,10,-1
EndSplineSet
EndChar

StartChar: uni0038
Encoding: 56 56 56
Width: 512
GlyphClass: 2
Flags: W
LayerCount: 2
Fore
SplineSet
128 64 m 1,0,-1
 128 0 l 1,1,-1
 384 0 l 1,2,-1
 384 64 l 1,3,-1
 128 64 l 1,0,-1
128 64 m 1,4,5
 128 64 128 64 128 320 c 1,6,-1
 64 320 l 1,7,8
 64 320 64 320 64 64 c 1,9,-1
 128 64 l 1,4,5
384 64 m 1,10,-1
 448 64 l 1,11,12
 448 64 448 64 448 320 c 1,13,-1
 384 320 l 1,14,15
 384 320 384 320 384 64 c 1,10,-1
128 320 m 1,16,-1
 384 320 l 1,17,-1
 384 384 l 1,18,-1
 128 384 l 1,19,-1
 128 320 l 1,16,-1
128 384 m 1,20,-1
 128 576 l 1,21,-1
 64 576 l 1,22,-1
 64 384 l 1,23,-1
 128 384 l 1,20,-1
384 384 m 1,24,-1
 448 384 l 1,25,-1
 448 576 l 1,26,-1
 384 576 l 1,27,-1
 384 384 l 1,24,-1
128 576 m 1,28,-1
 384 576 l 1,29,-1
 384 640 l 1,30,-1
 128 640 l 1,31,-1
 128 576 l 1,28,-1
EndSplineSet
EndChar

StartChar: uni0039
Encoding: 57 57 57
Width: 512
GlyphClass: 2
Flags: W
LayerCount: 2
Fore
SplineSet
320 64 m 1,0,-1
 128 64 l 1,1,-1
 128 0 l 1,2,-1
 320 0 l 1,3,-1
 320 64 l 1,0,-1
320 64 m 1,4,-1
 384 64 l 1,5,-1
 384 128 l 1,6,-1
 320 128 l 1,7,-1
 320 64 l 1,4,-1
384 128 m 1,8,-1
 448 128 l 1,9,-1
 448 576 l 1,10,-1
 384 576 l 1,11,-1
 384 384 l 1,12,-1
 128 384 l 1,13,-1
 128 320 l 1,14,-1
 384 320 l 1,15,-1
 384 128 l 1,8,-1
128 384 m 1,16,-1
 128 576 l 1,17,-1
 64 576 l 1,18,-1
 64 384 l 1,19,-1
 128 384 l 1,16,-1
128 576 m 1,20,-1
 384 576 l 1,21,-1
 384 640 l 1,22,-1
 128 640 l 1,23,-1
 128 576 l 1,20,-1
EndSplineSet
EndChar

StartChar: uni003A
Encoding: 58 58 58
Width: 512
GlyphClass: 2
Flags: W
LayerCount: 2
Fore
SplineSet
192 192 m 1,0,1
 192 192 192 192 192 64 c 1,2,-1
 320 64 l 1,3,4
 320 64 320 64 320 192 c 1,5,-1
 192 192 l 1,0,1
192 512 m 1,6,7
 192 512 192 512 192 384 c 1,8,-1
 320 384 l 1,9,10
 320 384 320 384 320 512 c 1,11,-1
 192 512 l 1,6,7
EndSplineSet
EndChar

StartChar: uni003B
Encoding: 59 59 59
Width: 512
GlyphClass: 2
Flags: W
LayerCount: 2
Fore
SplineSet
256 0 m 1,0,-1
 192 0 l 1,1,-1
 192 -64 l 1,2,-1
 256 -64 l 1,3,-1
 256 0 l 1,0,-1
256 0 m 1,4,-1
 320 0 l 1,5,-1
 320 192 l 1,6,-1
 192 192 l 1,7,-1
 192 128 l 1,8,-1
 256 128 l 1,9,10
 256 128 256 128 256 0 c 1,4,-1
192 512 m 1,11,12
 192 512 192 512 192 384 c 1,13,-1
 320 384 l 1,14,15
 320 384 320 384 320 512 c 1,16,-1
 192 512 l 1,11,12
EndSplineSet
EndChar

StartChar: uni003C
Encoding: 60 60 60
Width: 512
GlyphClass: 2
Flags: W
LayerCount: 2
Fore
SplineSet
448 0 m 1,0,-1
 448 64 l 1,1,-1
 384 64 l 1,2,-1
 384 0 l 1,3,-1
 448 0 l 1,0,-1
448 512 m 1,4,-1
 448 576 l 1,5,-1
 384 576 l 1,6,-1
 384 512 l 1,7,-1
 320 512 l 1,8,-1
 320 448 l 1,9,-1
 256 448 l 1,10,-1
 256 384 l 1,11,-1
 192 384 l 1,12,-1
 192 320 l 1,13,-1
 128 320 l 1,14,-1
 128 256 l 1,15,-1
 192 256 l 1,16,-1
 192 192 l 1,17,-1
 256 192 l 1,18,-1
 256 128 l 1,19,-1
 320 128 l 1,20,-1
 320 64 l 1,21,-1
 384 64 l 1,22,-1
 384 128 l 1,23,-1
 320 128 l 1,24,-1
 320 192 l 1,25,-1
 256 192 l 1,26,-1
 256 256 l 1,27,-1
 192 256 l 1,28,-1
 192 320 l 1,29,-1
 256 320 l 1,30,-1
 256 384 l 1,31,-1
 320 384 l 1,32,-1
 320 448 l 1,33,-1
 384 448 l 1,34,-1
 384 512 l 1,35,-1
 448 512 l 1,4,-1
EndSplineSet
EndChar

StartChar: uni003D
Encoding: 61 61 61
Width: 512
GlyphClass: 2
Flags: W
LayerCount: 2
Fore
SplineSet
448 128 m 1,0,-1
 448 192 l 1,1,-1
 64 192 l 1,2,-1
 64 128 l 1,3,-1
 448 128 l 1,0,-1
448 384 m 1,4,-1
 448 448 l 1,5,-1
 64 448 l 1,6,-1
 64 384 l 1,7,-1
 448 384 l 1,4,-1
EndSplineSet
EndChar

StartChar: uni003E
Encoding: 62 62 62
Width: 512
GlyphClass: 2
Flags: W
LayerCount: 2
Fore
SplineSet
384 256 m 1,0,-1
 384 320 l 1,1,-1
 320 320 l 1,2,-1
 320 256 l 1,3,-1
 256 256 l 1,4,-1
 256 192 l 1,5,-1
 192 192 l 1,6,-1
 192 128 l 1,7,-1
 128 128 l 1,8,-1
 128 64 l 1,9,-1
 64 64 l 1,10,-1
 64 0 l 1,11,-1
 128 0 l 1,12,-1
 128 64 l 1,13,-1
 192 64 l 1,14,-1
 192 128 l 1,15,-1
 256 128 l 1,16,-1
 256 192 l 1,17,-1
 320 192 l 1,18,-1
 320 256 l 1,19,-1
 384 256 l 1,0,-1
320 320 m 1,20,-1
 320 384 l 1,21,-1
 256 384 l 1,22,-1
 256 320 l 1,23,-1
 320 320 l 1,20,-1
256 384 m 1,24,-1
 256 448 l 1,25,-1
 192 448 l 1,26,-1
 192 384 l 1,27,-1
 256 384 l 1,24,-1
192 448 m 1,28,-1
 192 512 l 1,29,-1
 128 512 l 1,30,-1
 128 448 l 1,31,-1
 192 448 l 1,28,-1
128 512 m 1,32,-1
 128 576 l 1,33,-1
 64 576 l 1,34,-1
 64 512 l 1,35,-1
 128 512 l 1,32,-1
EndSplineSet
EndChar

StartChar: uni003F
Encoding: 63 63 63
Width: 512
GlyphClass: 2
Flags: W
LayerCount: 2
Fore
SplineSet
256 128 m 1,0,1
 256 128 256 128 256 0 c 1,2,-1
 320 0 l 1,3,4
 320 0 320 0 320 128 c 1,5,-1
 256 128 l 1,0,1
256 320 m 1,6,7
 256 320 256 320 256 192 c 1,8,-1
 320 192 l 1,9,10
 320 192 320 192 320 320 c 1,11,-1
 256 320 l 1,6,7
320 320 m 1,12,-1
 384 320 l 1,13,-1
 384 384 l 1,14,-1
 320 384 l 1,15,-1
 320 320 l 1,12,-1
384 384 m 1,16,-1
 448 384 l 1,17,-1
 448 576 l 1,18,-1
 384 576 l 1,19,-1
 384 384 l 1,16,-1
64 576 m 1,20,21
 64 576 64 576 64 448 c 1,22,-1
 128 448 l 1,23,24
 128 448 128 448 128 576 c 1,25,-1
 64 576 l 1,20,21
128 576 m 1,26,-1
 384 576 l 1,27,-1
 384 640 l 1,28,-1
 128 640 l 1,29,-1
 128 576 l 1,26,-1
EndSplineSet
EndChar

StartChar: uni0040
Encoding: 64 64 64
Width: 512
GlyphClass: 2
Flags: W
LayerCount: 2
Fore
SplineSet
448 0 m 1,0,-1
 448 64 l 1,1,-1
 192 64 l 1,2,-1
 192 0 l 1,3,-1
 448 0 l 1,0,-1
192 64 m 1,4,-1
 192 128 l 1,5,-1
 128 128 l 1,6,-1
 128 64 l 1,7,-1
 192 64 l 1,4,-1
128 128 m 1,8,9
 128 128 128 128 128 512 c 1,10,-1
 64 512 l 1,11,12
 64 512 64 512 64 128 c 1,13,-1
 128 128 l 1,8,9
256 192 m 1,14,-1
 256 128 l 1,15,-1
 448 128 l 1,16,-1
 448 576 l 1,17,-1
 384 576 l 1,18,19
 384 576 384 576 384 448 c 1,20,-1
 320 448 l 1,21,-1
 320 384 l 1,22,-1
 384 384 l 1,23,-1
 384 192 l 1,24,-1
 256 192 l 1,14,-1
256 192 m 1,25,26
 256 192 256 192 256 448 c 1,27,-1
 192 448 l 1,28,29
 192 448 192 448 192 192 c 1,30,-1
 256 192 l 1,25,26
256 448 m 1,31,-1
 320 448 l 1,32,-1
 320 512 l 1,33,-1
 256 512 l 1,34,-1
 256 448 l 1,31,-1
128 512 m 1,35,-1
 192 512 l 1,36,-1
 192 576 l 1,37,-1
 128 576 l 1,38,-1
 128 512 l 1,35,-1
192 576 m 1,39,-1
 384 576 l 1,40,-1
 384 640 l 1,41,-1
 192 640 l 1,42,-1
 192 576 l 1,39,-1
EndSplineSet
EndChar

StartChar: uni0041
Encoding: 65 65 65
Width: 512
GlyphClass: 2
Flags: W
LayerCount: 2
Fore
SplineSet
64 448 m 1,0,-1
 64 0 l 1,1,-1
 128 0 l 1,2,3
 128 0 128 0 128 256 c 1,4,-1
 384 256 l 1,5,6
 384 256 384 256 384 0 c 1,7,-1
 448 0 l 1,8,-1
 448 448 l 1,9,-1
 384 448 l 1,10,11
 384 448 384 448 384 320 c 1,12,-1
 128 320 l 1,13,14
 128 320 128 320 128 448 c 1,15,-1
 64 448 l 1,0,-1
128 448 m 1,16,-1
 192 448 l 1,17,18
 192 448 192 448 192 576 c 1,19,-1
 128 576 l 1,20,21
 128 576 128 576 128 448 c 1,16,-1
384 448 m 1,22,23
 384 448 384 448 384 576 c 1,24,-1
 320 576 l 1,25,26
 320 576 320 576 320 448 c 1,27,-1
 384 448 l 1,22,23
192 576 m 1,28,-1
 320 576 l 1,29,-1
 320 640 l 1,30,-1
 192 640 l 1,31,-1
 192 576 l 1,28,-1
EndSplineSet
EndChar

StartChar: uni0042
Encoding: 66 66 66
Width: 512
GlyphClass: 2
Flags: W
LayerCount: 2
Fore
SplineSet
64 640 m 1,0,1
 64 640 64 640 64 0 c 1,2,-1
 384 0 l 1,3,-1
 384 64 l 1,4,-1
 128 64 l 1,5,6
 128 64 128 64 128 320 c 1,7,-1
 384 320 l 1,8,9
 384 320 384 320 384 64 c 1,10,-1
 448 64 l 1,11,12
 448 64 448 64 448 320 c 1,13,-1
 384 320 l 1,14,-1
 384 384 l 1,15,-1
 128 384 l 1,16,-1
 128 576 l 1,17,-1
 384 576 l 1,18,-1
 384 384 l 1,19,-1
 448 384 l 1,20,-1
 448 576 l 1,21,-1
 384 576 l 1,22,-1
 384 640 l 1,23,-1
 64 640 l 1,0,1
EndSplineSet
EndChar

StartChar: uni0043
Encoding: 67 67 67
Width: 512
GlyphClass: 2
Flags: W
LayerCount: 2
Fore
SplineSet
128 64 m 1,0,-1
 128 0 l 1,1,-1
 384 0 l 1,2,-1
 384 64 l 1,3,-1
 128 64 l 1,0,-1
128 64 m 1,4,5
 128 64 128 64 128 576 c 1,6,-1
 64 576 l 1,7,8
 64 576 64 576 64 64 c 1,9,-1
 128 64 l 1,4,5
384 64 m 1,10,-1
 448 64 l 1,11,12
 448 64 448 64 448 192 c 1,13,-1
 384 192 l 1,14,15
 384 192 384 192 384 64 c 1,10,-1
384 576 m 1,16,17
 384 576 384 576 384 448 c 1,18,-1
 448 448 l 1,19,20
 448 448 448 448 448 576 c 1,21,-1
 384 576 l 1,16,17
128 576 m 1,22,-1
 384 576 l 1,23,-1
 384 640 l 1,24,-1
 128 640 l 1,25,-1
 128 576 l 1,22,-1
EndSplineSet
EndChar

StartChar: uni0044
Encoding: 68 68 68
Width: 512
GlyphClass: 2
Flags: W
LayerCount: 2
Fore
SplineSet
64 640 m 1,0,1
 64 640 64 640 64 0 c 1,2,-1
 320 0 l 1,3,-1
 320 64 l 1,4,-1
 128 64 l 1,5,6
 128 64 128 64 128 576 c 1,7,-1
 320 576 l 1,8,-1
 320 512 l 1,9,-1
 384 512 l 1,10,11
 384 512 384 512 384 128 c 1,12,-1
 320 128 l 1,13,-1
 320 64 l 1,14,-1
 384 64 l 1,15,-1
 384 128 l 1,16,-1
 448 128 l 1,17,18
 448 128 448 128 448 512 c 1,19,-1
 384 512 l 1,20,-1
 384 576 l 1,21,-1
 320 576 l 1,22,-1
 320 640 l 1,23,-1
 64 640 l 1,0,1
EndSplineSet
EndChar

StartChar: uni0045
Encoding: 69 69 69
Width: 512
GlyphClass: 2
Flags: W
LayerCount: 2
Fore
SplineSet
448 0 m 1,0,-1
 448 64 l 1,1,-1
 128 64 l 1,2,3
 128 64 128 64 128 320 c 1,4,-1
 384 320 l 1,5,-1
 384 384 l 1,6,-1
 128 384 l 1,7,-1
 128 576 l 1,8,-1
 448 576 l 1,9,-1
 448 640 l 1,10,-1
 64 640 l 1,11,12
 64 640 64 640 64 0 c 1,13,-1
 448 0 l 1,0,-1
EndSplineSet
EndChar

StartChar: uni0046
Encoding: 70 70 70
Width: 512
GlyphClass: 2
Flags: W
LayerCount: 2
Fore
SplineSet
384 320 m 1,0,-1
 384 384 l 1,1,-1
 128 384 l 1,2,-1
 128 576 l 1,3,-1
 448 576 l 1,4,-1
 448 640 l 1,5,-1
 64 640 l 1,6,7
 64 640 64 640 64 0 c 1,8,-1
 128 0 l 1,9,-1
 128 320 l 1,10,-1
 384 320 l 1,0,-1
EndSplineSet
EndChar

StartChar: uni0047
Encoding: 71 71 71
Width: 512
GlyphClass: 2
Flags: W
LayerCount: 2
Fore
SplineSet
128 64 m 1,0,-1
 128 0 l 1,1,-1
 320 0 l 1,2,-1
 320 64 l 1,3,-1
 128 64 l 1,0,-1
128 64 m 1,4,5
 128 64 128 64 128 576 c 1,6,-1
 64 576 l 1,7,8
 64 576 64 576 64 64 c 1,9,-1
 128 64 l 1,4,5
384 64 m 1,10,-1
 384 0 l 1,11,-1
 448 0 l 1,12,-1
 448 320 l 1,13,-1
 256 320 l 1,14,-1
 256 256 l 1,15,-1
 384 256 l 1,16,17
 384 256 384 256 384 128 c 1,18,-1
 320 128 l 1,19,-1
 320 64 l 1,20,-1
 384 64 l 1,10,-1
384 576 m 1,21,22
 384 576 384 576 384 448 c 1,23,-1
 448 448 l 1,24,25
 448 448 448 448 448 576 c 1,26,-1
 384 576 l 1,21,22
128 576 m 1,27,-1
 384 576 l 1,28,-1
 384 640 l 1,29,-1
 128 640 l 1,30,-1
 128 576 l 1,27,-1
EndSplineSet
EndChar

StartChar: uni0048
Encoding: 72 72 72
Width: 512
GlyphClass: 2
Flags: W
LayerCount: 2
Fore
SplineSet
64 640 m 1,0,1
 64 640 64 640 64 0 c 1,2,-1
 128 0 l 1,3,-1
 128 320 l 1,4,-1
 384 320 l 1,5,-1
 384 0 l 1,6,-1
 448 0 l 1,7,8
 448 0 448 0 448 640 c 1,9,-1
 384 640 l 1,10,11
 384 640 384 640 384 384 c 1,12,-1
 128 384 l 1,13,14
 128 384 128 384 128 640 c 1,15,-1
 64 640 l 1,0,1
EndSplineSet
EndChar

StartChar: uni0049
Encoding: 73 73 73
Width: 512
GlyphClass: 2
Flags: W
LayerCount: 2
Fore
SplineSet
448 0 m 1,0,-1
 448 64 l 1,1,-1
 320 64 l 1,2,3
 320 64 320 64 320 576 c 1,4,-1
 448 576 l 1,5,-1
 448 640 l 1,6,-1
 128 640 l 1,7,-1
 128 576 l 1,8,-1
 256 576 l 1,9,10
 256 576 256 576 256 64 c 1,11,-1
 128 64 l 1,12,-1
 128 0 l 1,13,-1
 448 0 l 1,0,-1
EndSplineSet
EndChar

StartChar: uni004A
Encoding: 74 74 74
Width: 512
GlyphClass: 2
Flags: W
LayerCount: 2
Fore
SplineSet
512 576 m 1,0,-1
 512 640 l 1,1,-1
 192 640 l 1,2,-1
 192 576 l 1,3,-1
 320 576 l 1,4,5
 320 576 320 576 320 64 c 1,6,-1
 128 64 l 1,7,-1
 128 0 l 1,8,-1
 320 0 l 1,9,-1
 320 64 l 1,10,-1
 384 64 l 1,11,12
 384 64 384 64 384 576 c 1,13,-1
 512 576 l 1,0,-1
128 64 m 1,14,15
 128 64 128 64 128 192 c 1,16,-1
 64 192 l 1,17,18
 64 192 64 192 64 64 c 1,19,-1
 128 64 l 1,14,15
EndSplineSet
EndChar

StartChar: uni004B
Encoding: 75 75 75
Width: 512
GlyphClass: 2
Flags: W
LayerCount: 2
Fore
SplineSet
448 0 m 1,0,-1
 448 64 l 1,1,-1
 384 64 l 1,2,-1
 384 0 l 1,3,-1
 448 0 l 1,0,-1
448 576 m 1,4,-1
 448 640 l 1,5,-1
 384 640 l 1,6,-1
 384 576 l 1,7,-1
 320 576 l 1,8,-1
 320 512 l 1,9,-1
 256 512 l 1,10,-1
 256 448 l 1,11,-1
 192 448 l 1,12,-1
 192 384 l 1,13,-1
 128 384 l 1,14,15
 128 384 128 384 128 640 c 1,16,-1
 64 640 l 1,17,18
 64 640 64 640 64 0 c 1,19,-1
 128 0 l 1,20,21
 128 0 128 0 128 256 c 1,22,-1
 192 256 l 1,23,-1
 192 192 l 1,24,-1
 256 192 l 1,25,-1
 256 128 l 1,26,-1
 320 128 l 1,27,-1
 320 64 l 1,28,-1
 384 64 l 1,29,-1
 384 128 l 1,30,-1
 320 128 l 1,31,-1
 320 192 l 1,32,-1
 256 192 l 1,33,-1
 256 256 l 1,34,-1
 192 256 l 1,35,36
 192 256 192 256 192 384 c 1,37,-1
 256 384 l 1,38,-1
 256 448 l 1,39,-1
 320 448 l 1,40,-1
 320 512 l 1,41,-1
 384 512 l 1,42,-1
 384 576 l 1,43,-1
 448 576 l 1,4,-1
EndSplineSet
EndChar

StartChar: uni004C
Encoding: 76 76 76
Width: 512
GlyphClass: 2
Flags: W
LayerCount: 2
Fore
SplineSet
448 0 m 1,0,-1
 448 64 l 1,1,-1
 128 64 l 1,2,-1
 128 640 l 1,3,-1
 64 640 l 1,4,5
 64 640 64 640 64 0 c 1,6,-1
 448 0 l 1,0,-1
EndSplineSet
EndChar

StartChar: uni004D
Encoding: 77 77 77
Width: 512
GlyphClass: 2
Flags: W
LayerCount: 2
Fore
SplineSet
64 640 m 1,0,1
 64 640 64 640 64 0 c 1,2,-1
 128 0 l 1,3,4
 128 0 128 0 128 384 c 1,5,-1
 192 384 l 1,6,7
 192 384 192 384 192 256 c 1,8,-1
 320 256 l 1,9,10
 320 256 320 256 320 384 c 1,11,-1
 192 384 l 1,12,13
 192 384 192 384 192 512 c 1,14,-1
 128 512 l 1,15,16
 128 512 128 512 128 640 c 1,17,-1
 64 640 l 1,0,1
384 384 m 1,18,19
 384 384 384 384 384 0 c 1,20,-1
 448 0 l 1,21,22
 448 0 448 0 448 640 c 1,23,-1
 384 640 l 1,24,25
 384 640 384 640 384 512 c 1,26,-1
 320 512 l 1,27,28
 320 512 320 512 320 384 c 1,29,-1
 384 384 l 1,18,19
EndSplineSet
EndChar

StartChar: uni004E
Encoding: 78 78 78
Width: 512
GlyphClass: 2
Flags: W
LayerCount: 2
Fore
SplineSet
64 640 m 1,0,1
 64 640 64 640 64 0 c 1,2,-1
 128 0 l 1,3,-1
 128 448 l 1,4,-1
 192 448 l 1,5,6
 192 448 192 448 192 320 c 1,7,-1
 256 320 l 1,8,9
 256 320 256 320 256 192 c 1,10,-1
 320 192 l 1,11,12
 320 192 320 192 320 64 c 1,13,-1
 384 64 l 1,14,-1
 384 0 l 1,15,-1
 448 0 l 1,16,17
 448 0 448 0 448 640 c 1,18,-1
 384 640 l 1,19,-1
 384 192 l 1,20,-1
 320 192 l 1,21,22
 320 192 320 192 320 320 c 1,23,-1
 256 320 l 1,24,25
 256 320 256 320 256 448 c 1,26,-1
 192 448 l 1,27,28
 192 448 192 448 192 576 c 1,29,-1
 128 576 l 1,30,-1
 128 640 l 1,31,-1
 64 640 l 1,0,1
EndSplineSet
EndChar

StartChar: uni004F
Encoding: 79 79 79
Width: 512
GlyphClass: 2
Flags: W
LayerCount: 2
Fore
SplineSet
128 64 m 1,0,-1
 128 0 l 1,1,-1
 384 0 l 1,2,-1
 384 64 l 1,3,-1
 128 64 l 1,0,-1
128 64 m 1,4,5
 128 64 128 64 128 576 c 1,6,-1
 64 576 l 1,7,8
 64 576 64 576 64 64 c 1,9,-1
 128 64 l 1,4,5
384 64 m 1,10,-1
 448 64 l 1,11,12
 448 64 448 64 448 576 c 1,13,-1
 384 576 l 1,14,15
 384 576 384 576 384 64 c 1,10,-1
128 576 m 1,16,-1
 384 576 l 1,17,-1
 384 640 l 1,18,-1
 128 640 l 1,19,-1
 128 576 l 1,16,-1
EndSplineSet
EndChar

StartChar: uni0050
Encoding: 80 80 80
Width: 512
GlyphClass: 2
Flags: W
LayerCount: 2
Fore
SplineSet
64 640 m 1,0,1
 64 640 64 640 64 0 c 1,2,-1
 128 0 l 1,3,-1
 128 320 l 1,4,-1
 384 320 l 1,5,-1
 384 384 l 1,6,-1
 128 384 l 1,7,-1
 128 576 l 1,8,-1
 384 576 l 1,9,-1
 384 384 l 1,10,-1
 448 384 l 1,11,-1
 448 576 l 1,12,-1
 384 576 l 1,13,-1
 384 640 l 1,14,-1
 64 640 l 1,0,1
EndSplineSet
EndChar

StartChar: uni0051
Encoding: 81 81 81
Width: 512
GlyphClass: 2
Flags: W
LayerCount: 2
Fore
SplineSet
512 -64 m 1,0,-1
 512 0 l 1,1,-1
 384 0 l 1,2,-1
 384 -64 l 1,3,-1
 512 -64 l 1,0,-1
384 0 m 1,4,-1
 384 64 l 1,5,-1
 448 64 l 1,6,7
 448 64 448 64 448 576 c 1,8,-1
 384 576 l 1,9,-1
 384 128 l 1,10,-1
 320 128 l 1,11,-1
 320 64 l 1,12,-1
 192 64 l 1,13,-1
 192 128 l 1,14,-1
 128 128 l 1,15,-1
 128 576 l 1,16,-1
 64 576 l 1,17,18
 64 576 64 576 64 64 c 1,19,-1
 128 64 l 1,20,-1
 128 0 l 1,21,-1
 384 0 l 1,4,-1
192 128 m 1,22,-1
 320 128 l 1,23,-1
 320 192 l 1,24,-1
 192 192 l 1,25,-1
 192 128 l 1,22,-1
128 576 m 1,26,-1
 384 576 l 1,27,-1
 384 640 l 1,28,-1
 128 640 l 1,29,-1
 128 576 l 1,26,-1
EndSplineSet
EndChar

StartChar: uni0052
Encoding: 82 82 82
Width: 512
GlyphClass: 2
Flags: W
LayerCount: 2
Fore
SplineSet
64 640 m 1,0,1
 64 640 64 640 64 0 c 1,2,-1
 128 0 l 1,3,-1
 128 320 l 1,4,-1
 256 320 l 1,5,-1
 256 256 l 1,6,-1
 320 256 l 1,7,8
 320 256 320 256 320 128 c 1,9,-1
 384 128 l 1,10,11
 384 128 384 128 384 0 c 1,12,-1
 448 0 l 1,13,14
 448 0 448 0 448 128 c 1,15,-1
 384 128 l 1,16,17
 384 128 384 128 384 256 c 1,18,-1
 320 256 l 1,19,-1
 320 320 l 1,20,-1
 384 320 l 1,21,-1
 384 384 l 1,22,-1
 128 384 l 1,23,-1
 128 576 l 1,24,-1
 384 576 l 1,25,-1
 384 384 l 1,26,-1
 448 384 l 1,27,-1
 448 576 l 1,28,-1
 384 576 l 1,29,-1
 384 640 l 1,30,-1
 64 640 l 1,0,1
EndSplineSet
EndChar

StartChar: uni0053
Encoding: 83 83 83
Width: 512
GlyphClass: 2
Flags: W
LayerCount: 2
Fore
SplineSet
128 64 m 1,0,-1
 128 0 l 1,1,-1
 384 0 l 1,2,-1
 384 64 l 1,3,-1
 128 64 l 1,0,-1
128 64 m 1,4,5
 128 64 128 64 128 192 c 1,6,-1
 64 192 l 1,7,8
 64 192 64 192 64 64 c 1,9,-1
 128 64 l 1,4,5
384 64 m 1,10,-1
 448 64 l 1,11,-1
 448 256 l 1,12,-1
 384 256 l 1,13,-1
 384 64 l 1,10,-1
384 256 m 1,14,-1
 384 320 l 1,15,-1
 256 320 l 1,16,-1
 256 256 l 1,17,-1
 384 256 l 1,14,-1
256 320 m 1,18,-1
 256 384 l 1,19,-1
 128 384 l 1,20,-1
 128 320 l 1,21,-1
 256 320 l 1,18,-1
128 384 m 1,22,-1
 128 576 l 1,23,-1
 64 576 l 1,24,-1
 64 384 l 1,25,-1
 128 384 l 1,22,-1
384 576 m 1,26,27
 384 576 384 576 384 448 c 1,28,-1
 448 448 l 1,29,30
 448 448 448 448 448 576 c 1,31,-1
 384 576 l 1,26,27
128 576 m 1,32,-1
 384 576 l 1,33,-1
 384 640 l 1,34,-1
 128 640 l 1,35,-1
 128 576 l 1,32,-1
EndSplineSet
EndChar

StartChar: uni0054
Encoding: 84 84 84
Width: 512
GlyphClass: 2
Flags: W
LayerCount: 2
Fore
SplineSet
512 576 m 1,0,-1
 512 640 l 1,1,-1
 64 640 l 1,2,-1
 64 576 l 1,3,-1
 256 576 l 1,4,-1
 256 0 l 1,5,-1
 320 0 l 1,6,-1
 320 576 l 1,7,-1
 512 576 l 1,0,-1
EndSplineSet
EndChar

StartChar: uni0055
Encoding: 85 85 85
Width: 512
GlyphClass: 2
Flags: W
LayerCount: 2
Fore
SplineSet
128 64 m 1,0,-1
 128 0 l 1,1,-1
 384 0 l 1,2,-1
 384 64 l 1,3,-1
 128 64 l 1,0,-1
128 64 m 1,4,-1
 128 640 l 1,5,-1
 64 640 l 1,6,-1
 64 64 l 1,7,-1
 128 64 l 1,4,-1
384 64 m 1,8,-1
 448 64 l 1,9,-1
 448 640 l 1,10,-1
 384 640 l 1,11,-1
 384 64 l 1,8,-1
EndSplineSet
EndChar

StartChar: uni0056
Encoding: 86 86 86
Width: 512
GlyphClass: 2
Flags: W
LayerCount: 2
Fore
SplineSet
256 128 m 1,0,1
 256 128 256 128 256 0 c 1,2,-1
 320 0 l 1,3,4
 320 0 320 0 320 128 c 1,5,-1
 256 128 l 1,0,1
256 128 m 1,6,7
 256 128 256 128 256 256 c 1,8,-1
 192 256 l 1,9,10
 192 256 192 256 192 128 c 1,11,-1
 256 128 l 1,6,7
320 128 m 1,12,-1
 384 128 l 1,13,14
 384 128 384 128 384 256 c 1,15,-1
 320 256 l 1,16,17
 320 256 320 256 320 128 c 1,12,-1
192 256 m 1,18,-1
 192 448 l 1,19,-1
 128 448 l 1,20,-1
 128 256 l 1,21,-1
 192 256 l 1,18,-1
384 256 m 1,22,-1
 448 256 l 1,23,-1
 448 448 l 1,24,-1
 384 448 l 1,25,-1
 384 256 l 1,22,-1
128 448 m 1,26,-1
 128 640 l 1,27,-1
 64 640 l 1,28,-1
 64 448 l 1,29,-1
 128 448 l 1,26,-1
448 448 m 1,30,-1
 512 448 l 1,31,-1
 512 640 l 1,32,-1
 448 640 l 1,33,-1
 448 448 l 1,30,-1
EndSplineSet
EndChar

StartChar: uni0057
Encoding: 87 87 87
Width: 512
GlyphClass: 2
Flags: W
LayerCount: 2
Fore
SplineSet
64 640 m 1,0,1
 64 640 64 640 64 0 c 1,2,-1
 128 0 l 1,3,4
 128 0 128 0 128 128 c 1,5,-1
 192 128 l 1,6,7
 192 128 192 128 192 256 c 1,8,-1
 128 256 l 1,9,10
 128 256 128 256 128 640 c 1,11,-1
 64 640 l 1,0,1
384 128 m 1,12,13
 384 128 384 128 384 0 c 1,14,-1
 448 0 l 1,15,16
 448 0 448 0 448 640 c 1,17,-1
 384 640 l 1,18,19
 384 640 384 640 384 256 c 1,20,-1
 320 256 l 1,21,22
 320 256 320 256 320 128 c 1,23,-1
 384 128 l 1,12,13
192 256 m 1,24,-1
 320 256 l 1,25,26
 320 256 320 256 320 384 c 1,27,-1
 192 384 l 1,28,29
 192 384 192 384 192 256 c 1,24,-1
EndSplineSet
EndChar

StartChar: uni0058
Encoding: 88 88 88
Width: 512
GlyphClass: 2
Flags: W
LayerCount: 2
Fore
SplineSet
64 128 m 1,0,1
 64 128 64 128 64 0 c 1,2,-1
 128 0 l 1,3,4
 128 0 128 0 128 128 c 1,5,-1
 64 128 l 1,0,1
384 128 m 1,6,7
 384 128 384 128 384 0 c 1,8,-1
 448 0 l 1,9,10
 448 0 448 0 448 128 c 1,11,-1
 384 128 l 1,6,7
128 128 m 1,12,-1
 192 128 l 1,13,14
 192 128 192 128 192 256 c 1,15,-1
 128 256 l 1,16,17
 128 256 128 256 128 128 c 1,12,-1
384 128 m 1,18,19
 384 128 384 128 384 256 c 1,20,-1
 320 256 l 1,21,22
 320 256 320 256 320 128 c 1,23,-1
 384 128 l 1,18,19
192 256 m 1,24,-1
 320 256 l 1,25,26
 320 256 320 256 320 384 c 1,27,-1
 192 384 l 1,28,29
 192 384 192 384 192 256 c 1,24,-1
192 384 m 1,30,31
 192 384 192 384 192 512 c 1,32,-1
 128 512 l 1,33,34
 128 512 128 512 128 384 c 1,35,-1
 192 384 l 1,30,31
320 384 m 1,36,-1
 384 384 l 1,37,38
 384 384 384 384 384 512 c 1,39,-1
 320 512 l 1,40,41
 320 512 320 512 320 384 c 1,36,-1
128 512 m 1,42,43
 128 512 128 512 128 640 c 1,44,-1
 64 640 l 1,45,46
 64 640 64 640 64 512 c 1,47,-1
 128 512 l 1,42,43
384 512 m 1,48,-1
 448 512 l 1,49,50
 448 512 448 512 448 640 c 1,51,-1
 384 640 l 1,52,53
 384 640 384 640 384 512 c 1,48,-1
EndSplineSet
EndChar

StartChar: uni0059
Encoding: 89 89 89
Width: 512
GlyphClass: 2
Flags: W
LayerCount: 2
Fore
SplineSet
256 320 m 1,0,-1
 256 0 l 1,1,-1
 320 0 l 1,2,-1
 320 320 l 1,3,-1
 256 320 l 1,0,-1
256 320 m 1,4,-1
 256 384 l 1,5,-1
 192 384 l 1,6,-1
 192 320 l 1,7,-1
 256 320 l 1,4,-1
320 320 m 1,8,-1
 384 320 l 1,9,-1
 384 384 l 1,10,-1
 320 384 l 1,11,-1
 320 320 l 1,8,-1
192 384 m 1,12,13
 192 384 192 384 192 512 c 1,14,-1
 128 512 l 1,15,16
 128 512 128 512 128 384 c 1,17,-1
 192 384 l 1,12,13
384 384 m 1,18,-1
 448 384 l 1,19,20
 448 384 448 384 448 512 c 1,21,-1
 384 512 l 1,22,23
 384 512 384 512 384 384 c 1,18,-1
128 512 m 1,24,25
 128 512 128 512 128 640 c 1,26,-1
 64 640 l 1,27,28
 64 640 64 640 64 512 c 1,29,-1
 128 512 l 1,24,25
448 512 m 1,30,-1
 512 512 l 1,31,32
 512 512 512 512 512 640 c 1,33,-1
 448 640 l 1,34,35
 448 640 448 640 448 512 c 1,30,-1
EndSplineSet
EndChar

StartChar: uni005A
Encoding: 90 90 90
Width: 512
GlyphClass: 2
Flags: W
LayerCount: 2
Fore
SplineSet
448 0 m 1,0,-1
 448 64 l 1,1,-1
 128 64 l 1,2,3
 128 64 128 64 128 192 c 1,4,-1
 64 192 l 1,5,-1
 64 0 l 1,6,-1
 448 0 l 1,0,-1
128 192 m 1,7,-1
 192 192 l 1,8,-1
 192 256 l 1,9,-1
 128 256 l 1,10,-1
 128 192 l 1,7,-1
192 256 m 1,11,-1
 256 256 l 1,12,-1
 256 320 l 1,13,-1
 192 320 l 1,14,-1
 192 256 l 1,11,-1
256 320 m 1,15,-1
 320 320 l 1,16,-1
 320 384 l 1,17,-1
 256 384 l 1,18,-1
 256 320 l 1,15,-1
320 384 m 1,19,-1
 384 384 l 1,20,-1
 384 448 l 1,21,-1
 320 448 l 1,22,-1
 320 384 l 1,19,-1
384 448 m 1,23,-1
 448 448 l 1,24,-1
 448 640 l 1,25,-1
 64 640 l 1,26,-1
 64 576 l 1,27,-1
 384 576 l 1,28,29
 384 576 384 576 384 448 c 1,23,-1
EndSplineSet
EndChar

StartChar: uni005B
Encoding: 91 91 91
Width: 512
GlyphClass: 2
Flags: W
LayerCount: 2
Fore
SplineSet
448 -64 m 1,0,-1
 448 0 l 1,1,-1
 320 0 l 1,2,3
 320 0 320 0 320 640 c 1,4,-1
 448 640 l 1,5,-1
 448 704 l 1,6,-1
 256 704 l 1,7,8
 256 704 256 704 256 -64 c 1,9,-1
 448 -64 l 1,0,-1
EndSplineSet
EndChar

StartChar: uni005C
Encoding: 92 92 92
Width: 512
GlyphClass: 2
Flags: W
LayerCount: 2
Fore
SplineSet
384 128 m 1,0,1
 384 128 384 128 384 0 c 1,2,-1
 448 0 l 1,3,4
 448 0 448 0 448 128 c 1,5,-1
 384 128 l 1,0,1
384 128 m 1,6,-1
 384 192 l 1,7,-1
 320 192 l 1,8,-1
 320 128 l 1,9,-1
 384 128 l 1,6,-1
320 192 m 1,10,11
 320 192 320 192 320 320 c 1,12,-1
 256 320 l 1,13,14
 256 320 256 320 256 192 c 1,15,-1
 320 192 l 1,10,11
256 320 m 1,16,17
 256 320 256 320 256 448 c 1,18,-1
 192 448 l 1,19,20
 192 448 192 448 192 320 c 1,21,-1
 256 320 l 1,16,17
192 448 m 1,22,-1
 192 512 l 1,23,-1
 128 512 l 1,24,-1
 128 448 l 1,25,-1
 192 448 l 1,22,-1
128 512 m 1,26,27
 128 512 128 512 128 640 c 1,28,-1
 64 640 l 1,29,30
 64 640 64 640 64 512 c 1,31,-1
 128 512 l 1,26,27
EndSplineSet
EndChar

StartChar: uni005D
Encoding: 93 93 93
Width: 512
GlyphClass: 2
Flags: W
LayerCount: 2
Fore
SplineSet
192 0 m 1,0,-1
 64 0 l 1,1,-1
 64 -64 l 1,2,-1
 256 -64 l 1,3,4
 256 -64 256 -64 256 704 c 1,5,-1
 64 704 l 1,6,-1
 64 640 l 1,7,-1
 192 640 l 1,8,9
 192 640 192 640 192 0 c 1,0,-1
EndSplineSet
EndChar

StartChar: uni005E
Encoding: 94 94 94
Width: 512
GlyphClass: 2
Flags: W
LayerCount: 2
Fore
SplineSet
448 576 m 1,0,-1
 448 640 l 1,1,-1
 384 640 l 1,2,-1
 384 576 l 1,3,-1
 448 576 l 1,0,-1
128 640 m 1,4,-1
 64 640 l 1,5,-1
 64 576 l 1,6,-1
 128 576 l 1,7,-1
 128 640 l 1,4,-1
128 640 m 1,8,-1
 192 640 l 1,9,-1
 192 704 l 1,10,-1
 128 704 l 1,11,-1
 128 640 l 1,8,-1
384 640 m 1,12,-1
 384 704 l 1,13,-1
 320 704 l 1,14,-1
 320 640 l 1,15,-1
 384 640 l 1,12,-1
192 704 m 1,16,-1
 320 704 l 1,17,-1
 320 768 l 1,18,-1
 192 768 l 1,19,-1
 192 704 l 1,16,-1
EndSplineSet
EndChar

StartChar: uni005F
Encoding: 95 95 95
Width: 512
GlyphClass: 2
Flags: W
LayerCount: 2
Fore
SplineSet
512 -64 m 1,0,-1
 512 0 l 1,1,-1
 64 0 l 1,2,-1
 64 -64 l 1,3,-1
 512 -64 l 1,0,-1
EndSplineSet
EndChar

StartChar: uni0060
Encoding: 96 96 96
Width: 512
GlyphClass: 2
Flags: W
LayerCount: 2
Fore
SplineSet
320 640 m 1,0,-1
 320 704 l 1,1,-1
 256 704 l 1,2,-1
 256 640 l 1,3,-1
 320 640 l 1,0,-1
256 704 m 1,4,-1
 256 768 l 1,5,-1
 192 768 l 1,6,-1
 192 704 l 1,7,-1
 256 704 l 1,4,-1
192 768 m 1,8,-1
 192 832 l 1,9,-1
 128 832 l 1,10,-1
 128 768 l 1,11,-1
 192 768 l 1,8,-1
EndSplineSet
EndChar

StartChar: uni0061
Encoding: 97 97 97
Width: 512
GlyphClass: 2
Flags: W
LayerCount: 2
Fore
SplineSet
128 64 m 1,0,-1
 128 0 l 1,1,-1
 320 0 l 1,2,-1
 320 64 l 1,3,-1
 128 64 l 1,0,-1
128 64 m 1,4,-1
 128 256 l 1,5,-1
 64 256 l 1,6,-1
 64 64 l 1,7,-1
 128 64 l 1,4,-1
384 64 m 1,8,-1
 384 0 l 1,9,-1
 448 0 l 1,10,-1
 448 448 l 1,11,-1
 384 448 l 1,12,13
 384 448 384 448 384 320 c 1,14,-1
 128 320 l 1,15,-1
 128 256 l 1,16,-1
 384 256 l 1,17,18
 384 256 384 256 384 128 c 1,19,-1
 320 128 l 1,20,-1
 320 64 l 1,21,-1
 384 64 l 1,8,-1
128 448 m 1,22,-1
 64 448 l 1,23,-1
 64 384 l 1,24,-1
 128 384 l 1,25,-1
 128 448 l 1,22,-1
128 448 m 1,26,-1
 384 448 l 1,27,-1
 384 512 l 1,28,-1
 128 512 l 1,29,-1
 128 448 l 1,26,-1
EndSplineSet
EndChar

StartChar: uni0062
Encoding: 98 98 98
Width: 512
GlyphClass: 2
Flags: W
LayerCount: 2
Fore
SplineSet
128 64 m 1,0,-1
 192 64 l 1,1,-1
 192 0 l 1,2,-1
 384 0 l 1,3,-1
 384 64 l 1,4,-1
 192 64 l 1,5,-1
 192 128 l 1,6,-1
 128 128 l 1,7,8
 128 128 128 128 128 384 c 1,9,-1
 192 384 l 1,10,-1
 192 448 l 1,11,-1
 128 448 l 1,12,13
 128 448 128 448 128 704 c 1,14,-1
 64 704 l 1,15,-1
 64 0 l 1,16,-1
 128 0 l 1,17,-1
 128 64 l 1,0,-1
384 64 m 1,18,-1
 448 64 l 1,19,20
 448 64 448 64 448 448 c 1,21,-1
 384 448 l 1,22,23
 384 448 384 448 384 64 c 1,18,-1
192 448 m 1,24,-1
 384 448 l 1,25,-1
 384 512 l 1,26,-1
 192 512 l 1,27,-1
 192 448 l 1,24,-1
EndSplineSet
EndChar

StartChar: uni0063
Encoding: 99 99 99
Width: 512
GlyphClass: 2
Flags: W
LayerCount: 2
Fore
SplineSet
448 64 m 1,0,-1
 448 128 l 1,1,-1
 384 128 l 1,2,-1
 384 64 l 1,3,-1
 128 64 l 1,4,-1
 128 0 l 1,5,-1
 384 0 l 1,6,-1
 384 64 l 1,7,-1
 448 64 l 1,0,-1
448 384 m 1,8,-1
 448 448 l 1,9,-1
 384 448 l 1,10,-1
 384 384 l 1,11,-1
 448 384 l 1,8,-1
128 64 m 1,12,13
 128 64 128 64 128 448 c 1,14,-1
 64 448 l 1,15,16
 64 448 64 448 64 64 c 1,17,-1
 128 64 l 1,12,13
128 448 m 1,18,-1
 384 448 l 1,19,-1
 384 512 l 1,20,-1
 128 512 l 1,21,-1
 128 448 l 1,18,-1
EndSplineSet
EndChar

StartChar: uni0064
Encoding: 100 100 100
Width: 512
GlyphClass: 2
Flags: W
LayerCount: 2
Fore
SplineSet
128 64 m 1,0,-1
 128 0 l 1,1,-1
 320 0 l 1,2,-1
 320 64 l 1,3,-1
 128 64 l 1,0,-1
128 64 m 1,4,5
 128 64 128 64 128 448 c 1,6,-1
 64 448 l 1,7,8
 64 448 64 448 64 64 c 1,9,-1
 128 64 l 1,4,5
384 64 m 1,10,-1
 384 0 l 1,11,-1
 448 0 l 1,12,-1
 448 704 l 1,13,-1
 384 704 l 1,14,15
 384 704 384 704 384 448 c 1,16,-1
 320 448 l 1,17,-1
 320 384 l 1,18,-1
 384 384 l 1,19,20
 384 384 384 384 384 128 c 1,21,-1
 320 128 l 1,22,-1
 320 64 l 1,23,-1
 384 64 l 1,10,-1
128 448 m 1,24,-1
 320 448 l 1,25,-1
 320 512 l 1,26,-1
 128 512 l 1,27,-1
 128 448 l 1,24,-1
EndSplineSet
EndChar

StartChar: uni0065
Encoding: 101 101 101
Width: 512
GlyphClass: 2
Flags: W
LayerCount: 2
Fore
SplineSet
448 64 m 1,0,-1
 448 128 l 1,1,-1
 384 128 l 1,2,-1
 384 64 l 1,3,-1
 128 64 l 1,4,-1
 128 0 l 1,5,-1
 384 0 l 1,6,-1
 384 64 l 1,7,-1
 448 64 l 1,0,-1
128 64 m 1,8,-1
 128 256 l 1,9,-1
 448 256 l 1,10,-1
 448 448 l 1,11,-1
 384 448 l 1,12,13
 384 448 384 448 384 320 c 1,14,-1
 128 320 l 1,15,16
 128 320 128 320 128 448 c 1,17,-1
 64 448 l 1,18,19
 64 448 64 448 64 64 c 1,20,-1
 128 64 l 1,8,-1
128 448 m 1,21,-1
 384 448 l 1,22,-1
 384 512 l 1,23,-1
 128 512 l 1,24,-1
 128 448 l 1,21,-1
EndSplineSet
EndChar

StartChar: uni0066
Encoding: 102 102 102
Width: 512
GlyphClass: 2
Flags: W
LayerCount: 2
Fore
SplineSet
384 384 m 1,0,-1
 384 448 l 1,1,-1
 256 448 l 1,2,-1
 256 640 l 1,3,-1
 192 640 l 1,4,-1
 192 448 l 1,5,-1
 64 448 l 1,6,-1
 64 384 l 1,7,-1
 192 384 l 1,8,9
 192 384 192 384 192 0 c 1,10,-1
 256 0 l 1,11,12
 256 0 256 0 256 384 c 1,13,-1
 384 384 l 1,0,-1
384 640 m 1,14,-1
 384 704 l 1,15,-1
 256 704 l 1,16,-1
 256 640 l 1,17,-1
 384 640 l 1,14,-1
EndSplineSet
EndChar

StartChar: uni0067
Encoding: 103 103 103
Width: 512
GlyphClass: 2
Flags: W
LayerCount: 2
Fore
SplineSet
128 -64 m 1,0,-1
 128 -128 l 1,1,-1
 384 -128 l 1,2,-1
 384 -64 l 1,3,-1
 128 -64 l 1,0,-1
128 -64 m 1,4,5
 128 -64 128 -64 128 64 c 1,6,-1
 64 64 l 1,7,8
 64 64 64 64 64 -64 c 1,9,-1
 128 -64 l 1,4,5
384 -64 m 1,10,-1
 448 -64 l 1,11,12
 448 -64 448 -64 448 64 c 1,13,-1
 384 64 l 1,14,15
 384 64 384 64 384 -64 c 1,10,-1
128 64 m 1,16,-1
 384 64 l 1,17,-1
 384 128 l 1,18,-1
 192 128 l 1,19,-1
 192 192 l 1,20,-1
 320 192 l 1,21,-1
 320 256 l 1,22,-1
 128 256 l 1,23,-1
 128 64 l 1,16,-1
128 256 m 1,24,-1
 128 448 l 1,25,-1
 64 448 l 1,26,-1
 64 256 l 1,27,-1
 128 256 l 1,24,-1
320 256 m 1,28,-1
 384 256 l 1,29,-1
 384 448 l 1,30,-1
 320 448 l 1,31,-1
 320 256 l 1,28,-1
128 448 m 1,32,-1
 320 448 l 1,33,-1
 320 512 l 1,34,-1
 128 512 l 1,35,-1
 128 448 l 1,32,-1
384 448 m 1,36,-1
 448 448 l 1,37,38
 448 448 448 448 448 576 c 1,39,-1
 384 576 l 1,40,41
 384 576 384 576 384 448 c 1,36,-1
EndSplineSet
EndChar

StartChar: uni0068
Encoding: 104 104 104
Width: 512
GlyphClass: 2
Flags: W
LayerCount: 2
Fore
SplineSet
64 704 m 1,0,-1
 64 0 l 1,1,-1
 128 0 l 1,2,3
 128 0 128 0 128 384 c 1,4,-1
 192 384 l 1,5,-1
 192 448 l 1,6,-1
 128 448 l 1,7,8
 128 448 128 448 128 704 c 1,9,-1
 64 704 l 1,0,-1
384 448 m 1,10,-1
 384 0 l 1,11,-1
 448 0 l 1,12,-1
 448 448 l 1,13,-1
 384 448 l 1,10,-1
192 448 m 1,14,-1
 384 448 l 1,15,-1
 384 512 l 1,16,-1
 192 512 l 1,17,-1
 192 448 l 1,14,-1
EndSplineSet
EndChar

StartChar: uni0069
Encoding: 105 105 105
Width: 512
GlyphClass: 2
Flags: W
LayerCount: 2
Fore
SplineSet
448 0 m 1,0,-1
 448 64 l 1,1,-1
 320 64 l 1,2,-1
 320 512 l 1,3,-1
 192 512 l 1,4,-1
 192 448 l 1,5,-1
 256 448 l 1,6,7
 256 448 256 448 256 64 c 1,8,-1
 128 64 l 1,9,-1
 128 0 l 1,10,-1
 448 0 l 1,0,-1
256 704 m 1,11,12
 256 704 256 704 256 576 c 1,13,-1
 320 576 l 1,14,15
 320 576 320 576 320 704 c 1,16,-1
 256 704 l 1,11,12
EndSplineSet
EndChar

StartChar: uni006A
Encoding: 106 106 106
Width: 512
GlyphClass: 2
Flags: W
LayerCount: 2
Fore
SplineSet
128 -64 m 1,0,-1
 128 -128 l 1,1,-1
 256 -128 l 1,2,-1
 256 -64 l 1,3,-1
 128 -64 l 1,0,-1
128 -64 m 1,4,-1
 128 0 l 1,5,-1
 64 0 l 1,6,-1
 64 -64 l 1,7,-1
 128 -64 l 1,4,-1
256 -64 m 1,8,-1
 320 -64 l 1,9,-1
 320 0 l 1,10,-1
 256 0 l 1,11,-1
 256 -64 l 1,8,-1
320 0 m 1,12,-1
 384 0 l 1,13,14
 384 0 384 0 384 512 c 1,15,-1
 256 512 l 1,16,-1
 256 448 l 1,17,-1
 320 448 l 1,18,-1
 320 0 l 1,12,-1
320 704 m 1,19,20
 320 704 320 704 320 576 c 1,21,-1
 384 576 l 1,22,23
 384 576 384 576 384 704 c 1,24,-1
 320 704 l 1,19,20
EndSplineSet
EndChar

StartChar: uni006B
Encoding: 107 107 107
Width: 512
GlyphClass: 2
Flags: W
LayerCount: 2
Fore
SplineSet
448 0 m 1,0,-1
 448 64 l 1,1,-1
 384 64 l 1,2,-1
 384 0 l 1,3,-1
 448 0 l 1,0,-1
384 448 m 1,4,-1
 384 512 l 1,5,-1
 320 512 l 1,6,-1
 320 448 l 1,7,-1
 256 448 l 1,8,-1
 256 384 l 1,9,-1
 192 384 l 1,10,-1
 192 320 l 1,11,-1
 128 320 l 1,12,13
 128 320 128 320 128 704 c 1,14,-1
 64 704 l 1,15,-1
 64 0 l 1,16,-1
 128 0 l 1,17,18
 128 0 128 0 128 256 c 1,19,-1
 192 256 l 1,20,-1
 192 192 l 1,21,-1
 256 192 l 1,22,-1
 256 128 l 1,23,-1
 320 128 l 1,24,-1
 320 64 l 1,25,-1
 384 64 l 1,26,-1
 384 128 l 1,27,-1
 320 128 l 1,28,-1
 320 192 l 1,29,-1
 256 192 l 1,30,-1
 256 256 l 1,31,-1
 192 256 l 1,32,-1
 192 320 l 1,33,-1
 256 320 l 1,34,-1
 256 384 l 1,35,-1
 320 384 l 1,36,-1
 320 448 l 1,37,-1
 384 448 l 1,4,-1
EndSplineSet
EndChar

StartChar: uni006C
Encoding: 108 108 108
Width: 512
GlyphClass: 2
Flags: W
LayerCount: 2
Fore
SplineSet
448 0 m 1,0,-1
 448 64 l 1,1,-1
 320 64 l 1,2,3
 320 64 320 64 320 704 c 1,4,-1
 192 704 l 1,5,-1
 192 640 l 1,6,-1
 256 640 l 1,7,-1
 256 64 l 1,8,-1
 128 64 l 1,9,-1
 128 0 l 1,10,-1
 448 0 l 1,0,-1
EndSplineSet
EndChar

StartChar: uni006D
Encoding: 109 109 109
Width: 512
GlyphClass: 2
Flags: W
LayerCount: 2
Fore
SplineSet
64 512 m 1,0,1
 64 512 64 512 64 0 c 1,2,-1
 128 0 l 1,3,-1
 128 448 l 1,4,-1
 256 448 l 1,5,-1
 256 0 l 1,6,-1
 320 0 l 1,7,-1
 320 448 l 1,8,-1
 256 448 l 1,9,-1
 256 512 l 1,10,-1
 64 512 l 1,0,1
448 448 m 1,11,-1
 448 0 l 1,12,-1
 512 0 l 1,13,-1
 512 448 l 1,14,-1
 448 448 l 1,11,-1
320 448 m 1,15,-1
 448 448 l 1,16,-1
 448 512 l 1,17,-1
 320 512 l 1,18,-1
 320 448 l 1,15,-1
EndSplineSet
EndChar

StartChar: uni006E
Encoding: 110 110 110
Width: 512
GlyphClass: 2
Flags: W
LayerCount: 2
Fore
SplineSet
64 512 m 1,0,1
 64 512 64 512 64 0 c 1,2,-1
 128 0 l 1,3,4
 128 0 128 0 128 384 c 1,5,-1
 192 384 l 1,6,-1
 192 448 l 1,7,-1
 128 448 l 1,8,-1
 128 512 l 1,9,-1
 64 512 l 1,0,1
384 448 m 1,10,-1
 384 0 l 1,11,-1
 448 0 l 1,12,-1
 448 448 l 1,13,-1
 384 448 l 1,10,-1
192 448 m 1,14,-1
 384 448 l 1,15,-1
 384 512 l 1,16,-1
 192 512 l 1,17,-1
 192 448 l 1,14,-1
EndSplineSet
EndChar

StartChar: uni006F
Encoding: 111 111 111
Width: 512
GlyphClass: 2
Flags: W
LayerCount: 2
Fore
SplineSet
128 64 m 1,0,-1
 128 0 l 1,1,-1
 384 0 l 1,2,-1
 384 64 l 1,3,-1
 128 64 l 1,0,-1
128 64 m 1,4,5
 128 64 128 64 128 448 c 1,6,-1
 64 448 l 1,7,8
 64 448 64 448 64 64 c 1,9,-1
 128 64 l 1,4,5
384 64 m 1,10,-1
 448 64 l 1,11,12
 448 64 448 64 448 448 c 1,13,-1
 384 448 l 1,14,15
 384 448 384 448 384 64 c 1,10,-1
128 448 m 1,16,-1
 384 448 l 1,17,-1
 384 512 l 1,18,-1
 128 512 l 1,19,-1
 128 448 l 1,16,-1
EndSplineSet
EndChar

StartChar: uni0070
Encoding: 112 112 112
Width: 512
GlyphClass: 2
Flags: W
LayerCount: 2
Fore
SplineSet
64 512 m 1,0,1
 64 512 64 512 64 -128 c 1,2,-1
 128 -128 l 1,3,-1
 128 64 l 1,4,-1
 192 64 l 1,5,-1
 192 0 l 1,6,-1
 384 0 l 1,7,-1
 384 64 l 1,8,-1
 192 64 l 1,9,-1
 192 128 l 1,10,-1
 128 128 l 1,11,12
 128 128 128 128 128 384 c 1,13,-1
 192 384 l 1,14,-1
 192 448 l 1,15,-1
 128 448 l 1,16,-1
 128 512 l 1,17,-1
 64 512 l 1,0,1
384 64 m 1,18,-1
 448 64 l 1,19,20
 448 64 448 64 448 448 c 1,21,-1
 384 448 l 1,22,23
 384 448 384 448 384 64 c 1,18,-1
192 448 m 1,24,-1
 384 448 l 1,25,-1
 384 512 l 1,26,-1
 192 512 l 1,27,-1
 192 448 l 1,24,-1
EndSplineSet
EndChar

StartChar: uni0071
Encoding: 113 113 113
Width: 512
GlyphClass: 2
Flags: W
LayerCount: 2
Fore
SplineSet
384 64 m 1,0,-1
 384 -128 l 1,1,-1
 448 -128 l 1,2,3
 448 -128 448 -128 448 512 c 1,4,-1
 384 512 l 1,5,-1
 384 448 l 1,6,-1
 320 448 l 1,7,-1
 320 384 l 1,8,-1
 384 384 l 1,9,10
 384 384 384 384 384 128 c 1,11,-1
 320 128 l 1,12,-1
 320 64 l 1,13,-1
 128 64 l 1,14,-1
 128 0 l 1,15,-1
 320 0 l 1,16,-1
 320 64 l 1,17,-1
 384 64 l 1,0,-1
128 64 m 1,18,19
 128 64 128 64 128 448 c 1,20,-1
 64 448 l 1,21,22
 64 448 64 448 64 64 c 1,23,-1
 128 64 l 1,18,19
128 448 m 1,24,-1
 320 448 l 1,25,-1
 320 512 l 1,26,-1
 128 512 l 1,27,-1
 128 448 l 1,24,-1
EndSplineSet
EndChar

StartChar: uni0072
Encoding: 114 114 114
Width: 512
GlyphClass: 2
Flags: W
LayerCount: 2
Fore
SplineSet
64 512 m 1,0,1
 64 512 64 512 64 0 c 1,2,-1
 128 0 l 1,3,4
 128 0 128 0 128 384 c 1,5,-1
 192 384 l 1,6,-1
 192 448 l 1,7,-1
 128 448 l 1,8,-1
 128 512 l 1,9,-1
 64 512 l 1,0,1
384 448 m 1,10,11
 384 448 384 448 384 320 c 1,12,-1
 448 320 l 1,13,14
 448 320 448 320 448 448 c 1,15,-1
 384 448 l 1,10,11
192 448 m 1,16,-1
 384 448 l 1,17,-1
 384 512 l 1,18,-1
 192 512 l 1,19,-1
 192 448 l 1,16,-1
EndSplineSet
EndChar

StartChar: uni0073
Encoding: 115 115 115
Width: 512
GlyphClass: 2
Flags: W
LayerCount: 2
Fore
SplineSet
448 384 m 1,0,-1
 448 448 l 1,1,-1
 384 448 l 1,2,-1
 384 384 l 1,3,-1
 448 384 l 1,0,-1
128 64 m 1,4,-1
 128 0 l 1,5,-1
 384 0 l 1,6,-1
 384 64 l 1,7,-1
 128 64 l 1,4,-1
128 64 m 1,8,-1
 128 128 l 1,9,-1
 64 128 l 1,10,-1
 64 64 l 1,11,-1
 128 64 l 1,8,-1
384 64 m 1,12,-1
 448 64 l 1,13,14
 448 64 448 64 448 192 c 1,15,-1
 384 192 l 1,16,17
 384 192 384 192 384 64 c 1,12,-1
384 192 m 1,18,-1
 384 256 l 1,19,-1
 256 256 l 1,20,-1
 256 192 l 1,21,-1
 384 192 l 1,18,-1
256 256 m 1,22,-1
 256 320 l 1,23,-1
 128 320 l 1,24,-1
 128 256 l 1,25,-1
 256 256 l 1,22,-1
128 320 m 1,26,27
 128 320 128 320 128 448 c 1,28,-1
 64 448 l 1,29,30
 64 448 64 448 64 320 c 1,31,-1
 128 320 l 1,26,27
128 448 m 1,32,-1
 384 448 l 1,33,-1
 384 512 l 1,34,-1
 128 512 l 1,35,-1
 128 448 l 1,32,-1
EndSplineSet
EndChar

StartChar: uni0074
Encoding: 116 116 116
Width: 512
GlyphClass: 2
Flags: W
LayerCount: 2
Fore
SplineSet
384 0 m 1,0,-1
 384 64 l 1,1,-1
 256 64 l 1,2,-1
 256 0 l 1,3,-1
 384 0 l 1,0,-1
384 384 m 1,4,-1
 384 448 l 1,5,-1
 256 448 l 1,6,-1
 256 640 l 1,7,-1
 192 640 l 1,8,-1
 192 448 l 1,9,-1
 64 448 l 1,10,-1
 64 384 l 1,11,-1
 192 384 l 1,12,-1
 192 64 l 1,13,-1
 256 64 l 1,14,-1
 256 384 l 1,15,-1
 384 384 l 1,4,-1
EndSplineSet
EndChar

StartChar: uni0075
Encoding: 117 117 117
Width: 512
GlyphClass: 2
Flags: W
LayerCount: 2
Fore
SplineSet
128 64 m 1,0,-1
 128 0 l 1,1,-1
 320 0 l 1,2,-1
 320 64 l 1,3,-1
 128 64 l 1,0,-1
128 64 m 1,4,-1
 128 512 l 1,5,-1
 64 512 l 1,6,-1
 64 64 l 1,7,-1
 128 64 l 1,4,-1
384 64 m 1,8,-1
 384 0 l 1,9,-1
 448 0 l 1,10,11
 448 0 448 0 448 512 c 1,12,-1
 384 512 l 1,13,14
 384 512 384 512 384 128 c 1,15,-1
 320 128 l 1,16,-1
 320 64 l 1,17,-1
 384 64 l 1,8,-1
EndSplineSet
EndChar

StartChar: uni0076
Encoding: 118 118 118
Width: 512
GlyphClass: 2
Flags: W
LayerCount: 2
Fore
SplineSet
192 128 m 1,0,1
 192 128 192 128 192 0 c 1,2,-1
 320 0 l 1,3,4
 320 0 320 0 320 128 c 1,5,-1
 192 128 l 1,0,1
192 128 m 1,6,-1
 192 320 l 1,7,-1
 128 320 l 1,8,-1
 128 128 l 1,9,-1
 192 128 l 1,6,-1
320 128 m 1,10,-1
 384 128 l 1,11,-1
 384 320 l 1,12,-1
 320 320 l 1,13,-1
 320 128 l 1,10,-1
128 320 m 1,14,-1
 128 512 l 1,15,-1
 64 512 l 1,16,-1
 64 320 l 1,17,-1
 128 320 l 1,14,-1
384 320 m 1,18,-1
 448 320 l 1,19,-1
 448 512 l 1,20,-1
 384 512 l 1,21,-1
 384 320 l 1,18,-1
EndSplineSet
EndChar

StartChar: uni0077
Encoding: 119 119 119
Width: 512
GlyphClass: 2
Flags: W
LayerCount: 2
Fore
SplineSet
128 64 m 1,0,-1
 128 0 l 1,1,-1
 256 0 l 1,2,-1
 256 64 l 1,3,-1
 128 64 l 1,0,-1
128 64 m 1,4,-1
 128 512 l 1,5,-1
 64 512 l 1,6,-1
 64 64 l 1,7,-1
 128 64 l 1,4,-1
256 64 m 1,8,-1
 320 64 l 1,9,-1
 320 0 l 1,10,-1
 448 0 l 1,11,-1
 448 64 l 1,12,-1
 320 64 l 1,13,14
 320 64 320 64 320 448 c 1,15,-1
 256 448 l 1,16,17
 256 448 256 448 256 64 c 1,8,-1
448 64 m 1,18,-1
 512 64 l 1,19,-1
 512 512 l 1,20,-1
 448 512 l 1,21,-1
 448 64 l 1,18,-1
EndSplineSet
EndChar

StartChar: uni0078
Encoding: 120 120 120
Width: 512
GlyphClass: 2
Flags: W
LayerCount: 2
Fore
SplineSet
64 128 m 1,0,1
 64 128 64 128 64 0 c 1,2,-1
 128 0 l 1,3,4
 128 0 128 0 128 128 c 1,5,-1
 64 128 l 1,0,1
384 128 m 1,6,7
 384 128 384 128 384 0 c 1,8,-1
 448 0 l 1,9,10
 448 0 448 0 448 128 c 1,11,-1
 384 128 l 1,6,7
128 128 m 1,12,-1
 192 128 l 1,13,-1
 192 192 l 1,14,-1
 128 192 l 1,15,-1
 128 128 l 1,12,-1
384 128 m 1,16,-1
 384 192 l 1,17,-1
 320 192 l 1,18,-1
 320 128 l 1,19,-1
 384 128 l 1,16,-1
192 192 m 1,20,-1
 320 192 l 1,21,22
 320 192 320 192 320 320 c 1,23,-1
 192 320 l 1,24,25
 192 320 192 320 192 192 c 1,20,-1
192 320 m 1,26,-1
 192 384 l 1,27,-1
 128 384 l 1,28,-1
 128 320 l 1,29,-1
 192 320 l 1,26,-1
320 320 m 1,30,-1
 384 320 l 1,31,-1
 384 384 l 1,32,-1
 320 384 l 1,33,-1
 320 320 l 1,30,-1
128 384 m 1,34,35
 128 384 128 384 128 512 c 1,36,-1
 64 512 l 1,37,38
 64 512 64 512 64 384 c 1,39,-1
 128 384 l 1,34,35
384 384 m 1,40,-1
 448 384 l 1,41,42
 448 384 448 384 448 512 c 1,43,-1
 384 512 l 1,44,45
 384 512 384 512 384 384 c 1,40,-1
EndSplineSet
EndChar

StartChar: uni0079
Encoding: 121 121 121
Width: 512
GlyphClass: 2
Flags: W
LayerCount: 2
Fore
SplineSet
384 -64 m 1,0,-1
 128 -64 l 1,1,-1
 128 -128 l 1,2,-1
 384 -128 l 1,3,-1
 384 -64 l 1,0,-1
384 -64 m 1,4,-1
 448 -64 l 1,5,-1
 448 512 l 1,6,-1
 384 512 l 1,7,-1
 384 192 l 1,8,-1
 320 192 l 1,9,-1
 320 128 l 1,10,-1
 192 128 l 1,11,-1
 192 64 l 1,12,-1
 320 64 l 1,13,-1
 320 128 l 1,14,-1
 384 128 l 1,15,-1
 384 -64 l 1,4,-1
192 128 m 1,16,-1
 192 192 l 1,17,-1
 128 192 l 1,18,-1
 128 128 l 1,19,-1
 192 128 l 1,16,-1
128 192 m 1,20,-1
 128 512 l 1,21,-1
 64 512 l 1,22,-1
 64 192 l 1,23,-1
 128 192 l 1,20,-1
EndSplineSet
EndChar

StartChar: uni007A
Encoding: 122 122 122
Width: 512
GlyphClass: 2
Flags: W
LayerCount: 2
Fore
SplineSet
448 0 m 1,0,-1
 448 64 l 1,1,-1
 128 64 l 1,2,-1
 128 128 l 1,3,-1
 64 128 l 1,4,5
 64 128 64 128 64 0 c 1,6,-1
 448 0 l 1,0,-1
128 128 m 1,7,-1
 192 128 l 1,8,-1
 192 192 l 1,9,-1
 128 192 l 1,10,-1
 128 128 l 1,7,-1
192 192 m 1,11,-1
 256 192 l 1,12,-1
 256 256 l 1,13,-1
 192 256 l 1,14,-1
 192 192 l 1,11,-1
256 256 m 1,15,-1
 320 256 l 1,16,-1
 320 320 l 1,17,-1
 256 320 l 1,18,-1
 256 256 l 1,15,-1
320 320 m 1,19,-1
 384 320 l 1,20,-1
 384 384 l 1,21,-1
 320 384 l 1,22,-1
 320 320 l 1,19,-1
384 384 m 1,23,-1
 448 384 l 1,24,25
 448 384 448 384 448 512 c 1,26,-1
 64 512 l 1,27,-1
 64 448 l 1,28,-1
 384 448 l 1,29,-1
 384 384 l 1,23,-1
EndSplineSet
EndChar

StartChar: uni007B
Encoding: 123 123 123
Width: 512
GlyphClass: 2
Flags: W
LayerCount: 2
Fore
SplineSet
384 -64 m 1,0,-1
 384 0 l 1,1,-1
 256 0 l 1,2,-1
 256 -64 l 1,3,-1
 384 -64 l 1,0,-1
384 640 m 1,4,-1
 384 704 l 1,5,-1
 256 704 l 1,6,-1
 256 640 l 1,7,-1
 192 640 l 1,8,9
 192 640 192 640 192 512 c 1,10,-1
 256 512 l 1,11,12
 256 512 256 512 256 384 c 1,13,-1
 192 384 l 1,14,15
 192 384 192 384 192 256 c 1,16,-1
 256 256 l 1,17,18
 256 256 256 256 256 128 c 1,19,-1
 192 128 l 1,20,21
 192 128 192 128 192 0 c 1,22,-1
 256 0 l 1,23,24
 256 0 256 0 256 128 c 1,25,-1
 320 128 l 1,26,27
 320 128 320 128 320 256 c 1,28,-1
 256 256 l 1,29,30
 256 256 256 256 256 384 c 1,31,-1
 320 384 l 1,32,33
 320 384 320 384 320 512 c 1,34,-1
 256 512 l 1,35,36
 256 512 256 512 256 640 c 1,37,-1
 384 640 l 1,4,-1
EndSplineSet
EndChar

StartChar: uni007C
Encoding: 124 124 124
Width: 512
GlyphClass: 2
Flags: W
LayerCount: 2
Fore
SplineSet
256 768 m 1,0,1
 256 768 256 768 256 -128 c 1,2,-1
 320 -128 l 1,3,4
 320 -128 320 -128 320 768 c 1,5,-1
 256 768 l 1,0,1
EndSplineSet
EndChar

StartChar: uni007D
Encoding: 125 125 125
Width: 512
GlyphClass: 2
Flags: W
LayerCount: 2
Fore
SplineSet
256 0 m 1,0,-1
 128 0 l 1,1,-1
 128 -64 l 1,2,-1
 256 -64 l 1,3,-1
 256 0 l 1,0,-1
256 0 m 1,4,-1
 320 0 l 1,5,6
 320 0 320 0 320 128 c 1,7,-1
 256 128 l 1,8,9
 256 128 256 128 256 0 c 1,4,-1
256 128 m 1,10,11
 256 128 256 128 256 256 c 1,12,-1
 192 256 l 1,13,14
 192 256 192 256 192 128 c 1,15,-1
 256 128 l 1,10,11
256 256 m 1,16,-1
 320 256 l 1,17,18
 320 256 320 256 320 384 c 1,19,-1
 256 384 l 1,20,21
 256 384 256 384 256 256 c 1,16,-1
256 384 m 1,22,23
 256 384 256 384 256 512 c 1,24,-1
 192 512 l 1,25,26
 192 512 192 512 192 384 c 1,27,-1
 256 384 l 1,22,23
256 512 m 1,28,-1
 320 512 l 1,29,30
 320 512 320 512 320 640 c 1,31,-1
 256 640 l 1,32,33
 256 640 256 640 256 512 c 1,28,-1
256 640 m 1,34,-1
 256 704 l 1,35,-1
 128 704 l 1,36,-1
 128 640 l 1,37,-1
 256 640 l 1,34,-1
EndSplineSet
EndChar

StartChar: uni007E
Encoding: 126 126 126
Width: 512
GlyphClass: 2
Flags: W
LayerCount: 2
Fore
SplineSet
64 640 m 1,0,1
 64 640 64 640 64 512 c 1,2,-1
 128 512 l 1,3,4
 128 512 128 512 128 640 c 1,5,-1
 64 640 l 1,0,1
320 576 m 1,6,-1
 320 512 l 1,7,-1
 448 512 l 1,8,-1
 448 576 l 1,9,-1
 320 576 l 1,6,-1
320 576 m 1,10,-1
 320 640 l 1,11,-1
 256 640 l 1,12,-1
 256 576 l 1,13,-1
 320 576 l 1,10,-1
448 576 m 1,14,-1
 512 576 l 1,15,16
 512 576 512 576 512 704 c 1,17,-1
 448 704 l 1,18,19
 448 704 448 704 448 576 c 1,14,-1
128 640 m 1,20,-1
 256 640 l 1,21,-1
 256 704 l 1,22,-1
 128 704 l 1,23,-1
 128 640 l 1,20,-1
EndSplineSet
EndChar

StartChar: uni007F
Encoding: 127 127 127
Width: 512
GlyphClass: 2
Flags: W
LayerCount: 2
Fore
SplineSet
64 384 m 1,0,-1
 64 0 l 1,1,-1
 448 0 l 1,2,-1
 448 384 l 1,3,-1
 384 384 l 1,4,-1
 384 64 l 1,5,-1
 128 64 l 1,6,-1
 128 384 l 1,7,-1
 64 384 l 1,0,-1
128 384 m 1,8,-1
 192 384 l 1,9,-1
 192 448 l 1,10,-1
 128 448 l 1,11,-1
 128 384 l 1,8,-1
384 384 m 1,12,-1
 384 448 l 1,13,-1
 320 448 l 1,14,-1
 320 384 l 1,15,-1
 384 384 l 1,12,-1
192 448 m 1,16,-1
 320 448 l 1,17,-1
 320 512 l 1,18,-1
 192 512 l 1,19,-1
 192 448 l 1,16,-1
EndSplineSet
EndChar

StartChar: uni0080
Encoding: 128 128 128
Width: 512
GlyphClass: 2
Flags: W
LayerCount: 2
Fore
SplineSet
256 -64 m 1,0,-1
 128 -64 l 1,1,-1
 128 -128 l 1,2,-1
 256 -128 l 1,3,-1
 256 -64 l 1,0,-1
256 -64 m 1,4,-1
 320 -64 l 1,5,-1
 320 0 l 1,6,-1
 384 0 l 1,7,-1
 384 64 l 1,8,-1
 128 64 l 1,9,-1
 128 0 l 1,10,-1
 256 0 l 1,11,-1
 256 -64 l 1,4,-1
128 64 m 1,12,-1
 128 576 l 1,13,-1
 64 576 l 1,14,-1
 64 64 l 1,15,-1
 128 64 l 1,12,-1
384 64 m 1,16,-1
 448 64 l 1,17,-1
 448 192 l 1,18,-1
 384 192 l 1,19,-1
 384 64 l 1,16,-1
384 576 m 1,20,-1
 384 448 l 1,21,-1
 448 448 l 1,22,-1
 448 576 l 1,23,-1
 384 576 l 1,20,-1
128 576 m 1,24,-1
 384 576 l 1,25,-1
 384 640 l 1,26,-1
 128 640 l 1,27,-1
 128 576 l 1,24,-1
EndSplineSet
EndChar

StartChar: uni0081
Encoding: 129 129 129
Width: 512
GlyphClass: 2
Flags: W
LayerCount: 2
Fore
SplineSet
128 64 m 1,0,-1
 128 0 l 1,1,-1
 320 0 l 1,2,-1
 320 64 l 1,3,-1
 128 64 l 1,0,-1
128 64 m 1,4,-1
 128 512 l 1,5,-1
 64 512 l 1,6,-1
 64 64 l 1,7,-1
 128 64 l 1,4,-1
384 64 m 1,8,-1
 384 0 l 1,9,-1
 448 0 l 1,10,-1
 448 512 l 1,11,-1
 384 512 l 1,12,-1
 384 128 l 1,13,-1
 320 128 l 1,14,-1
 320 64 l 1,15,-1
 384 64 l 1,8,-1
128 768 m 1,16,-1
 128 640 l 1,17,-1
 192 640 l 1,18,-1
 192 768 l 1,19,-1
 128 768 l 1,16,-1
320 768 m 1,20,-1
 320 640 l 1,21,-1
 384 640 l 1,22,-1
 384 768 l 1,23,-1
 320 768 l 1,20,-1
EndSplineSet
EndChar

StartChar: uni0082
Encoding: 130 130 130
Width: 512
GlyphClass: 2
Flags: W
LayerCount: 2
Fore
SplineSet
448 64 m 1,0,-1
 448 128 l 1,1,-1
 384 128 l 1,2,-1
 384 64 l 1,3,-1
 128 64 l 1,4,-1
 128 0 l 1,5,-1
 384 0 l 1,6,-1
 384 64 l 1,7,-1
 448 64 l 1,0,-1
384 704 m 1,8,-1
 384 768 l 1,9,-1
 256 768 l 1,10,-1
 256 704 l 1,11,-1
 128 704 l 1,12,-1
 128 640 l 1,13,-1
 256 640 l 1,14,-1
 256 704 l 1,15,-1
 384 704 l 1,8,-1
128 64 m 1,16,-1
 128 256 l 1,17,-1
 448 256 l 1,18,-1
 448 448 l 1,19,-1
 384 448 l 1,20,-1
 384 320 l 1,21,-1
 128 320 l 1,22,-1
 128 448 l 1,23,-1
 64 448 l 1,24,-1
 64 64 l 1,25,-1
 128 64 l 1,16,-1
128 448 m 1,26,-1
 384 448 l 1,27,-1
 384 512 l 1,28,-1
 128 512 l 1,29,-1
 128 448 l 1,26,-1
EndSplineSet
EndChar

StartChar: uni0083
Encoding: 131 131 131
Width: 512
GlyphClass: 2
Flags: W
LayerCount: 2
Fore
SplineSet
384 640 m 1,0,-1
 384 704 l 1,1,-1
 320 704 l 1,2,-1
 320 640 l 1,3,-1
 384 640 l 1,0,-1
128 64 m 1,4,-1
 128 0 l 1,5,-1
 320 0 l 1,6,-1
 320 64 l 1,7,-1
 128 64 l 1,4,-1
128 64 m 1,8,-1
 128 256 l 1,9,-1
 64 256 l 1,10,-1
 64 64 l 1,11,-1
 128 64 l 1,8,-1
384 64 m 1,12,-1
 384 0 l 1,13,-1
 448 0 l 1,14,-1
 448 448 l 1,15,-1
 384 448 l 1,16,-1
 384 320 l 1,17,-1
 128 320 l 1,18,-1
 128 256 l 1,19,-1
 384 256 l 1,20,-1
 384 128 l 1,21,-1
 320 128 l 1,22,-1
 320 64 l 1,23,-1
 384 64 l 1,12,-1
128 448 m 1,24,-1
 64 448 l 1,25,-1
 64 384 l 1,26,-1
 128 384 l 1,27,-1
 128 448 l 1,24,-1
128 448 m 1,28,-1
 384 448 l 1,29,-1
 384 512 l 1,30,-1
 128 512 l 1,31,-1
 128 448 l 1,28,-1
192 704 m 1,32,-1
 128 704 l 1,33,-1
 128 640 l 1,34,-1
 192 640 l 1,35,-1
 192 704 l 1,32,-1
192 704 m 1,36,-1
 320 704 l 1,37,-1
 320 768 l 1,38,-1
 192 768 l 1,39,-1
 192 704 l 1,36,-1
EndSplineSet
EndChar

StartChar: uni0084
Encoding: 132 132 132
Width: 512
GlyphClass: 2
Flags: W
LayerCount: 2
Fore
SplineSet
128 64 m 1,0,-1
 128 0 l 1,1,-1
 320 0 l 1,2,-1
 320 64 l 1,3,-1
 128 64 l 1,0,-1
128 64 m 1,4,-1
 128 256 l 1,5,-1
 64 256 l 1,6,-1
 64 64 l 1,7,-1
 128 64 l 1,4,-1
384 64 m 1,8,-1
 384 0 l 1,9,-1
 448 0 l 1,10,-1
 448 448 l 1,11,-1
 384 448 l 1,12,-1
 384 320 l 1,13,-1
 128 320 l 1,14,-1
 128 256 l 1,15,-1
 384 256 l 1,16,-1
 384 128 l 1,17,-1
 320 128 l 1,18,-1
 320 64 l 1,19,-1
 384 64 l 1,8,-1
128 448 m 1,20,-1
 64 448 l 1,21,-1
 64 384 l 1,22,-1
 128 384 l 1,23,-1
 128 448 l 1,20,-1
128 448 m 1,24,-1
 384 448 l 1,25,-1
 384 512 l 1,26,-1
 128 512 l 1,27,-1
 128 448 l 1,24,-1
128 768 m 1,28,-1
 128 640 l 1,29,-1
 192 640 l 1,30,-1
 192 768 l 1,31,-1
 128 768 l 1,28,-1
320 768 m 1,32,-1
 320 640 l 1,33,-1
 384 640 l 1,34,-1
 384 768 l 1,35,-1
 320 768 l 1,32,-1
EndSplineSet
EndChar

StartChar: uni0085
Encoding: 133 133 133
Width: 512
GlyphClass: 2
Flags: W
LayerCount: 2
Fore
SplineSet
384 640 m 1,0,-1
 384 704 l 1,1,-1
 256 704 l 1,2,-1
 256 640 l 1,3,-1
 384 640 l 1,0,-1
128 64 m 1,4,-1
 128 0 l 1,5,-1
 320 0 l 1,6,-1
 320 64 l 1,7,-1
 128 64 l 1,4,-1
128 64 m 1,8,-1
 128 256 l 1,9,-1
 64 256 l 1,10,-1
 64 64 l 1,11,-1
 128 64 l 1,8,-1
384 64 m 1,12,-1
 384 0 l 1,13,-1
 448 0 l 1,14,-1
 448 448 l 1,15,-1
 384 448 l 1,16,-1
 384 320 l 1,17,-1
 128 320 l 1,18,-1
 128 256 l 1,19,-1
 384 256 l 1,20,-1
 384 128 l 1,21,-1
 320 128 l 1,22,-1
 320 64 l 1,23,-1
 384 64 l 1,12,-1
128 448 m 1,24,-1
 64 448 l 1,25,-1
 64 384 l 1,26,-1
 128 384 l 1,27,-1
 128 448 l 1,24,-1
128 448 m 1,28,-1
 384 448 l 1,29,-1
 384 512 l 1,30,-1
 128 512 l 1,31,-1
 128 448 l 1,28,-1
256 704 m 1,32,-1
 256 768 l 1,33,-1
 128 768 l 1,34,-1
 128 704 l 1,35,-1
 256 704 l 1,32,-1
EndSplineSet
EndChar

StartChar: uni0086
Encoding: 134 134 134
Width: 512
GlyphClass: 2
Flags: W
LayerCount: 2
Fore
SplineSet
384 704 m 1,0,-1
 384 768 l 1,1,-1
 320 768 l 1,2,-1
 320 704 l 1,3,-1
 192 704 l 1,4,-1
 192 640 l 1,5,-1
 320 640 l 1,6,-1
 320 704 l 1,7,-1
 384 704 l 1,0,-1
128 64 m 1,8,-1
 128 0 l 1,9,-1
 320 0 l 1,10,-1
 320 64 l 1,11,-1
 128 64 l 1,8,-1
128 64 m 1,12,-1
 128 256 l 1,13,-1
 64 256 l 1,14,-1
 64 64 l 1,15,-1
 128 64 l 1,12,-1
384 64 m 1,16,-1
 384 0 l 1,17,-1
 448 0 l 1,18,-1
 448 448 l 1,19,-1
 384 448 l 1,20,-1
 384 320 l 1,21,-1
 128 320 l 1,22,-1
 128 256 l 1,23,-1
 384 256 l 1,24,-1
 384 128 l 1,25,-1
 320 128 l 1,26,-1
 320 64 l 1,27,-1
 384 64 l 1,16,-1
128 448 m 1,28,-1
 64 448 l 1,29,-1
 64 384 l 1,30,-1
 128 384 l 1,31,-1
 128 448 l 1,28,-1
128 448 m 1,32,-1
 384 448 l 1,33,-1
 384 512 l 1,34,-1
 128 512 l 1,35,-1
 128 448 l 1,32,-1
192 704 m 1,36,-1
 192 768 l 1,37,-1
 128 768 l 1,38,-1
 128 704 l 1,39,-1
 192 704 l 1,36,-1
192 768 m 1,40,-1
 320 768 l 1,41,-1
 320 832 l 1,42,-1
 192 832 l 1,43,-1
 192 768 l 1,40,-1
EndSplineSet
EndChar

StartChar: uni0087
Encoding: 135 135 135
Width: 512
GlyphClass: 2
Flags: W
LayerCount: 2
Fore
SplineSet
448 64 m 1,0,-1
 448 128 l 1,1,-1
 384 128 l 1,2,-1
 384 64 l 1,3,-1
 128 64 l 1,4,-1
 128 0 l 1,5,-1
 256 0 l 1,6,-1
 256 -64 l 1,7,-1
 128 -64 l 1,8,-1
 128 -128 l 1,9,-1
 256 -128 l 1,10,-1
 256 -64 l 1,11,-1
 320 -64 l 1,12,-1
 320 0 l 1,13,-1
 384 0 l 1,14,-1
 384 64 l 1,15,-1
 448 64 l 1,0,-1
448 384 m 1,16,-1
 448 448 l 1,17,-1
 384 448 l 1,18,-1
 384 384 l 1,19,-1
 448 384 l 1,16,-1
128 64 m 1,20,-1
 128 448 l 1,21,-1
 64 448 l 1,22,-1
 64 64 l 1,23,-1
 128 64 l 1,20,-1
128 448 m 1,24,-1
 384 448 l 1,25,-1
 384 512 l 1,26,-1
 128 512 l 1,27,-1
 128 448 l 1,24,-1
EndSplineSet
EndChar

StartChar: uni0088
Encoding: 136 136 136
Width: 512
GlyphClass: 2
Flags: W
LayerCount: 2
Fore
SplineSet
448 64 m 1,0,-1
 448 128 l 1,1,-1
 384 128 l 1,2,-1
 384 64 l 1,3,-1
 128 64 l 1,4,-1
 128 0 l 1,5,-1
 384 0 l 1,6,-1
 384 64 l 1,7,-1
 448 64 l 1,0,-1
384 640 m 1,8,-1
 384 704 l 1,9,-1
 320 704 l 1,10,-1
 320 640 l 1,11,-1
 384 640 l 1,8,-1
128 64 m 1,12,-1
 128 256 l 1,13,-1
 448 256 l 1,14,-1
 448 448 l 1,15,-1
 384 448 l 1,16,-1
 384 320 l 1,17,-1
 128 320 l 1,18,-1
 128 448 l 1,19,-1
 64 448 l 1,20,-1
 64 64 l 1,21,-1
 128 64 l 1,12,-1
128 448 m 1,22,-1
 384 448 l 1,23,-1
 384 512 l 1,24,-1
 128 512 l 1,25,-1
 128 448 l 1,22,-1
192 704 m 1,26,-1
 128 704 l 1,27,-1
 128 640 l 1,28,-1
 192 640 l 1,29,-1
 192 704 l 1,26,-1
192 704 m 1,30,-1
 320 704 l 1,31,-1
 320 768 l 1,32,-1
 192 768 l 1,33,-1
 192 704 l 1,30,-1
EndSplineSet
EndChar

StartChar: uni0089
Encoding: 137 137 137
Width: 512
GlyphClass: 2
Flags: W
LayerCount: 2
Fore
SplineSet
448 64 m 1,0,-1
 448 128 l 1,1,-1
 384 128 l 1,2,-1
 384 64 l 1,3,-1
 128 64 l 1,4,-1
 128 0 l 1,5,-1
 384 0 l 1,6,-1
 384 64 l 1,7,-1
 448 64 l 1,0,-1
128 64 m 1,8,-1
 128 256 l 1,9,-1
 448 256 l 1,10,-1
 448 448 l 1,11,-1
 384 448 l 1,12,-1
 384 320 l 1,13,-1
 128 320 l 1,14,-1
 128 448 l 1,15,-1
 64 448 l 1,16,-1
 64 64 l 1,17,-1
 128 64 l 1,8,-1
128 448 m 1,18,-1
 384 448 l 1,19,-1
 384 512 l 1,20,-1
 128 512 l 1,21,-1
 128 448 l 1,18,-1
128 768 m 1,22,-1
 128 640 l 1,23,-1
 192 640 l 1,24,-1
 192 768 l 1,25,-1
 128 768 l 1,22,-1
320 768 m 1,26,-1
 320 640 l 1,27,-1
 384 640 l 1,28,-1
 384 768 l 1,29,-1
 320 768 l 1,26,-1
EndSplineSet
EndChar

StartChar: uni008A
Encoding: 138 138 138
Width: 512
GlyphClass: 2
Flags: W
LayerCount: 2
Fore
SplineSet
448 64 m 1,0,-1
 448 128 l 1,1,-1
 384 128 l 1,2,-1
 384 64 l 1,3,-1
 128 64 l 1,4,-1
 128 0 l 1,5,-1
 384 0 l 1,6,-1
 384 64 l 1,7,-1
 448 64 l 1,0,-1
384 640 m 1,8,-1
 384 704 l 1,9,-1
 256 704 l 1,10,-1
 256 640 l 1,11,-1
 384 640 l 1,8,-1
128 64 m 1,12,-1
 128 256 l 1,13,-1
 448 256 l 1,14,-1
 448 448 l 1,15,-1
 384 448 l 1,16,-1
 384 320 l 1,17,-1
 128 320 l 1,18,-1
 128 448 l 1,19,-1
 64 448 l 1,20,-1
 64 64 l 1,21,-1
 128 64 l 1,12,-1
128 448 m 1,22,-1
 384 448 l 1,23,-1
 384 512 l 1,24,-1
 128 512 l 1,25,-1
 128 448 l 1,22,-1
256 704 m 1,26,-1
 256 768 l 1,27,-1
 128 768 l 1,28,-1
 128 704 l 1,29,-1
 256 704 l 1,26,-1
EndSplineSet
EndChar

StartChar: uni008B
Encoding: 139 139 139
Width: 512
GlyphClass: 2
Flags: W
LayerCount: 2
Fore
SplineSet
448 0 m 1,0,-1
 448 64 l 1,1,-1
 320 64 l 1,2,-1
 320 512 l 1,3,-1
 192 512 l 1,4,-1
 192 448 l 1,5,-1
 256 448 l 1,6,-1
 256 64 l 1,7,-1
 128 64 l 1,8,-1
 128 0 l 1,9,-1
 448 0 l 1,0,-1
128 768 m 1,10,-1
 128 640 l 1,11,-1
 192 640 l 1,12,-1
 192 768 l 1,13,-1
 128 768 l 1,10,-1
320 768 m 1,14,-1
 320 640 l 1,15,-1
 384 640 l 1,16,-1
 384 768 l 1,17,-1
 320 768 l 1,14,-1
EndSplineSet
EndChar

StartChar: uni008C
Encoding: 140 140 140
Width: 512
GlyphClass: 2
Flags: W
LayerCount: 2
Fore
SplineSet
448 0 m 1,0,-1
 448 64 l 1,1,-1
 320 64 l 1,2,-1
 320 512 l 1,3,-1
 192 512 l 1,4,-1
 192 448 l 1,5,-1
 256 448 l 1,6,-1
 256 64 l 1,7,-1
 128 64 l 1,8,-1
 128 0 l 1,9,-1
 448 0 l 1,0,-1
384 640 m 1,10,-1
 384 704 l 1,11,-1
 320 704 l 1,12,-1
 320 640 l 1,13,-1
 384 640 l 1,10,-1
192 704 m 1,14,-1
 128 704 l 1,15,-1
 128 640 l 1,16,-1
 192 640 l 1,17,-1
 192 704 l 1,14,-1
192 704 m 1,18,-1
 320 704 l 1,19,-1
 320 768 l 1,20,-1
 192 768 l 1,21,-1
 192 704 l 1,18,-1
EndSplineSet
EndChar

StartChar: uni008D
Encoding: 141 141 141
Width: 512
GlyphClass: 2
Flags: W
LayerCount: 2
Fore
SplineSet
448 0 m 1,0,-1
 448 64 l 1,1,-1
 320 64 l 1,2,-1
 320 512 l 1,3,-1
 192 512 l 1,4,-1
 192 448 l 1,5,-1
 256 448 l 1,6,-1
 256 64 l 1,7,-1
 128 64 l 1,8,-1
 128 0 l 1,9,-1
 448 0 l 1,0,-1
384 640 m 1,10,-1
 384 704 l 1,11,-1
 256 704 l 1,12,-1
 256 640 l 1,13,-1
 384 640 l 1,10,-1
256 704 m 1,14,-1
 256 768 l 1,15,-1
 128 768 l 1,16,-1
 128 704 l 1,17,-1
 256 704 l 1,14,-1
EndSplineSet
EndChar

StartChar: uni008E
Encoding: 142 142 142
Width: 512
GlyphClass: 2
Flags: W
LayerCount: 2
Fore
SplineSet
64 448 m 1,0,-1
 64 0 l 1,1,-1
 128 0 l 1,2,-1
 128 256 l 1,3,-1
 384 256 l 1,4,-1
 384 0 l 1,5,-1
 448 0 l 1,6,-1
 448 448 l 1,7,-1
 384 448 l 1,8,-1
 384 320 l 1,9,-1
 128 320 l 1,10,-1
 128 448 l 1,11,-1
 64 448 l 1,0,-1
128 448 m 1,12,-1
 192 448 l 1,13,-1
 192 576 l 1,14,-1
 128 576 l 1,15,-1
 128 448 l 1,12,-1
384 448 m 1,16,-1
 384 576 l 1,17,-1
 320 576 l 1,18,-1
 320 448 l 1,19,-1
 384 448 l 1,16,-1
192 576 m 1,20,-1
 320 576 l 1,21,-1
 320 640 l 1,22,-1
 192 640 l 1,23,-1
 192 576 l 1,20,-1
128 896 m 1,24,-1
 128 768 l 1,25,-1
 192 768 l 1,26,-1
 192 896 l 1,27,-1
 128 896 l 1,24,-1
320 896 m 1,28,-1
 320 768 l 1,29,-1
 384 768 l 1,30,-1
 384 896 l 1,31,-1
 320 896 l 1,28,-1
EndSplineSet
EndChar

StartChar: uni008F
Encoding: 143 143 143
Width: 512
GlyphClass: 2
Flags: W
LayerCount: 2
Fore
SplineSet
384 768 m 1,0,-1
 384 832 l 1,1,-1
 320 832 l 1,2,-1
 320 768 l 1,3,-1
 192 768 l 1,4,-1
 192 704 l 1,5,-1
 320 704 l 1,6,-1
 320 768 l 1,7,-1
 384 768 l 1,0,-1
64 448 m 1,8,-1
 64 0 l 1,9,-1
 128 0 l 1,10,-1
 128 256 l 1,11,-1
 384 256 l 1,12,-1
 384 0 l 1,13,-1
 448 0 l 1,14,-1
 448 448 l 1,15,-1
 384 448 l 1,16,-1
 384 320 l 1,17,-1
 128 320 l 1,18,-1
 128 448 l 1,19,-1
 64 448 l 1,8,-1
128 448 m 1,20,-1
 192 448 l 1,21,-1
 192 576 l 1,22,-1
 128 576 l 1,23,-1
 128 448 l 1,20,-1
384 448 m 1,24,-1
 384 576 l 1,25,-1
 320 576 l 1,26,-1
 320 448 l 1,27,-1
 384 448 l 1,24,-1
192 576 m 1,28,-1
 320 576 l 1,29,-1
 320 640 l 1,30,-1
 192 640 l 1,31,-1
 192 576 l 1,28,-1
192 768 m 1,32,-1
 192 832 l 1,33,-1
 128 832 l 1,34,-1
 128 768 l 1,35,-1
 192 768 l 1,32,-1
192 832 m 1,36,-1
 320 832 l 1,37,-1
 320 896 l 1,38,-1
 192 896 l 1,39,-1
 192 832 l 1,36,-1
EndSplineSet
EndChar

StartChar: uni0090
Encoding: 144 144 144
Width: 512
GlyphClass: 2
Flags: W
LayerCount: 2
Fore
SplineSet
448 0 m 1,0,-1
 448 64 l 1,1,-1
 128 64 l 1,2,-1
 128 320 l 1,3,-1
 384 320 l 1,4,-1
 384 384 l 1,5,-1
 128 384 l 1,6,-1
 128 576 l 1,7,-1
 448 576 l 1,8,-1
 448 640 l 1,9,-1
 64 640 l 1,10,-1
 64 0 l 1,11,-1
 448 0 l 1,0,-1
384 832 m 1,12,-1
 384 896 l 1,13,-1
 256 896 l 1,14,-1
 256 832 l 1,15,-1
 128 832 l 1,16,-1
 128 768 l 1,17,-1
 256 768 l 1,18,-1
 256 832 l 1,19,-1
 384 832 l 1,12,-1
EndSplineSet
EndChar

StartChar: uni0091
Encoding: 145 145 145
Width: 512
GlyphClass: 2
Flags: W
LayerCount: 2
Fore
SplineSet
512 64 m 1,0,-1
 512 128 l 1,1,-1
 448 128 l 1,2,-1
 448 64 l 1,3,-1
 320 64 l 1,4,-1
 320 256 l 1,5,-1
 512 256 l 1,6,-1
 512 448 l 1,7,-1
 448 448 l 1,8,-1
 448 320 l 1,9,-1
 320 320 l 1,10,-1
 320 448 l 1,11,-1
 448 448 l 1,12,-1
 448 512 l 1,13,-1
 128 512 l 1,14,-1
 128 448 l 1,15,-1
 64 448 l 1,16,-1
 64 384 l 1,17,-1
 128 384 l 1,18,-1
 128 448 l 1,19,-1
 256 448 l 1,20,-1
 256 320 l 1,21,-1
 128 320 l 1,22,-1
 128 256 l 1,23,-1
 64 256 l 1,24,-1
 64 64 l 1,25,-1
 128 64 l 1,26,-1
 128 0 l 1,27,-1
 448 0 l 1,28,-1
 448 64 l 1,29,-1
 512 64 l 1,0,-1
128 64 m 1,30,-1
 128 256 l 1,31,-1
 256 256 l 1,32,-1
 256 64 l 1,33,-1
 128 64 l 1,30,-1
EndSplineSet
EndChar

StartChar: uni0092
Encoding: 146 146 146
Width: 512
GlyphClass: 2
Flags: W
LayerCount: 2
Fore
SplineSet
512 0 m 1,0,-1
 512 64 l 1,1,-1
 320 64 l 1,2,-1
 320 320 l 1,3,-1
 512 320 l 1,4,-1
 512 384 l 1,5,-1
 320 384 l 1,6,-1
 320 576 l 1,7,-1
 512 576 l 1,8,-1
 512 640 l 1,9,-1
 192 640 l 1,10,-1
 192 576 l 1,11,-1
 128 576 l 1,12,-1
 128 512 l 1,13,-1
 64 512 l 1,14,-1
 64 0 l 1,15,-1
 128 0 l 1,16,-1
 128 320 l 1,17,-1
 256 320 l 1,18,-1
 256 0 l 1,19,-1
 512 0 l 1,0,-1
128 384 m 1,20,-1
 128 512 l 1,21,-1
 192 512 l 1,22,-1
 192 576 l 1,23,-1
 256 576 l 1,24,-1
 256 384 l 1,25,-1
 128 384 l 1,20,-1
EndSplineSet
EndChar

StartChar: uni0093
Encoding: 147 147 147
Width: 512
GlyphClass: 2
Flags: W
LayerCount: 2
Fore
SplineSet
384 640 m 1,0,-1
 384 704 l 1,1,-1
 320 704 l 1,2,-1
 320 640 l 1,3,-1
 384 640 l 1,0,-1
128 64 m 1,4,-1
 128 0 l 1,5,-1
 384 0 l 1,6,-1
 384 64 l 1,7,-1
 128 64 l 1,4,-1
128 64 m 1,8,-1
 128 448 l 1,9,-1
 64 448 l 1,10,-1
 64 64 l 1,11,-1
 128 64 l 1,8,-1
384 64 m 1,12,-1
 448 64 l 1,13,-1
 448 448 l 1,14,-1
 384 448 l 1,15,-1
 384 64 l 1,12,-1
128 448 m 1,16,-1
 384 448 l 1,17,-1
 384 512 l 1,18,-1
 128 512 l 1,19,-1
 128 448 l 1,16,-1
192 704 m 1,20,-1
 128 704 l 1,21,-1
 128 640 l 1,22,-1
 192 640 l 1,23,-1
 192 704 l 1,20,-1
192 704 m 1,24,-1
 320 704 l 1,25,-1
 320 768 l 1,26,-1
 192 768 l 1,27,-1
 192 704 l 1,24,-1
EndSplineSet
EndChar

StartChar: uni0094
Encoding: 148 148 148
Width: 512
GlyphClass: 2
Flags: W
LayerCount: 2
Fore
SplineSet
128 64 m 1,0,-1
 128 0 l 1,1,-1
 384 0 l 1,2,-1
 384 64 l 1,3,-1
 128 64 l 1,0,-1
128 64 m 1,4,-1
 128 448 l 1,5,-1
 64 448 l 1,6,-1
 64 64 l 1,7,-1
 128 64 l 1,4,-1
384 64 m 1,8,-1
 448 64 l 1,9,-1
 448 448 l 1,10,-1
 384 448 l 1,11,-1
 384 64 l 1,8,-1
128 448 m 1,12,-1
 384 448 l 1,13,-1
 384 512 l 1,14,-1
 128 512 l 1,15,-1
 128 448 l 1,12,-1
128 768 m 1,16,-1
 128 640 l 1,17,-1
 192 640 l 1,18,-1
 192 768 l 1,19,-1
 128 768 l 1,16,-1
320 768 m 1,20,-1
 320 640 l 1,21,-1
 384 640 l 1,22,-1
 384 768 l 1,23,-1
 320 768 l 1,20,-1
EndSplineSet
EndChar

StartChar: uni0095
Encoding: 149 149 149
Width: 512
GlyphClass: 2
Flags: W
LayerCount: 2
Fore
SplineSet
384 640 m 1,0,-1
 384 704 l 1,1,-1
 256 704 l 1,2,-1
 256 640 l 1,3,-1
 384 640 l 1,0,-1
128 64 m 1,4,-1
 128 0 l 1,5,-1
 384 0 l 1,6,-1
 384 64 l 1,7,-1
 128 64 l 1,4,-1
128 64 m 1,8,-1
 128 448 l 1,9,-1
 64 448 l 1,10,-1
 64 64 l 1,11,-1
 128 64 l 1,8,-1
384 64 m 1,12,-1
 448 64 l 1,13,-1
 448 448 l 1,14,-1
 384 448 l 1,15,-1
 384 64 l 1,12,-1
128 448 m 1,16,-1
 384 448 l 1,17,-1
 384 512 l 1,18,-1
 128 512 l 1,19,-1
 128 448 l 1,16,-1
256 704 m 1,20,-1
 256 768 l 1,21,-1
 128 768 l 1,22,-1
 128 704 l 1,23,-1
 256 704 l 1,20,-1
EndSplineSet
EndChar

StartChar: uni0096
Encoding: 150 150 150
Width: 512
GlyphClass: 2
Flags: W
LayerCount: 2
Fore
SplineSet
384 640 m 1,0,-1
 384 704 l 1,1,-1
 320 704 l 1,2,-1
 320 640 l 1,3,-1
 384 640 l 1,0,-1
128 64 m 1,4,-1
 128 0 l 1,5,-1
 320 0 l 1,6,-1
 320 64 l 1,7,-1
 128 64 l 1,4,-1
128 64 m 1,8,-1
 128 512 l 1,9,-1
 64 512 l 1,10,-1
 64 64 l 1,11,-1
 128 64 l 1,8,-1
384 64 m 1,12,-1
 384 0 l 1,13,-1
 448 0 l 1,14,-1
 448 512 l 1,15,-1
 384 512 l 1,16,-1
 384 128 l 1,17,-1
 320 128 l 1,18,-1
 320 64 l 1,19,-1
 384 64 l 1,12,-1
192 704 m 1,20,-1
 128 704 l 1,21,-1
 128 640 l 1,22,-1
 192 640 l 1,23,-1
 192 704 l 1,20,-1
192 704 m 1,24,-1
 320 704 l 1,25,-1
 320 768 l 1,26,-1
 192 768 l 1,27,-1
 192 704 l 1,24,-1
EndSplineSet
EndChar

StartChar: uni0097
Encoding: 151 151 151
Width: 512
GlyphClass: 2
Flags: W
LayerCount: 2
Fore
SplineSet
384 640 m 1,0,-1
 384 704 l 1,1,-1
 256 704 l 1,2,-1
 256 640 l 1,3,-1
 384 640 l 1,0,-1
128 64 m 1,4,-1
 128 0 l 1,5,-1
 320 0 l 1,6,-1
 320 64 l 1,7,-1
 128 64 l 1,4,-1
128 64 m 1,8,-1
 128 512 l 1,9,-1
 64 512 l 1,10,-1
 64 64 l 1,11,-1
 128 64 l 1,8,-1
384 64 m 1,12,-1
 384 0 l 1,13,-1
 448 0 l 1,14,-1
 448 512 l 1,15,-1
 384 512 l 1,16,-1
 384 128 l 1,17,-1
 320 128 l 1,18,-1
 320 64 l 1,19,-1
 384 64 l 1,12,-1
256 704 m 1,20,-1
 256 768 l 1,21,-1
 128 768 l 1,22,-1
 128 704 l 1,23,-1
 256 704 l 1,20,-1
EndSplineSet
EndChar

StartChar: uni0098
Encoding: 152 152 152
Width: 512
GlyphClass: 2
Flags: W
LayerCount: 2
Fore
SplineSet
384 -64 m 1,0,-1
 128 -64 l 1,1,-1
 128 -128 l 1,2,-1
 384 -128 l 1,3,-1
 384 -64 l 1,0,-1
384 -64 m 1,4,-1
 448 -64 l 1,5,-1
 448 512 l 1,6,-1
 384 512 l 1,7,-1
 384 192 l 1,8,-1
 320 192 l 1,9,-1
 320 128 l 1,10,-1
 192 128 l 1,11,-1
 192 64 l 1,12,-1
 320 64 l 1,13,-1
 320 128 l 1,14,-1
 384 128 l 1,15,-1
 384 -64 l 1,4,-1
192 128 m 1,16,-1
 192 192 l 1,17,-1
 128 192 l 1,18,-1
 128 128 l 1,19,-1
 192 128 l 1,16,-1
128 192 m 1,20,-1
 128 512 l 1,21,-1
 64 512 l 1,22,-1
 64 192 l 1,23,-1
 128 192 l 1,20,-1
128 768 m 1,24,-1
 128 640 l 1,25,-1
 192 640 l 1,26,-1
 192 768 l 1,27,-1
 128 768 l 1,24,-1
320 768 m 1,28,-1
 320 640 l 1,29,-1
 384 640 l 1,30,-1
 384 768 l 1,31,-1
 320 768 l 1,28,-1
EndSplineSet
EndChar

StartChar: uni0099
Encoding: 153 153 153
Width: 512
GlyphClass: 2
Flags: W
LayerCount: 2
Fore
SplineSet
128 64 m 1,0,-1
 128 0 l 1,1,-1
 384 0 l 1,2,-1
 384 64 l 1,3,-1
 128 64 l 1,0,-1
128 64 m 1,4,-1
 128 576 l 1,5,-1
 64 576 l 1,6,-1
 64 64 l 1,7,-1
 128 64 l 1,4,-1
384 64 m 1,8,-1
 448 64 l 1,9,-1
 448 576 l 1,10,-1
 384 576 l 1,11,-1
 384 64 l 1,8,-1
128 576 m 1,12,-1
 384 576 l 1,13,-1
 384 640 l 1,14,-1
 128 640 l 1,15,-1
 128 576 l 1,12,-1
128 896 m 1,16,-1
 128 768 l 1,17,-1
 192 768 l 1,18,-1
 192 896 l 1,19,-1
 128 896 l 1,16,-1
320 896 m 1,20,-1
 320 768 l 1,21,-1
 384 768 l 1,22,-1
 384 896 l 1,23,-1
 320 896 l 1,20,-1
EndSplineSet
EndChar

StartChar: uni009A
Encoding: 154 154 154
Width: 512
GlyphClass: 2
Flags: W
LayerCount: 2
Fore
SplineSet
128 64 m 1,0,-1
 128 0 l 1,1,-1
 384 0 l 1,2,-1
 384 64 l 1,3,-1
 128 64 l 1,0,-1
128 64 m 1,4,-1
 128 640 l 1,5,-1
 64 640 l 1,6,-1
 64 64 l 1,7,-1
 128 64 l 1,4,-1
384 64 m 1,8,-1
 448 64 l 1,9,-1
 448 640 l 1,10,-1
 384 640 l 1,11,-1
 384 64 l 1,8,-1
128 896 m 1,12,-1
 128 768 l 1,13,-1
 192 768 l 1,14,-1
 192 896 l 1,15,-1
 128 896 l 1,12,-1
320 896 m 1,16,-1
 320 768 l 1,17,-1
 384 768 l 1,18,-1
 384 896 l 1,19,-1
 320 896 l 1,16,-1
EndSplineSet
EndChar

StartChar: uni009B
Encoding: 155 155 155
Width: 512
GlyphClass: 2
Flags: W
LayerCount: 2
Fore
SplineSet
512 192 m 1,0,-1
 512 256 l 1,1,-1
 448 256 l 1,2,-1
 448 192 l 1,3,-1
 320 192 l 1,4,-1
 320 448 l 1,5,-1
 448 448 l 1,6,-1
 448 384 l 1,7,-1
 512 384 l 1,8,-1
 512 448 l 1,9,-1
 448 448 l 1,10,-1
 448 512 l 1,11,-1
 320 512 l 1,12,-1
 320 640 l 1,13,-1
 256 640 l 1,14,-1
 256 512 l 1,15,-1
 128 512 l 1,16,-1
 128 448 l 1,17,-1
 64 448 l 1,18,-1
 64 192 l 1,19,-1
 128 192 l 1,20,-1
 128 128 l 1,21,-1
 256 128 l 1,22,-1
 256 0 l 1,23,-1
 320 0 l 1,24,-1
 320 128 l 1,25,-1
 448 128 l 1,26,-1
 448 192 l 1,27,-1
 512 192 l 1,0,-1
128 192 m 1,28,-1
 128 448 l 1,29,-1
 256 448 l 1,30,-1
 256 192 l 1,31,-1
 128 192 l 1,28,-1
EndSplineSet
EndChar

StartChar: uni009C
Encoding: 156 156 156
Width: 512
GlyphClass: 2
Flags: W
LayerCount: 2
Fore
SplineSet
512 0 m 1,0,-1
 512 64 l 1,1,-1
 448 64 l 1,2,-1
 448 0 l 1,3,-1
 512 0 l 1,0,-1
384 320 m 1,4,-1
 384 384 l 1,5,-1
 256 384 l 1,6,-1
 256 576 l 1,7,-1
 192 576 l 1,8,-1
 192 384 l 1,9,-1
 64 384 l 1,10,-1
 64 320 l 1,11,-1
 192 320 l 1,12,-1
 192 128 l 1,13,-1
 128 128 l 1,14,-1
 128 64 l 1,15,-1
 64 64 l 1,16,-1
 64 0 l 1,17,-1
 192 0 l 1,18,-1
 192 64 l 1,19,-1
 448 64 l 1,20,-1
 448 128 l 1,21,-1
 256 128 l 1,22,-1
 256 320 l 1,23,-1
 384 320 l 1,4,-1
448 576 m 1,24,-1
 448 640 l 1,25,-1
 256 640 l 1,26,-1
 256 576 l 1,27,-1
 448 576 l 1,24,-1
EndSplineSet
EndChar

StartChar: uni009D
Encoding: 157 157 157
Width: 512
GlyphClass: 2
Flags: W
LayerCount: 2
Fore
SplineSet
512 192 m 1,0,-1
 512 256 l 1,1,-1
 320 256 l 1,2,-1
 320 320 l 1,3,-1
 512 320 l 1,4,-1
 512 384 l 1,5,-1
 320 384 l 1,6,-1
 320 448 l 1,7,-1
 256 448 l 1,8,-1
 256 384 l 1,9,-1
 64 384 l 1,10,-1
 64 320 l 1,11,-1
 256 320 l 1,12,-1
 256 256 l 1,13,-1
 64 256 l 1,14,-1
 64 192 l 1,15,-1
 256 192 l 1,16,-1
 256 0 l 1,17,-1
 320 0 l 1,18,-1
 320 192 l 1,19,-1
 512 192 l 1,0,-1
512 576 m 1,20,-1
 512 640 l 1,21,-1
 448 640 l 1,22,-1
 448 576 l 1,23,-1
 384 576 l 1,24,-1
 384 512 l 1,25,-1
 320 512 l 1,26,-1
 320 448 l 1,27,-1
 384 448 l 1,28,-1
 384 512 l 1,29,-1
 448 512 l 1,30,-1
 448 576 l 1,31,-1
 512 576 l 1,20,-1
256 448 m 1,32,-1
 256 512 l 1,33,-1
 192 512 l 1,34,-1
 192 448 l 1,35,-1
 256 448 l 1,32,-1
192 512 m 1,36,-1
 192 576 l 1,37,-1
 128 576 l 1,38,-1
 128 512 l 1,39,-1
 192 512 l 1,36,-1
128 576 m 1,40,-1
 128 640 l 1,41,-1
 64 640 l 1,42,-1
 64 576 l 1,43,-1
 128 576 l 1,40,-1
EndSplineSet
EndChar

StartChar: uni009E
Encoding: 158 158 158
Width: 512
GlyphClass: 2
Flags: W
LayerCount: 2
Fore
SplineSet
512 448 m 1,0,-1
 512 512 l 1,1,-1
 320 512 l 1,2,-1
 320 640 l 1,3,-1
 256 640 l 1,4,-1
 256 576 l 1,5,-1
 192 576 l 1,6,-1
 192 384 l 1,7,-1
 128 384 l 1,8,-1
 128 576 l 1,9,-1
 192 576 l 1,10,-1
 192 640 l 1,11,-1
 64 640 l 1,12,-1
 64 0 l 1,13,-1
 128 0 l 1,14,-1
 128 320 l 1,15,-1
 192 320 l 1,16,-1
 192 384 l 1,17,-1
 256 384 l 1,18,-1
 256 0 l 1,19,-1
 448 0 l 1,20,-1
 448 64 l 1,21,-1
 320 64 l 1,22,-1
 320 320 l 1,23,-1
 384 320 l 1,24,-1
 384 256 l 1,25,-1
 448 256 l 1,26,-1
 448 64 l 1,27,-1
 512 64 l 1,28,-1
 512 256 l 1,29,-1
 448 256 l 1,30,-1
 448 320 l 1,31,-1
 384 320 l 1,32,-1
 384 448 l 1,33,-1
 512 448 l 1,0,-1
EndSplineSet
EndChar

StartChar: uni009F
Encoding: 159 159 159
Width: 512
GlyphClass: 2
Flags: W
LayerCount: 2
Fore
SplineSet
384 384 m 1,0,-1
 384 448 l 1,1,-1
 256 448 l 1,2,-1
 256 640 l 1,3,-1
 192 640 l 1,4,-1
 192 448 l 1,5,-1
 64 448 l 1,6,-1
 64 384 l 1,7,-1
 192 384 l 1,8,-1
 192 0 l 1,9,-1
 64 0 l 1,10,-1
 64 -64 l 1,11,-1
 192 -64 l 1,12,-1
 192 0 l 1,13,-1
 256 0 l 1,14,-1
 256 384 l 1,15,-1
 384 384 l 1,0,-1
384 640 m 1,16,-1
 384 704 l 1,17,-1
 256 704 l 1,18,-1
 256 640 l 1,19,-1
 384 640 l 1,16,-1
EndSplineSet
EndChar

StartChar: uni00A0
Encoding: 160 160 160
Width: 512
GlyphClass: 2
Flags: W
LayerCount: 2
Fore
SplineSet
384 704 m 1,0,-1
 384 768 l 1,1,-1
 256 768 l 1,2,-1
 256 704 l 1,3,-1
 128 704 l 1,4,-1
 128 640 l 1,5,-1
 256 640 l 1,6,-1
 256 704 l 1,7,-1
 384 704 l 1,0,-1
128 64 m 1,8,-1
 128 0 l 1,9,-1
 320 0 l 1,10,-1
 320 64 l 1,11,-1
 128 64 l 1,8,-1
128 64 m 1,12,-1
 128 256 l 1,13,-1
 64 256 l 1,14,-1
 64 64 l 1,15,-1
 128 64 l 1,12,-1
384 64 m 1,16,-1
 384 0 l 1,17,-1
 448 0 l 1,18,-1
 448 448 l 1,19,-1
 384 448 l 1,20,-1
 384 320 l 1,21,-1
 128 320 l 1,22,-1
 128 256 l 1,23,-1
 384 256 l 1,24,-1
 384 128 l 1,25,-1
 320 128 l 1,26,-1
 320 64 l 1,27,-1
 384 64 l 1,16,-1
128 448 m 1,28,-1
 64 448 l 1,29,-1
 64 384 l 1,30,-1
 128 384 l 1,31,-1
 128 448 l 1,28,-1
128 448 m 1,32,-1
 384 448 l 1,33,-1
 384 512 l 1,34,-1
 128 512 l 1,35,-1
 128 448 l 1,32,-1
EndSplineSet
EndChar

StartChar: uni00A1
Encoding: 161 161 161
Width: 512
GlyphClass: 2
Flags: W
LayerCount: 2
Fore
SplineSet
448 0 m 1,0,-1
 448 64 l 1,1,-1
 320 64 l 1,2,-1
 320 512 l 1,3,-1
 192 512 l 1,4,-1
 192 448 l 1,5,-1
 256 448 l 1,6,-1
 256 64 l 1,7,-1
 128 64 l 1,8,-1
 128 0 l 1,9,-1
 448 0 l 1,0,-1
384 704 m 1,10,-1
 384 768 l 1,11,-1
 256 768 l 1,12,-1
 256 704 l 1,13,-1
 128 704 l 1,14,-1
 128 640 l 1,15,-1
 256 640 l 1,16,-1
 256 704 l 1,17,-1
 384 704 l 1,10,-1
EndSplineSet
EndChar

StartChar: uni00A2
Encoding: 162 162 162
Width: 512
GlyphClass: 2
Flags: W
LayerCount: 2
Fore
SplineSet
384 704 m 1,0,-1
 384 768 l 1,1,-1
 256 768 l 1,2,-1
 256 704 l 1,3,-1
 128 704 l 1,4,-1
 128 640 l 1,5,-1
 256 640 l 1,6,-1
 256 704 l 1,7,-1
 384 704 l 1,0,-1
128 64 m 1,8,-1
 128 0 l 1,9,-1
 384 0 l 1,10,-1
 384 64 l 1,11,-1
 128 64 l 1,8,-1
128 64 m 1,12,-1
 128 448 l 1,13,-1
 64 448 l 1,14,-1
 64 64 l 1,15,-1
 128 64 l 1,12,-1
384 64 m 1,16,-1
 448 64 l 1,17,-1
 448 448 l 1,18,-1
 384 448 l 1,19,-1
 384 64 l 1,16,-1
128 448 m 1,20,-1
 384 448 l 1,21,-1
 384 512 l 1,22,-1
 128 512 l 1,23,-1
 128 448 l 1,20,-1
EndSplineSet
EndChar

StartChar: uni00A3
Encoding: 163 163 163
Width: 512
GlyphClass: 2
Flags: W
LayerCount: 2
Fore
SplineSet
384 704 m 1,0,-1
 384 768 l 1,1,-1
 256 768 l 1,2,-1
 256 704 l 1,3,-1
 128 704 l 1,4,-1
 128 640 l 1,5,-1
 256 640 l 1,6,-1
 256 704 l 1,7,-1
 384 704 l 1,0,-1
128 64 m 1,8,-1
 128 0 l 1,9,-1
 320 0 l 1,10,-1
 320 64 l 1,11,-1
 128 64 l 1,8,-1
128 64 m 1,12,-1
 128 512 l 1,13,-1
 64 512 l 1,14,-1
 64 64 l 1,15,-1
 128 64 l 1,12,-1
384 64 m 1,16,-1
 384 0 l 1,17,-1
 448 0 l 1,18,-1
 448 512 l 1,19,-1
 384 512 l 1,20,-1
 384 128 l 1,21,-1
 320 128 l 1,22,-1
 320 64 l 1,23,-1
 384 64 l 1,16,-1
EndSplineSet
EndChar

StartChar: uni00A4
Encoding: 164 164 164
Width: 512
GlyphClass: 2
Flags: W
LayerCount: 2
Fore
SplineSet
448 704 m 1,0,-1
 448 768 l 1,1,-1
 384 768 l 1,2,-1
 384 704 l 1,3,-1
 256 704 l 1,4,-1
 256 640 l 1,5,-1
 384 640 l 1,6,-1
 384 704 l 1,7,-1
 448 704 l 1,0,-1
64 512 m 1,8,-1
 64 0 l 1,9,-1
 128 0 l 1,10,-1
 128 384 l 1,11,-1
 192 384 l 1,12,-1
 192 448 l 1,13,-1
 128 448 l 1,14,-1
 128 512 l 1,15,-1
 64 512 l 1,8,-1
384 448 m 1,16,-1
 384 0 l 1,17,-1
 448 0 l 1,18,-1
 448 448 l 1,19,-1
 384 448 l 1,16,-1
192 448 m 1,20,-1
 384 448 l 1,21,-1
 384 512 l 1,22,-1
 192 512 l 1,23,-1
 192 448 l 1,20,-1
128 704 m 1,24,-1
 64 704 l 1,25,-1
 64 640 l 1,26,-1
 128 640 l 1,27,-1
 128 704 l 1,24,-1
128 704 m 1,28,-1
 256 704 l 1,29,-1
 256 768 l 1,30,-1
 128 768 l 1,31,-1
 128 704 l 1,28,-1
EndSplineSet
EndChar

StartChar: uni00A5
Encoding: 165 165 165
Width: 512
GlyphClass: 2
Flags: W
LayerCount: 2
Fore
SplineSet
448 832 m 1,0,-1
 448 896 l 1,1,-1
 384 896 l 1,2,-1
 384 832 l 1,3,-1
 256 832 l 1,4,-1
 256 768 l 1,5,-1
 384 768 l 1,6,-1
 384 832 l 1,7,-1
 448 832 l 1,0,-1
64 640 m 1,8,-1
 64 0 l 1,9,-1
 128 0 l 1,10,-1
 128 448 l 1,11,-1
 192 448 l 1,12,-1
 192 320 l 1,13,-1
 256 320 l 1,14,-1
 256 192 l 1,15,-1
 320 192 l 1,16,-1
 320 64 l 1,17,-1
 384 64 l 1,18,-1
 384 0 l 1,19,-1
 448 0 l 1,20,-1
 448 640 l 1,21,-1
 384 640 l 1,22,-1
 384 192 l 1,23,-1
 320 192 l 1,24,-1
 320 320 l 1,25,-1
 256 320 l 1,26,-1
 256 448 l 1,27,-1
 192 448 l 1,28,-1
 192 576 l 1,29,-1
 128 576 l 1,30,-1
 128 640 l 1,31,-1
 64 640 l 1,8,-1
128 832 m 1,32,-1
 64 832 l 1,33,-1
 64 768 l 1,34,-1
 128 768 l 1,35,-1
 128 832 l 1,32,-1
128 832 m 1,36,-1
 256 832 l 1,37,-1
 256 896 l 1,38,-1
 128 896 l 1,39,-1
 128 832 l 1,36,-1
EndSplineSet
EndChar

StartChar: uni00A6
Encoding: 166 166 166
Width: 512
GlyphClass: 2
Flags: W
LayerCount: 2
Fore
SplineSet
448 320 m 1,0,-1
 448 384 l 1,1,-1
 128 384 l 1,2,-1
 128 320 l 1,3,-1
 448 320 l 1,0,-1
192 512 m 1,4,-1
 192 448 l 1,5,-1
 448 448 l 1,6,-1
 448 704 l 1,7,-1
 384 704 l 1,8,-1
 384 640 l 1,9,-1
 192 640 l 1,10,-1
 192 576 l 1,11,-1
 128 576 l 1,12,-1
 128 512 l 1,13,-1
 192 512 l 1,4,-1
192 512 m 1,14,-1
 192 576 l 1,15,-1
 384 576 l 1,16,-1
 384 512 l 1,17,-1
 192 512 l 1,14,-1
384 704 m 1,18,-1
 384 768 l 1,19,-1
 192 768 l 1,20,-1
 192 704 l 1,21,-1
 384 704 l 1,18,-1
EndSplineSet
EndChar

StartChar: uni00A7
Encoding: 167 167 167
Width: 512
GlyphClass: 2
Flags: W
LayerCount: 2
Fore
SplineSet
448 320 m 1,0,-1
 448 384 l 1,1,-1
 128 384 l 1,2,-1
 128 320 l 1,3,-1
 448 320 l 1,0,-1
192 512 m 1,4,-1
 192 448 l 1,5,-1
 384 448 l 1,6,-1
 384 512 l 1,7,-1
 192 512 l 1,4,-1
192 512 m 1,8,-1
 192 704 l 1,9,-1
 128 704 l 1,10,-1
 128 512 l 1,11,-1
 192 512 l 1,8,-1
384 512 m 1,12,-1
 448 512 l 1,13,-1
 448 704 l 1,14,-1
 384 704 l 1,15,-1
 384 512 l 1,12,-1
192 704 m 1,16,-1
 384 704 l 1,17,-1
 384 768 l 1,18,-1
 192 768 l 1,19,-1
 192 704 l 1,16,-1
EndSplineSet
EndChar

StartChar: uni00A8
Encoding: 168 168 168
Width: 512
GlyphClass: 2
Flags: W
LayerCount: 2
Fore
SplineSet
128 64 m 1,0,-1
 128 0 l 1,1,-1
 384 0 l 1,2,-1
 384 64 l 1,3,-1
 128 64 l 1,0,-1
128 64 m 1,4,-1
 128 256 l 1,5,-1
 64 256 l 1,6,-1
 64 64 l 1,7,-1
 128 64 l 1,4,-1
384 64 m 1,8,-1
 448 64 l 1,9,-1
 448 256 l 1,10,-1
 384 256 l 1,11,-1
 384 64 l 1,8,-1
128 256 m 1,12,-1
 256 256 l 1,13,-1
 256 320 l 1,14,-1
 128 320 l 1,15,-1
 128 256 l 1,12,-1
256 320 m 1,16,-1
 320 320 l 1,17,-1
 320 448 l 1,18,-1
 256 448 l 1,19,-1
 256 320 l 1,16,-1
256 640 m 1,20,-1
 256 512 l 1,21,-1
 320 512 l 1,22,-1
 320 640 l 1,23,-1
 256 640 l 1,20,-1
EndSplineSet
EndChar

StartChar: uni00A9
Encoding: 169 169 169
Width: 512
GlyphClass: 2
Flags: W
LayerCount: 2
Fore
SplineSet
448 192 m 1,0,-1
 448 256 l 1,1,-1
 64 256 l 1,2,-1
 64 0 l 1,3,-1
 128 0 l 1,4,-1
 128 192 l 1,5,-1
 448 192 l 1,0,-1
EndSplineSet
EndChar

StartChar: uni00AA
Encoding: 170 170 170
Width: 512
GlyphClass: 2
Flags: W
LayerCount: 2
Fore
SplineSet
384 192 m 1,0,-1
 384 0 l 1,1,-1
 448 0 l 1,2,-1
 448 256 l 1,3,-1
 64 256 l 1,4,-1
 64 192 l 1,5,-1
 384 192 l 1,0,-1
EndSplineSet
EndChar

StartChar: uni00AB
Encoding: 171 171 171
Width: 512
GlyphClass: 2
Flags: W
LayerCount: 2
Fore
SplineSet
448 0 m 1,0,-1
 448 64 l 1,1,-1
 384 64 l 1,2,-1
 384 128 l 1,3,-1
 320 128 l 1,4,-1
 320 64 l 1,5,-1
 256 64 l 1,6,-1
 256 0 l 1,7,-1
 448 0 l 1,0,-1
64 128 m 1,8,-1
 64 0 l 1,9,-1
 128 0 l 1,10,-1
 128 128 l 1,11,-1
 64 128 l 1,8,-1
128 128 m 1,12,-1
 192 128 l 1,13,-1
 192 192 l 1,14,-1
 128 192 l 1,15,-1
 128 128 l 1,12,-1
384 128 m 1,16,-1
 448 128 l 1,17,-1
 448 256 l 1,18,-1
 384 256 l 1,19,-1
 384 128 l 1,16,-1
192 192 m 1,20,-1
 320 192 l 1,21,-1
 320 256 l 1,22,-1
 256 256 l 1,23,-1
 256 320 l 1,24,-1
 192 320 l 1,25,-1
 192 192 l 1,20,-1
320 256 m 1,26,-1
 384 256 l 1,27,-1
 384 320 l 1,28,-1
 320 320 l 1,29,-1
 320 256 l 1,26,-1
192 320 m 1,30,-1
 192 640 l 1,31,-1
 128 640 l 1,32,-1
 128 576 l 1,33,-1
 64 576 l 1,34,-1
 64 512 l 1,35,-1
 128 512 l 1,36,-1
 128 320 l 1,37,-1
 192 320 l 1,30,-1
256 320 m 1,38,-1
 320 320 l 1,39,-1
 320 448 l 1,40,-1
 256 448 l 1,41,-1
 256 320 l 1,38,-1
320 448 m 1,42,-1
 384 448 l 1,43,-1
 384 512 l 1,44,-1
 320 512 l 1,45,-1
 320 448 l 1,42,-1
384 512 m 1,46,-1
 448 512 l 1,47,-1
 448 640 l 1,48,-1
 384 640 l 1,49,-1
 384 512 l 1,46,-1
EndSplineSet
EndChar

StartChar: uni00AC
Encoding: 172 172 172
Width: 512
GlyphClass: 2
Flags: W
LayerCount: 2
Fore
SplineSet
64 128 m 1,0,-1
 64 0 l 1,1,-1
 128 0 l 1,2,-1
 128 128 l 1,3,-1
 64 128 l 1,0,-1
384 64 m 1,4,-1
 384 0 l 1,5,-1
 448 0 l 1,6,-1
 448 320 l 1,7,-1
 384 320 l 1,8,-1
 384 256 l 1,9,-1
 320 256 l 1,10,-1
 320 192 l 1,11,-1
 256 192 l 1,12,-1
 256 64 l 1,13,-1
 384 64 l 1,4,-1
128 128 m 1,14,-1
 192 128 l 1,15,-1
 192 192 l 1,16,-1
 128 192 l 1,17,-1
 128 128 l 1,14,-1
320 128 m 1,18,-1
 320 192 l 1,19,-1
 384 192 l 1,20,-1
 384 128 l 1,21,-1
 320 128 l 1,18,-1
192 192 m 1,22,-1
 256 192 l 1,23,-1
 256 320 l 1,24,-1
 192 320 l 1,25,-1
 192 192 l 1,22,-1
192 320 m 1,26,-1
 192 640 l 1,27,-1
 128 640 l 1,28,-1
 128 576 l 1,29,-1
 64 576 l 1,30,-1
 64 512 l 1,31,-1
 128 512 l 1,32,-1
 128 320 l 1,33,-1
 192 320 l 1,26,-1
256 320 m 1,34,-1
 320 320 l 1,35,-1
 320 448 l 1,36,-1
 256 448 l 1,37,-1
 256 320 l 1,34,-1
320 448 m 1,38,-1
 384 448 l 1,39,-1
 384 512 l 1,40,-1
 320 512 l 1,41,-1
 320 448 l 1,38,-1
384 512 m 1,42,-1
 448 512 l 1,43,-1
 448 640 l 1,44,-1
 384 640 l 1,45,-1
 384 512 l 1,42,-1
EndSplineSet
EndChar

StartChar: uni00AD
Encoding: 173 173 173
Width: 512
GlyphClass: 2
Flags: W
LayerCount: 2
Fore
SplineSet
256 448 m 1,0,-1
 256 0 l 1,1,-1
 320 0 l 1,2,-1
 320 448 l 1,3,-1
 256 448 l 1,0,-1
256 640 m 1,4,-1
 256 512 l 1,5,-1
 320 512 l 1,6,-1
 320 640 l 1,7,-1
 256 640 l 1,4,-1
EndSplineSet
EndChar

StartChar: uni00AE
Encoding: 174 174 174
Width: 512
GlyphClass: 2
Flags: W
LayerCount: 2
Fore
SplineSet
192 128 m 1,0,-1
 192 0 l 1,1,-1
 256 0 l 1,2,-1
 256 128 l 1,3,-1
 192 128 l 1,0,-1
384 128 m 1,4,-1
 384 0 l 1,5,-1
 448 0 l 1,6,-1
 448 128 l 1,7,-1
 384 128 l 1,4,-1
192 128 m 1,8,-1
 192 256 l 1,9,-1
 128 256 l 1,10,-1
 128 128 l 1,11,-1
 192 128 l 1,8,-1
384 128 m 1,12,-1
 384 256 l 1,13,-1
 320 256 l 1,14,-1
 320 128 l 1,15,-1
 384 128 l 1,12,-1
128 256 m 1,16,-1
 128 320 l 1,17,-1
 64 320 l 1,18,-1
 64 256 l 1,19,-1
 128 256 l 1,16,-1
320 256 m 1,20,-1
 320 320 l 1,21,-1
 256 320 l 1,22,-1
 256 256 l 1,23,-1
 320 256 l 1,20,-1
128 320 m 1,24,-1
 192 320 l 1,25,-1
 192 448 l 1,26,-1
 128 448 l 1,27,-1
 128 320 l 1,24,-1
320 320 m 1,28,-1
 384 320 l 1,29,-1
 384 448 l 1,30,-1
 320 448 l 1,31,-1
 320 320 l 1,28,-1
192 448 m 1,32,-1
 256 448 l 1,33,-1
 256 576 l 1,34,-1
 192 576 l 1,35,-1
 192 448 l 1,32,-1
384 448 m 1,36,-1
 448 448 l 1,37,-1
 448 576 l 1,38,-1
 384 576 l 1,39,-1
 384 448 l 1,36,-1
EndSplineSet
EndChar

StartChar: uni00AF
Encoding: 175 175 175
Width: 512
GlyphClass: 2
Flags: W
LayerCount: 2
Fore
SplineSet
256 256 m 1,0,-1
 256 320 l 1,1,-1
 192 320 l 1,2,-1
 192 256 l 1,3,-1
 128 256 l 1,4,-1
 128 128 l 1,5,-1
 64 128 l 1,6,-1
 64 0 l 1,7,-1
 128 0 l 1,8,-1
 128 128 l 1,9,-1
 192 128 l 1,10,-1
 192 256 l 1,11,-1
 256 256 l 1,0,-1
448 256 m 1,12,-1
 448 320 l 1,13,-1
 384 320 l 1,14,-1
 384 256 l 1,15,-1
 320 256 l 1,16,-1
 320 128 l 1,17,-1
 256 128 l 1,18,-1
 256 0 l 1,19,-1
 320 0 l 1,20,-1
 320 128 l 1,21,-1
 384 128 l 1,22,-1
 384 256 l 1,23,-1
 448 256 l 1,12,-1
192 320 m 1,24,-1
 192 448 l 1,25,-1
 128 448 l 1,26,-1
 128 320 l 1,27,-1
 192 320 l 1,24,-1
384 320 m 1,28,-1
 384 448 l 1,29,-1
 320 448 l 1,30,-1
 320 320 l 1,31,-1
 384 320 l 1,28,-1
128 448 m 1,32,-1
 128 576 l 1,33,-1
 64 576 l 1,34,-1
 64 448 l 1,35,-1
 128 448 l 1,32,-1
320 448 m 1,36,-1
 320 576 l 1,37,-1
 256 576 l 1,38,-1
 256 448 l 1,39,-1
 320 448 l 1,36,-1
EndSplineSet
EndChar

StartChar: uni00B0
Encoding: 176 176 176
Width: 512
GlyphClass: 2
Flags: W
LayerCount: 2
Fore
SplineSet
192 -128 m 1,0,-1
 192 -64 l 1,1,-1
 128 -64 l 1,2,-1
 128 -128 l 1,3,-1
 192 -128 l 1,0,-1
448 -128 m 1,4,-1
 448 -64 l 1,5,-1
 384 -64 l 1,6,-1
 384 -128 l 1,7,-1
 448 -128 l 1,4,-1
64 -64 m 1,8,-1
 64 0 l 1,9,-1
 0 0 l 1,10,-1
 0 -64 l 1,11,-1
 64 -64 l 1,8,-1
320 -64 m 1,12,-1
 320 0 l 1,13,-1
 256 0 l 1,14,-1
 256 -64 l 1,15,-1
 320 -64 l 1,12,-1
192 0 m 1,16,-1
 192 64 l 1,17,-1
 128 64 l 1,18,-1
 128 0 l 1,19,-1
 192 0 l 1,16,-1
448 0 m 1,20,-1
 448 64 l 1,21,-1
 384 64 l 1,22,-1
 384 0 l 1,23,-1
 448 0 l 1,20,-1
64 64 m 1,24,-1
 64 128 l 1,25,-1
 0 128 l 1,26,-1
 0 64 l 1,27,-1
 64 64 l 1,24,-1
320 64 m 1,28,-1
 320 128 l 1,29,-1
 256 128 l 1,30,-1
 256 64 l 1,31,-1
 320 64 l 1,28,-1
192 128 m 1,32,-1
 192 192 l 1,33,-1
 128 192 l 1,34,-1
 128 128 l 1,35,-1
 192 128 l 1,32,-1
448 128 m 1,36,-1
 448 192 l 1,37,-1
 384 192 l 1,38,-1
 384 128 l 1,39,-1
 448 128 l 1,36,-1
64 192 m 1,40,-1
 64 256 l 1,41,-1
 0 256 l 1,42,-1
 0 192 l 1,43,-1
 64 192 l 1,40,-1
320 192 m 1,44,-1
 320 256 l 1,45,-1
 256 256 l 1,46,-1
 256 192 l 1,47,-1
 320 192 l 1,44,-1
192 256 m 1,48,-1
 192 320 l 1,49,-1
 128 320 l 1,50,-1
 128 256 l 1,51,-1
 192 256 l 1,48,-1
448 256 m 1,52,-1
 448 320 l 1,53,-1
 384 320 l 1,54,-1
 384 256 l 1,55,-1
 448 256 l 1,52,-1
64 320 m 1,56,-1
 64 384 l 1,57,-1
 0 384 l 1,58,-1
 0 320 l 1,59,-1
 64 320 l 1,56,-1
320 320 m 1,60,-1
 320 384 l 1,61,-1
 256 384 l 1,62,-1
 256 320 l 1,63,-1
 320 320 l 1,60,-1
192 384 m 1,64,-1
 192 448 l 1,65,-1
 128 448 l 1,66,-1
 128 384 l 1,67,-1
 192 384 l 1,64,-1
448 384 m 1,68,-1
 448 448 l 1,69,-1
 384 448 l 1,70,-1
 384 384 l 1,71,-1
 448 384 l 1,68,-1
64 448 m 1,72,-1
 64 512 l 1,73,-1
 0 512 l 1,74,-1
 0 448 l 1,75,-1
 64 448 l 1,72,-1
320 448 m 1,76,-1
 320 512 l 1,77,-1
 256 512 l 1,78,-1
 256 448 l 1,79,-1
 320 448 l 1,76,-1
192 512 m 1,80,-1
 192 576 l 1,81,-1
 128 576 l 1,82,-1
 128 512 l 1,83,-1
 192 512 l 1,80,-1
448 512 m 1,84,-1
 448 576 l 1,85,-1
 384 576 l 1,86,-1
 384 512 l 1,87,-1
 448 512 l 1,84,-1
64 576 m 1,88,-1
 64 640 l 1,89,-1
 0 640 l 1,90,-1
 0 576 l 1,91,-1
 64 576 l 1,88,-1
320 576 m 1,92,-1
 320 640 l 1,93,-1
 256 640 l 1,94,-1
 256 576 l 1,95,-1
 320 576 l 1,92,-1
192 640 m 1,96,-1
 192 704 l 1,97,-1
 128 704 l 1,98,-1
 128 640 l 1,99,-1
 192 640 l 1,96,-1
448 640 m 1,100,-1
 448 704 l 1,101,-1
 384 704 l 1,102,-1
 384 640 l 1,103,-1
 448 640 l 1,100,-1
64 704 m 1,104,-1
 64 768 l 1,105,-1
 0 768 l 1,106,-1
 0 704 l 1,107,-1
 64 704 l 1,104,-1
320 704 m 1,108,-1
 320 768 l 1,109,-1
 256 768 l 1,110,-1
 256 704 l 1,111,-1
 320 704 l 1,108,-1
192 768 m 1,112,-1
 192 832 l 1,113,-1
 128 832 l 1,114,-1
 128 768 l 1,115,-1
 192 768 l 1,112,-1
448 768 m 1,116,-1
 448 832 l 1,117,-1
 384 832 l 1,118,-1
 384 768 l 1,119,-1
 448 768 l 1,116,-1
64 832 m 1,120,-1
 64 896 l 1,121,-1
 0 896 l 1,122,-1
 0 832 l 1,123,-1
 64 832 l 1,120,-1
320 832 m 1,124,-1
 320 896 l 1,125,-1
 256 896 l 1,126,-1
 256 832 l 1,127,-1
 320 832 l 1,124,-1
EndSplineSet
EndChar

StartChar: uni00B1
Encoding: 177 177 177
Width: 512
GlyphClass: 2
Flags: W
LayerCount: 2
Fore
SplineSet
512 -128 m 1,0,-1
 512 -64 l 1,1,-1
 448 -64 l 1,2,-1
 448 -128 l 1,3,-1
 512 -128 l 1,0,-1
512 0 m 1,4,-1
 512 64 l 1,5,-1
 448 64 l 1,6,-1
 448 0 l 1,7,-1
 384 0 l 1,8,-1
 384 -64 l 1,9,-1
 320 -64 l 1,10,-1
 320 -128 l 1,11,-1
 384 -128 l 1,12,-1
 384 -64 l 1,13,-1
 448 -64 l 1,14,-1
 448 0 l 1,15,-1
 512 0 l 1,4,-1
512 128 m 1,16,-1
 512 192 l 1,17,-1
 448 192 l 1,18,-1
 448 128 l 1,19,-1
 384 128 l 1,20,-1
 384 64 l 1,21,-1
 320 64 l 1,22,-1
 320 0 l 1,23,-1
 256 0 l 1,24,-1
 256 -64 l 1,25,-1
 192 -64 l 1,26,-1
 192 -128 l 1,27,-1
 256 -128 l 1,28,-1
 256 -64 l 1,29,-1
 320 -64 l 1,30,-1
 320 0 l 1,31,-1
 384 0 l 1,32,-1
 384 64 l 1,33,-1
 448 64 l 1,34,-1
 448 128 l 1,35,-1
 512 128 l 1,16,-1
512 256 m 1,36,-1
 512 320 l 1,37,-1
 448 320 l 1,38,-1
 448 256 l 1,39,-1
 384 256 l 1,40,-1
 384 192 l 1,41,-1
 320 192 l 1,42,-1
 320 128 l 1,43,-1
 256 128 l 1,44,-1
 256 64 l 1,45,-1
 192 64 l 1,46,-1
 192 0 l 1,47,-1
 128 0 l 1,48,-1
 128 -64 l 1,49,-1
 64 -64 l 1,50,-1
 64 -128 l 1,51,-1
 128 -128 l 1,52,-1
 128 -64 l 1,53,-1
 192 -64 l 1,54,-1
 192 0 l 1,55,-1
 256 0 l 1,56,-1
 256 64 l 1,57,-1
 320 64 l 1,58,-1
 320 128 l 1,59,-1
 384 128 l 1,60,-1
 384 192 l 1,61,-1
 448 192 l 1,62,-1
 448 256 l 1,63,-1
 512 256 l 1,36,-1
512 384 m 1,64,-1
 512 448 l 1,65,-1
 448 448 l 1,66,-1
 448 384 l 1,67,-1
 384 384 l 1,68,-1
 384 320 l 1,69,-1
 320 320 l 1,70,-1
 320 256 l 1,71,-1
 256 256 l 1,72,-1
 256 192 l 1,73,-1
 192 192 l 1,74,-1
 192 128 l 1,75,-1
 128 128 l 1,76,-1
 128 64 l 1,77,-1
 64 64 l 1,78,-1
 64 0 l 1,79,-1
 0 0 l 1,80,-1
 0 -64 l 1,81,-1
 64 -64 l 1,82,-1
 64 0 l 1,83,-1
 128 0 l 1,84,-1
 128 64 l 1,85,-1
 192 64 l 1,86,-1
 192 128 l 1,87,-1
 256 128 l 1,88,-1
 256 192 l 1,89,-1
 320 192 l 1,90,-1
 320 256 l 1,91,-1
 384 256 l 1,92,-1
 384 320 l 1,93,-1
 448 320 l 1,94,-1
 448 384 l 1,95,-1
 512 384 l 1,64,-1
512 512 m 1,96,-1
 512 576 l 1,97,-1
 448 576 l 1,98,-1
 448 512 l 1,99,-1
 384 512 l 1,100,-1
 384 448 l 1,101,-1
 320 448 l 1,102,-1
 320 384 l 1,103,-1
 256 384 l 1,104,-1
 256 320 l 1,105,-1
 192 320 l 1,106,-1
 192 256 l 1,107,-1
 128 256 l 1,108,-1
 128 192 l 1,109,-1
 64 192 l 1,110,-1
 64 128 l 1,111,-1
 0 128 l 1,112,-1
 0 64 l 1,113,-1
 64 64 l 1,114,-1
 64 128 l 1,115,-1
 128 128 l 1,116,-1
 128 192 l 1,117,-1
 192 192 l 1,118,-1
 192 256 l 1,119,-1
 256 256 l 1,120,-1
 256 320 l 1,121,-1
 320 320 l 1,122,-1
 320 384 l 1,123,-1
 384 384 l 1,124,-1
 384 448 l 1,125,-1
 448 448 l 1,126,-1
 448 512 l 1,127,-1
 512 512 l 1,96,-1
512 640 m 1,128,-1
 512 704 l 1,129,-1
 448 704 l 1,130,-1
 448 640 l 1,131,-1
 384 640 l 1,132,-1
 384 576 l 1,133,-1
 320 576 l 1,134,-1
 320 512 l 1,135,-1
 256 512 l 1,136,-1
 256 448 l 1,137,-1
 192 448 l 1,138,-1
 192 384 l 1,139,-1
 128 384 l 1,140,-1
 128 320 l 1,141,-1
 64 320 l 1,142,-1
 64 256 l 1,143,-1
 0 256 l 1,144,-1
 0 192 l 1,145,-1
 64 192 l 1,146,-1
 64 256 l 1,147,-1
 128 256 l 1,148,-1
 128 320 l 1,149,-1
 192 320 l 1,150,-1
 192 384 l 1,151,-1
 256 384 l 1,152,-1
 256 448 l 1,153,-1
 320 448 l 1,154,-1
 320 512 l 1,155,-1
 384 512 l 1,156,-1
 384 576 l 1,157,-1
 448 576 l 1,158,-1
 448 640 l 1,159,-1
 512 640 l 1,128,-1
512 768 m 1,160,-1
 512 832 l 1,161,-1
 448 832 l 1,162,-1
 448 768 l 1,163,-1
 384 768 l 1,164,-1
 384 704 l 1,165,-1
 320 704 l 1,166,-1
 320 640 l 1,167,-1
 256 640 l 1,168,-1
 256 576 l 1,169,-1
 192 576 l 1,170,-1
 192 512 l 1,171,-1
 128 512 l 1,172,-1
 128 448 l 1,173,-1
 64 448 l 1,174,-1
 64 384 l 1,175,-1
 0 384 l 1,176,-1
 0 320 l 1,177,-1
 64 320 l 1,178,-1
 64 384 l 1,179,-1
 128 384 l 1,180,-1
 128 448 l 1,181,-1
 192 448 l 1,182,-1
 192 512 l 1,183,-1
 256 512 l 1,184,-1
 256 576 l 1,185,-1
 320 576 l 1,186,-1
 320 640 l 1,187,-1
 384 640 l 1,188,-1
 384 704 l 1,189,-1
 448 704 l 1,190,-1
 448 768 l 1,191,-1
 512 768 l 1,160,-1
64 448 m 1,192,-1
 64 512 l 1,193,-1
 0 512 l 1,194,-1
 0 448 l 1,195,-1
 64 448 l 1,192,-1
64 512 m 1,196,-1
 128 512 l 1,197,-1
 128 576 l 1,198,-1
 64 576 l 1,199,-1
 64 512 l 1,196,-1
64 576 m 1,200,-1
 64 640 l 1,201,-1
 0 640 l 1,202,-1
 0 576 l 1,203,-1
 64 576 l 1,200,-1
128 576 m 1,204,-1
 192 576 l 1,205,-1
 192 640 l 1,206,-1
 128 640 l 1,207,-1
 128 576 l 1,204,-1
64 640 m 1,208,-1
 128 640 l 1,209,-1
 128 704 l 1,210,-1
 64 704 l 1,211,-1
 64 640 l 1,208,-1
192 640 m 1,212,-1
 256 640 l 1,213,-1
 256 704 l 1,214,-1
 192 704 l 1,215,-1
 192 640 l 1,212,-1
64 704 m 1,216,-1
 64 768 l 1,217,-1
 0 768 l 1,218,-1
 0 704 l 1,219,-1
 64 704 l 1,216,-1
128 704 m 1,220,-1
 192 704 l 1,221,-1
 192 768 l 1,222,-1
 128 768 l 1,223,-1
 128 704 l 1,220,-1
256 704 m 1,224,-1
 320 704 l 1,225,-1
 320 768 l 1,226,-1
 256 768 l 1,227,-1
 256 704 l 1,224,-1
64 768 m 1,228,-1
 128 768 l 1,229,-1
 128 832 l 1,230,-1
 64 832 l 1,231,-1
 64 768 l 1,228,-1
192 768 m 1,232,-1
 256 768 l 1,233,-1
 256 832 l 1,234,-1
 192 832 l 1,235,-1
 192 768 l 1,232,-1
320 768 m 1,236,-1
 384 768 l 1,237,-1
 384 832 l 1,238,-1
 320 832 l 1,239,-1
 320 768 l 1,236,-1
64 832 m 1,240,-1
 64 896 l 1,241,-1
 0 896 l 1,242,-1
 0 832 l 1,243,-1
 64 832 l 1,240,-1
128 832 m 1,244,-1
 192 832 l 1,245,-1
 192 896 l 1,246,-1
 128 896 l 1,247,-1
 128 832 l 1,244,-1
256 832 m 1,248,-1
 320 832 l 1,249,-1
 320 896 l 1,250,-1
 256 896 l 1,251,-1
 256 832 l 1,248,-1
384 832 m 1,252,-1
 448 832 l 1,253,-1
 448 896 l 1,254,-1
 384 896 l 1,255,-1
 384 832 l 1,252,-1
EndSplineSet
EndChar

StartChar: uni00B2
Encoding: 178 178 178
Width: 512
GlyphClass: 2
Flags: W
LayerCount: 2
Fore
SplineSet
512 -128 m 1,0,-1
 512 -64 l 1,1,-1
 448 -64 l 1,2,-1
 448 0 l 1,3,-1
 512 0 l 1,4,-1
 512 64 l 1,5,-1
 448 64 l 1,6,-1
 448 128 l 1,7,-1
 512 128 l 1,8,-1
 512 192 l 1,9,-1
 448 192 l 1,10,-1
 448 256 l 1,11,-1
 512 256 l 1,12,-1
 512 320 l 1,13,-1
 448 320 l 1,14,-1
 448 384 l 1,15,-1
 512 384 l 1,16,-1
 512 448 l 1,17,-1
 448 448 l 1,18,-1
 448 512 l 1,19,-1
 512 512 l 1,20,-1
 512 576 l 1,21,-1
 448 576 l 1,22,-1
 448 640 l 1,23,-1
 512 640 l 1,24,-1
 512 704 l 1,25,-1
 448 704 l 1,26,-1
 448 768 l 1,27,-1
 512 768 l 1,28,-1
 512 832 l 1,29,-1
 448 832 l 1,30,-1
 448 896 l 1,31,-1
 256 896 l 1,32,-1
 256 832 l 1,33,-1
 192 832 l 1,34,-1
 192 896 l 1,35,-1
 0 896 l 1,36,-1
 0 -128 l 1,37,-1
 64 -128 l 1,38,-1
 64 -64 l 1,39,-1
 128 -64 l 1,40,-1
 128 -128 l 1,41,-1
 320 -128 l 1,42,-1
 320 -64 l 1,43,-1
 384 -64 l 1,44,-1
 384 -128 l 1,45,-1
 512 -128 l 1,0,-1
192 -64 m 1,46,-1
 192 0 l 1,47,-1
 256 0 l 1,48,-1
 256 -64 l 1,49,-1
 192 -64 l 1,46,-1
64 0 m 1,50,-1
 64 64 l 1,51,-1
 128 64 l 1,52,-1
 128 0 l 1,53,-1
 64 0 l 1,50,-1
320 0 m 1,54,-1
 320 64 l 1,55,-1
 384 64 l 1,56,-1
 384 0 l 1,57,-1
 320 0 l 1,54,-1
192 64 m 1,58,-1
 192 128 l 1,59,-1
 256 128 l 1,60,-1
 256 64 l 1,61,-1
 192 64 l 1,58,-1
64 128 m 1,62,-1
 64 192 l 1,63,-1
 128 192 l 1,64,-1
 128 128 l 1,65,-1
 64 128 l 1,62,-1
320 128 m 1,66,-1
 320 192 l 1,67,-1
 384 192 l 1,68,-1
 384 128 l 1,69,-1
 320 128 l 1,66,-1
192 192 m 1,70,-1
 192 256 l 1,71,-1
 256 256 l 1,72,-1
 256 192 l 1,73,-1
 192 192 l 1,70,-1
64 256 m 1,74,-1
 64 320 l 1,75,-1
 128 320 l 1,76,-1
 128 256 l 1,77,-1
 64 256 l 1,74,-1
320 256 m 1,78,-1
 320 320 l 1,79,-1
 384 320 l 1,80,-1
 384 256 l 1,81,-1
 320 256 l 1,78,-1
192 320 m 1,82,-1
 192 384 l 1,83,-1
 256 384 l 1,84,-1
 256 320 l 1,85,-1
 192 320 l 1,82,-1
64 384 m 1,86,-1
 64 448 l 1,87,-1
 128 448 l 1,88,-1
 128 384 l 1,89,-1
 64 384 l 1,86,-1
320 384 m 1,90,-1
 320 448 l 1,91,-1
 384 448 l 1,92,-1
 384 384 l 1,93,-1
 320 384 l 1,90,-1
192 448 m 1,94,-1
 192 512 l 1,95,-1
 256 512 l 1,96,-1
 256 448 l 1,97,-1
 192 448 l 1,94,-1
64 512 m 1,98,-1
 64 576 l 1,99,-1
 128 576 l 1,100,-1
 128 512 l 1,101,-1
 64 512 l 1,98,-1
320 512 m 1,102,-1
 320 576 l 1,103,-1
 384 576 l 1,104,-1
 384 512 l 1,105,-1
 320 512 l 1,102,-1
192 576 m 1,106,-1
 192 640 l 1,107,-1
 256 640 l 1,108,-1
 256 576 l 1,109,-1
 192 576 l 1,106,-1
64 640 m 1,110,-1
 64 704 l 1,111,-1
 128 704 l 1,112,-1
 128 640 l 1,113,-1
 64 640 l 1,110,-1
320 640 m 1,114,-1
 320 704 l 1,115,-1
 384 704 l 1,116,-1
 384 640 l 1,117,-1
 320 640 l 1,114,-1
192 704 m 1,118,-1
 192 768 l 1,119,-1
 256 768 l 1,120,-1
 256 704 l 1,121,-1
 192 704 l 1,118,-1
64 768 m 1,122,-1
 64 832 l 1,123,-1
 128 832 l 1,124,-1
 128 768 l 1,125,-1
 64 768 l 1,122,-1
320 768 m 1,126,-1
 320 832 l 1,127,-1
 384 832 l 1,128,-1
 384 768 l 1,129,-1
 320 768 l 1,126,-1
EndSplineSet
EndChar

StartChar: uni00B3
Encoding: 179 179 179
Width: 512
GlyphClass: 2
Flags: W
LayerCount: 2
Fore
SplineSet
256 896 m 1,0,1
 256 896 256 896 256 -128 c 1,2,-1
 320 -128 l 1,3,4
 320 -128 320 -128 320 896 c 1,5,-1
 256 896 l 1,0,1
EndSplineSet
EndChar

StartChar: uni00B4
Encoding: 180 180 180
Width: 512
GlyphClass: 2
Flags: W
LayerCount: 2
Fore
SplineSet
256 384 m 1,0,1
 256 384 256 384 256 -128 c 1,2,-1
 320 -128 l 1,3,4
 320 -128 320 -128 320 896 c 1,5,-1
 256 896 l 1,6,-1
 256 448 l 1,7,-1
 0 448 l 1,8,-1
 0 384 l 1,9,-1
 256 384 l 1,0,1
EndSplineSet
EndChar

StartChar: uni00B5
Encoding: 181 181 181
Width: 512
GlyphClass: 2
Flags: W
LayerCount: 2
Fore
SplineSet
256 320 m 1,0,-1
 256 -128 l 1,1,-1
 320 -128 l 1,2,-1
 320 896 l 1,3,-1
 256 896 l 1,4,-1
 256 512 l 1,5,-1
 0 512 l 1,6,-1
 0 448 l 1,7,-1
 256 448 l 1,8,-1
 256 384 l 1,9,-1
 0 384 l 1,10,-1
 0 320 l 1,11,-1
 256 320 l 1,0,-1
EndSplineSet
EndChar

StartChar: uni00B6
Encoding: 182 182 182
Width: 512
GlyphClass: 2
Flags: W
LayerCount: 2
Fore
SplineSet
192 384 m 1,0,-1
 192 -128 l 1,1,-1
 256 -128 l 1,2,-1
 256 896 l 1,3,-1
 192 896 l 1,4,-1
 192 448 l 1,5,-1
 0 448 l 1,6,-1
 0 384 l 1,7,-1
 192 384 l 1,0,-1
320 896 m 1,8,-1
 320 -128 l 1,9,-1
 384 -128 l 1,10,-1
 384 896 l 1,11,-1
 320 896 l 1,8,-1
EndSplineSet
EndChar

StartChar: uni00B7
Encoding: 183 183 183
Width: 512
GlyphClass: 2
Flags: W
LayerCount: 2
Fore
SplineSet
192 384 m 1,0,-1
 192 -128 l 1,1,-1
 256 -128 l 1,2,-1
 256 384 l 1,3,-1
 320 384 l 1,4,-1
 320 -128 l 1,5,-1
 384 -128 l 1,6,-1
 384 448 l 1,7,-1
 0 448 l 1,8,-1
 0 384 l 1,9,-1
 192 384 l 1,0,-1
EndSplineSet
EndChar

StartChar: uni00B8
Encoding: 184 184 184
Width: 512
GlyphClass: 2
Flags: W
LayerCount: 2
Fore
SplineSet
256 320 m 1,0,-1
 256 -128 l 1,1,-1
 320 -128 l 1,2,-1
 320 512 l 1,3,-1
 0 512 l 1,4,-1
 0 448 l 1,5,-1
 256 448 l 1,6,-1
 256 384 l 1,7,-1
 0 384 l 1,8,-1
 0 320 l 1,9,-1
 256 320 l 1,0,-1
EndSplineSet
EndChar

StartChar: uni00B9
Encoding: 185 185 185
Width: 512
GlyphClass: 2
Flags: W
LayerCount: 2
Fore
SplineSet
192 320 m 1,0,-1
 192 -128 l 1,1,-1
 256 -128 l 1,2,3
 256 -128 256 -128 256 384 c 1,4,-1
 0 384 l 1,5,-1
 0 320 l 1,6,-1
 192 320 l 1,0,-1
320 896 m 1,7,8
 320 896 320 896 320 -128 c 1,9,-1
 384 -128 l 1,10,11
 384 -128 384 -128 384 896 c 1,12,-1
 320 896 l 1,7,8
192 512 m 1,13,-1
 0 512 l 1,14,-1
 0 448 l 1,15,-1
 256 448 l 1,16,-1
 256 896 l 1,17,-1
 192 896 l 1,18,19
 192 896 192 896 192 512 c 1,13,-1
EndSplineSet
EndChar

StartChar: uni00BA
Encoding: 186 186 186
Width: 512
GlyphClass: 2
Flags: W
LayerCount: 2
Fore
SplineSet
192 896 m 1,0,1
 192 896 192 896 192 -128 c 1,2,-1
 256 -128 l 1,3,4
 256 -128 256 -128 256 896 c 1,5,-1
 192 896 l 1,0,1
320 896 m 1,6,7
 320 896 320 896 320 -128 c 1,8,-1
 384 -128 l 1,9,10
 384 -128 384 -128 384 896 c 1,11,-1
 320 896 l 1,6,7
EndSplineSet
EndChar

StartChar: uni00BB
Encoding: 187 187 187
Width: 512
GlyphClass: 2
Flags: W
LayerCount: 2
Fore
SplineSet
192 320 m 1,0,-1
 192 -128 l 1,1,-1
 256 -128 l 1,2,3
 256 -128 256 -128 256 384 c 1,4,-1
 0 384 l 1,5,-1
 0 320 l 1,6,-1
 192 320 l 1,0,-1
320 448 m 1,7,-1
 320 -128 l 1,8,-1
 384 -128 l 1,9,10
 384 -128 384 -128 384 512 c 1,11,-1
 0 512 l 1,12,-1
 0 448 l 1,13,-1
 320 448 l 1,7,-1
EndSplineSet
EndChar

StartChar: uni00BC
Encoding: 188 188 188
Width: 512
GlyphClass: 2
Flags: W
LayerCount: 2
Fore
SplineSet
320 384 m 1,0,-1
 0 384 l 1,1,-1
 0 320 l 1,2,-1
 384 320 l 1,3,-1
 384 896 l 1,4,-1
 320 896 l 1,5,6
 320 896 320 896 320 384 c 1,0,-1
192 512 m 1,7,-1
 0 512 l 1,8,-1
 0 448 l 1,9,-1
 256 448 l 1,10,-1
 256 896 l 1,11,-1
 192 896 l 1,12,13
 192 896 192 896 192 512 c 1,7,-1
EndSplineSet
EndChar

StartChar: uni00BD
Encoding: 189 189 189
Width: 512
GlyphClass: 2
Flags: W
LayerCount: 2
Fore
SplineSet
192 448 m 1,0,-1
 0 448 l 1,1,-1
 0 384 l 1,2,-1
 384 384 l 1,3,-1
 384 896 l 1,4,-1
 320 896 l 1,5,-1
 320 448 l 1,6,-1
 256 448 l 1,7,-1
 256 896 l 1,8,-1
 192 896 l 1,9,-1
 192 448 l 1,0,-1
EndSplineSet
EndChar

StartChar: uni00BE
Encoding: 190 190 190
Width: 512
GlyphClass: 2
Flags: W
LayerCount: 2
Fore
SplineSet
256 384 m 1,0,-1
 0 384 l 1,1,-1
 0 320 l 1,2,-1
 320 320 l 1,3,-1
 320 896 l 1,4,-1
 256 896 l 1,5,-1
 256 512 l 1,6,-1
 0 512 l 1,7,-1
 0 448 l 1,8,-1
 256 448 l 1,9,-1
 256 384 l 1,0,-1
EndSplineSet
EndChar

StartChar: uni00BF
Encoding: 191 191 191
Width: 512
GlyphClass: 2
Flags: W
LayerCount: 2
Fore
SplineSet
256 384 m 1,0,1
 256 384 256 384 256 -128 c 1,2,-1
 320 -128 l 1,3,-1
 320 448 l 1,4,-1
 0 448 l 1,5,-1
 0 384 l 1,6,-1
 256 384 l 1,0,1
EndSplineSet
EndChar

StartChar: uni00C0
Encoding: 192 192 192
Width: 512
GlyphClass: 2
Flags: W
LayerCount: 2
Fore
SplineSet
512 384 m 1,0,-1
 512 448 l 1,1,-1
 320 448 l 1,2,-1
 320 896 l 1,3,-1
 256 896 l 1,4,5
 256 896 256 896 256 384 c 1,6,-1
 512 384 l 1,0,-1
EndSplineSet
EndChar

StartChar: uni00C1
Encoding: 193 193 193
Width: 512
GlyphClass: 2
Flags: W
LayerCount: 2
Fore
SplineSet
512 384 m 1,0,-1
 512 448 l 1,1,-1
 320 448 l 1,2,-1
 320 896 l 1,3,-1
 256 896 l 1,4,-1
 256 448 l 1,5,-1
 0 448 l 1,6,-1
 0 384 l 1,7,-1
 512 384 l 1,0,-1
EndSplineSet
EndChar

StartChar: uni00C2
Encoding: 194 194 194
Width: 512
GlyphClass: 2
Flags: W
LayerCount: 2
Fore
SplineSet
512 384 m 1,0,-1
 512 448 l 1,1,-1
 0 448 l 1,2,-1
 0 384 l 1,3,-1
 256 384 l 1,4,5
 256 384 256 384 256 -128 c 1,6,-1
 320 -128 l 1,7,8
 320 -128 320 -128 320 384 c 1,9,-1
 512 384 l 1,0,-1
EndSplineSet
EndChar

StartChar: uni00C3
Encoding: 195 195 195
Width: 512
GlyphClass: 2
Flags: W
LayerCount: 2
Fore
SplineSet
512 384 m 1,0,-1
 512 448 l 1,1,-1
 320 448 l 1,2,-1
 320 896 l 1,3,-1
 256 896 l 1,4,5
 256 896 256 896 256 -128 c 1,6,-1
 320 -128 l 1,7,8
 320 -128 320 -128 320 384 c 1,9,-1
 512 384 l 1,0,-1
EndSplineSet
EndChar

StartChar: uni00C4
Encoding: 196 196 196
Width: 512
GlyphClass: 2
Flags: W
LayerCount: 2
Fore
SplineSet
512 384 m 1,0,-1
 512 448 l 1,1,-1
 0 448 l 1,2,-1
 0 384 l 1,3,-1
 512 384 l 1,0,-1
EndSplineSet
EndChar

StartChar: uni00C5
Encoding: 197 197 197
Width: 512
GlyphClass: 2
Flags: W
LayerCount: 2
Fore
SplineSet
512 384 m 1,0,-1
 512 448 l 1,1,-1
 320 448 l 1,2,-1
 320 896 l 1,3,-1
 256 896 l 1,4,-1
 256 448 l 1,5,-1
 0 448 l 1,6,-1
 0 384 l 1,7,-1
 256 384 l 1,8,9
 256 384 256 384 256 -128 c 1,10,-1
 320 -128 l 1,11,12
 320 -128 320 -128 320 384 c 1,13,-1
 512 384 l 1,0,-1
EndSplineSet
EndChar

StartChar: uni00C6
Encoding: 198 198 198
Width: 512
GlyphClass: 2
Flags: W
LayerCount: 2
Fore
SplineSet
512 320 m 1,0,-1
 512 384 l 1,1,-1
 320 384 l 1,2,-1
 320 448 l 1,3,-1
 512 448 l 1,4,-1
 512 512 l 1,5,-1
 320 512 l 1,6,-1
 320 896 l 1,7,-1
 256 896 l 1,8,-1
 256 -128 l 1,9,-1
 320 -128 l 1,10,-1
 320 320 l 1,11,-1
 512 320 l 1,0,-1
EndSplineSet
EndChar

StartChar: uni00C7
Encoding: 199 199 199
Width: 512
GlyphClass: 2
Flags: W
LayerCount: 2
Fore
SplineSet
512 384 m 1,0,-1
 512 448 l 1,1,-1
 384 448 l 1,2,-1
 384 896 l 1,3,-1
 320 896 l 1,4,-1
 320 -128 l 1,5,-1
 384 -128 l 1,6,-1
 384 384 l 1,7,-1
 512 384 l 1,0,-1
192 896 m 1,8,-1
 192 -128 l 1,9,-1
 256 -128 l 1,10,-1
 256 896 l 1,11,-1
 192 896 l 1,8,-1
EndSplineSet
EndChar

StartChar: uni00C8
Encoding: 200 200 200
Width: 512
GlyphClass: 2
Flags: W
LayerCount: 2
Fore
SplineSet
512 320 m 1,0,-1
 512 384 l 1,1,-1
 256 384 l 1,2,3
 256 384 256 384 256 896 c 1,4,-1
 192 896 l 1,5,-1
 192 320 l 1,6,-1
 512 320 l 1,0,-1
512 448 m 1,7,-1
 512 512 l 1,8,-1
 384 512 l 1,9,10
 384 512 384 512 384 896 c 1,11,-1
 320 896 l 1,12,-1
 320 448 l 1,13,-1
 512 448 l 1,7,-1
EndSplineSet
EndChar

StartChar: uni00C9
Encoding: 201 201 201
Width: 512
GlyphClass: 2
Flags: W
LayerCount: 2
Fore
SplineSet
512 320 m 1,0,-1
 512 384 l 1,1,-1
 320 384 l 1,2,3
 320 384 320 384 320 -128 c 1,4,-1
 384 -128 l 1,5,-1
 384 320 l 1,6,-1
 512 320 l 1,0,-1
512 448 m 1,7,-1
 512 512 l 1,8,-1
 192 512 l 1,9,10
 192 512 192 512 192 -128 c 1,11,-1
 256 -128 l 1,12,-1
 256 448 l 1,13,-1
 512 448 l 1,7,-1
EndSplineSet
EndChar

StartChar: uni00CA
Encoding: 202 202 202
Width: 512
GlyphClass: 2
Flags: W
LayerCount: 2
Fore
SplineSet
512 320 m 1,0,-1
 512 384 l 1,1,-1
 0 384 l 1,2,-1
 0 320 l 1,3,-1
 512 320 l 1,0,-1
512 448 m 1,4,-1
 512 512 l 1,5,-1
 384 512 l 1,6,7
 384 512 384 512 384 896 c 1,8,-1
 320 896 l 1,9,-1
 320 448 l 1,10,-1
 512 448 l 1,4,-1
192 512 m 1,11,-1
 0 512 l 1,12,-1
 0 448 l 1,13,-1
 256 448 l 1,14,-1
 256 896 l 1,15,-1
 192 896 l 1,16,17
 192 896 192 896 192 512 c 1,11,-1
EndSplineSet
EndChar

StartChar: uni00CB
Encoding: 203 203 203
Width: 512
GlyphClass: 2
Flags: W
LayerCount: 2
Fore
SplineSet
512 320 m 1,0,-1
 512 384 l 1,1,-1
 320 384 l 1,2,3
 320 384 320 384 320 -128 c 1,4,-1
 384 -128 l 1,5,-1
 384 320 l 1,6,-1
 512 320 l 1,0,-1
512 448 m 1,7,-1
 512 512 l 1,8,-1
 0 512 l 1,9,-1
 0 448 l 1,10,-1
 512 448 l 1,7,-1
192 320 m 1,11,-1
 192 -128 l 1,12,-1
 256 -128 l 1,13,14
 256 -128 256 -128 256 384 c 1,15,-1
 0 384 l 1,16,-1
 0 320 l 1,17,-1
 192 320 l 1,11,-1
EndSplineSet
EndChar

StartChar: uni00CC
Encoding: 204 204 204
Width: 512
GlyphClass: 2
Flags: W
LayerCount: 2
Fore
SplineSet
512 320 m 1,0,-1
 512 384 l 1,1,-1
 320 384 l 1,2,3
 320 384 320 384 320 -128 c 1,4,-1
 384 -128 l 1,5,-1
 384 320 l 1,6,-1
 512 320 l 1,0,-1
512 448 m 1,7,-1
 512 512 l 1,8,-1
 384 512 l 1,9,10
 384 512 384 512 384 896 c 1,11,-1
 320 896 l 1,12,-1
 320 448 l 1,13,-1
 512 448 l 1,7,-1
192 896 m 1,14,15
 192 896 192 896 192 -128 c 1,16,-1
 256 -128 l 1,17,18
 256 -128 256 -128 256 896 c 1,19,-1
 192 896 l 1,14,15
EndSplineSet
EndChar

StartChar: uni00CD
Encoding: 205 205 205
Width: 512
GlyphClass: 2
Flags: W
LayerCount: 2
Fore
SplineSet
512 320 m 1,0,-1
 512 384 l 1,1,-1
 0 384 l 1,2,-1
 0 320 l 1,3,-1
 512 320 l 1,0,-1
512 448 m 1,4,-1
 512 512 l 1,5,-1
 0 512 l 1,6,-1
 0 448 l 1,7,-1
 512 448 l 1,4,-1
EndSplineSet
EndChar

StartChar: uni00CE
Encoding: 206 206 206
Width: 512
GlyphClass: 2
Flags: W
LayerCount: 2
Fore
SplineSet
512 320 m 1,0,-1
 512 384 l 1,1,-1
 320 384 l 1,2,3
 320 384 320 384 320 -128 c 1,4,-1
 384 -128 l 1,5,-1
 384 320 l 1,6,-1
 512 320 l 1,0,-1
512 448 m 1,7,-1
 512 512 l 1,8,-1
 384 512 l 1,9,10
 384 512 384 512 384 896 c 1,11,-1
 320 896 l 1,12,-1
 320 448 l 1,13,-1
 512 448 l 1,7,-1
192 320 m 1,14,-1
 192 -128 l 1,15,-1
 256 -128 l 1,16,17
 256 -128 256 -128 256 384 c 1,18,-1
 0 384 l 1,19,-1
 0 320 l 1,20,-1
 192 320 l 1,14,-1
192 512 m 1,21,-1
 0 512 l 1,22,-1
 0 448 l 1,23,-1
 256 448 l 1,24,-1
 256 896 l 1,25,-1
 192 896 l 1,26,27
 192 896 192 896 192 512 c 1,21,-1
EndSplineSet
EndChar

StartChar: uni00CF
Encoding: 207 207 207
Width: 512
GlyphClass: 2
Flags: W
LayerCount: 2
Fore
SplineSet
512 320 m 1,0,-1
 512 384 l 1,1,-1
 0 384 l 1,2,-1
 0 320 l 1,3,-1
 512 320 l 1,0,-1
512 448 m 1,4,-1
 512 512 l 1,5,-1
 320 512 l 1,6,-1
 320 896 l 1,7,-1
 256 896 l 1,8,-1
 256 512 l 1,9,-1
 0 512 l 1,10,-1
 0 448 l 1,11,-1
 512 448 l 1,4,-1
EndSplineSet
EndChar

StartChar: uni00D0
Encoding: 208 208 208
Width: 512
GlyphClass: 2
Flags: W
LayerCount: 2
Fore
SplineSet
512 384 m 1,0,-1
 512 448 l 1,1,-1
 384 448 l 1,2,-1
 384 896 l 1,3,-1
 320 896 l 1,4,-1
 320 448 l 1,5,-1
 256 448 l 1,6,-1
 256 896 l 1,7,-1
 192 896 l 1,8,-1
 192 448 l 1,9,-1
 0 448 l 1,10,-1
 0 384 l 1,11,-1
 512 384 l 1,0,-1
EndSplineSet
EndChar

StartChar: uni00D1
Encoding: 209 209 209
Width: 512
GlyphClass: 2
Flags: W
LayerCount: 2
Fore
SplineSet
512 320 m 1,0,-1
 512 384 l 1,1,-1
 0 384 l 1,2,-1
 0 320 l 1,3,-1
 256 320 l 1,4,-1
 256 -128 l 1,5,-1
 320 -128 l 1,6,-1
 320 320 l 1,7,-1
 512 320 l 1,0,-1
512 448 m 1,8,-1
 512 512 l 1,9,-1
 0 512 l 1,10,-1
 0 448 l 1,11,-1
 512 448 l 1,8,-1
EndSplineSet
EndChar

StartChar: uni00D2
Encoding: 210 210 210
Width: 512
GlyphClass: 2
Flags: W
LayerCount: 2
Fore
SplineSet
512 384 m 1,0,-1
 512 448 l 1,1,-1
 0 448 l 1,2,-1
 0 384 l 1,3,-1
 192 384 l 1,4,-1
 192 -128 l 1,5,-1
 256 -128 l 1,6,-1
 256 384 l 1,7,-1
 320 384 l 1,8,-1
 320 -128 l 1,9,-1
 384 -128 l 1,10,-1
 384 384 l 1,11,-1
 512 384 l 1,0,-1
EndSplineSet
EndChar

StartChar: uni00D3
Encoding: 211 211 211
Width: 512
GlyphClass: 2
Flags: W
LayerCount: 2
Fore
SplineSet
512 384 m 1,0,-1
 512 448 l 1,1,-1
 384 448 l 1,2,-1
 384 896 l 1,3,-1
 320 896 l 1,4,-1
 320 448 l 1,5,-1
 256 448 l 1,6,-1
 256 896 l 1,7,-1
 192 896 l 1,8,-1
 192 384 l 1,9,-1
 512 384 l 1,0,-1
EndSplineSet
EndChar

StartChar: uni00D4
Encoding: 212 212 212
Width: 512
GlyphClass: 2
Flags: W
LayerCount: 2
Fore
SplineSet
512 320 m 1,0,-1
 512 384 l 1,1,-1
 320 384 l 1,2,-1
 320 448 l 1,3,-1
 512 448 l 1,4,-1
 512 512 l 1,5,-1
 320 512 l 1,6,-1
 320 896 l 1,7,-1
 256 896 l 1,8,-1
 256 320 l 1,9,-1
 512 320 l 1,0,-1
EndSplineSet
EndChar

StartChar: uni00D5
Encoding: 213 213 213
Width: 512
GlyphClass: 2
Flags: W
LayerCount: 2
Fore
SplineSet
512 320 m 1,0,-1
 512 384 l 1,1,-1
 320 384 l 1,2,-1
 320 448 l 1,3,-1
 512 448 l 1,4,-1
 512 512 l 1,5,-1
 256 512 l 1,6,-1
 256 -128 l 1,7,-1
 320 -128 l 1,8,-1
 320 320 l 1,9,-1
 512 320 l 1,0,-1
EndSplineSet
EndChar

StartChar: uni00D6
Encoding: 214 214 214
Width: 512
GlyphClass: 2
Flags: W
LayerCount: 2
Fore
SplineSet
512 384 m 1,0,-1
 512 448 l 1,1,-1
 192 448 l 1,2,-1
 192 -128 l 1,3,-1
 256 -128 l 1,4,-1
 256 384 l 1,5,-1
 320 384 l 1,6,-1
 320 -128 l 1,7,-1
 384 -128 l 1,8,-1
 384 384 l 1,9,-1
 512 384 l 1,0,-1
EndSplineSet
EndChar

StartChar: uni00D7
Encoding: 215 215 215
Width: 512
GlyphClass: 2
Flags: W
LayerCount: 2
Fore
SplineSet
512 384 m 1,0,-1
 512 448 l 1,1,-1
 384 448 l 1,2,-1
 384 896 l 1,3,-1
 320 896 l 1,4,-1
 320 448 l 1,5,-1
 256 448 l 1,6,-1
 256 896 l 1,7,-1
 192 896 l 1,8,-1
 192 448 l 1,9,-1
 0 448 l 1,10,-1
 0 384 l 1,11,-1
 192 384 l 1,12,-1
 192 -128 l 1,13,-1
 256 -128 l 1,14,-1
 256 384 l 1,15,-1
 320 384 l 1,16,-1
 320 -128 l 1,17,-1
 384 -128 l 1,18,-1
 384 384 l 1,19,-1
 512 384 l 1,0,-1
EndSplineSet
EndChar

StartChar: uni00D8
Encoding: 216 216 216
Width: 512
GlyphClass: 2
Flags: W
LayerCount: 2
Fore
SplineSet
512 320 m 1,0,-1
 512 384 l 1,1,-1
 320 384 l 1,2,-1
 320 448 l 1,3,-1
 512 448 l 1,4,-1
 512 512 l 1,5,-1
 320 512 l 1,6,-1
 320 896 l 1,7,-1
 256 896 l 1,8,-1
 256 512 l 1,9,-1
 0 512 l 1,10,-1
 0 448 l 1,11,-1
 256 448 l 1,12,-1
 256 384 l 1,13,-1
 0 384 l 1,14,-1
 0 320 l 1,15,-1
 256 320 l 1,16,-1
 256 -128 l 1,17,-1
 320 -128 l 1,18,-1
 320 320 l 1,19,-1
 512 320 l 1,0,-1
EndSplineSet
EndChar

StartChar: uni00D9
Encoding: 217 217 217
Width: 512
GlyphClass: 2
Flags: W
LayerCount: 2
Fore
SplineSet
256 448 m 1,0,-1
 0 448 l 1,1,-1
 0 384 l 1,2,-1
 320 384 l 1,3,4
 320 384 320 384 320 896 c 1,5,-1
 256 896 l 1,6,-1
 256 448 l 1,0,-1
EndSplineSet
EndChar

StartChar: uni00DA
Encoding: 218 218 218
Width: 512
GlyphClass: 2
Flags: W
LayerCount: 2
Fore
SplineSet
512 384 m 1,0,-1
 512 448 l 1,1,-1
 256 448 l 1,2,-1
 256 -128 l 1,3,-1
 320 -128 l 1,4,5
 320 -128 320 -128 320 384 c 1,6,-1
 512 384 l 1,0,-1
EndSplineSet
EndChar

StartChar: uni00DB
Encoding: 219 219 219
Width: 512
GlyphClass: 2
Flags: W
LayerCount: 2
Fore
SplineSet
0 896 m 1,0,-1
 0 -128 l 1,1,-1
 512 -128 l 1,2,-1
 512 896 l 1,3,-1
 0 896 l 1,0,-1
EndSplineSet
EndChar

StartChar: uni00DC
Encoding: 220 220 220
Width: 512
GlyphClass: 2
Flags: W
LayerCount: 2
Fore
SplineSet
0 384 m 1,0,1
 0 384 0 384 0 -128 c 1,2,-1
 512 -128 l 1,3,4
 512 -128 512 -128 512 384 c 1,5,-1
 0 384 l 1,0,1
EndSplineSet
EndChar

StartChar: uni00DD
Encoding: 221 221 221
Width: 512
GlyphClass: 2
Flags: W
LayerCount: 2
Fore
SplineSet
0 896 m 1,0,-1
 0 -128 l 1,1,-1
 256 -128 l 1,2,-1
 256 896 l 1,3,-1
 0 896 l 1,0,-1
EndSplineSet
EndChar

StartChar: uni00DE
Encoding: 222 222 222
Width: 512
GlyphClass: 2
Flags: W
LayerCount: 2
Fore
SplineSet
256 896 m 1,0,-1
 256 -128 l 1,1,-1
 512 -128 l 1,2,-1
 512 896 l 1,3,-1
 256 896 l 1,0,-1
EndSplineSet
EndChar

StartChar: uni00DF
Encoding: 223 223 223
Width: 512
GlyphClass: 2
Flags: W
LayerCount: 2
Fore
SplineSet
0 896 m 1,0,1
 0 896 0 896 0 384 c 1,2,-1
 512 384 l 1,3,4
 512 384 512 384 512 896 c 1,5,-1
 0 896 l 1,0,1
EndSplineSet
EndChar

StartChar: uni00E0
Encoding: 224 224 224
Width: 512
GlyphClass: 2
Flags: W
LayerCount: 2
Fore
SplineSet
128 64 m 1,0,-1
 128 0 l 1,1,-1
 256 0 l 1,2,-1
 256 64 l 1,3,-1
 128 64 l 1,0,-1
128 64 m 1,4,-1
 128 448 l 1,5,-1
 64 448 l 1,6,-1
 64 64 l 1,7,-1
 128 64 l 1,4,-1
256 64 m 1,8,-1
 320 64 l 1,9,-1
 320 128 l 1,10,-1
 256 128 l 1,11,-1
 256 64 l 1,8,-1
384 128 m 1,12,-1
 384 0 l 1,13,-1
 448 0 l 1,14,-1
 448 128 l 1,15,-1
 384 128 l 1,12,-1
320 128 m 1,16,-1
 384 128 l 1,17,-1
 384 384 l 1,18,-1
 320 384 l 1,19,-1
 320 128 l 1,16,-1
320 384 m 1,20,-1
 320 448 l 1,21,-1
 256 448 l 1,22,-1
 256 384 l 1,23,-1
 320 384 l 1,20,-1
384 384 m 1,24,-1
 448 384 l 1,25,-1
 448 512 l 1,26,-1
 384 512 l 1,27,-1
 384 384 l 1,24,-1
128 448 m 1,28,-1
 256 448 l 1,29,-1
 256 512 l 1,30,-1
 128 512 l 1,31,-1
 128 448 l 1,28,-1
EndSplineSet
EndChar

StartChar: uni00E1
Encoding: 225 225 225
Width: 512
GlyphClass: 2
Flags: W
LayerCount: 2
Fore
SplineSet
64 576 m 1,0,-1
 64 0 l 1,1,-1
 128 0 l 1,2,-1
 128 576 l 1,3,-1
 64 576 l 1,0,-1
256 64 m 1,4,-1
 256 0 l 1,5,-1
 384 0 l 1,6,-1
 384 64 l 1,7,-1
 256 64 l 1,4,-1
256 64 m 1,8,-1
 256 128 l 1,9,-1
 192 128 l 1,10,-1
 192 64 l 1,11,-1
 256 64 l 1,8,-1
384 64 m 1,12,-1
 448 64 l 1,13,-1
 448 256 l 1,14,-1
 384 256 l 1,15,-1
 384 64 l 1,12,-1
384 256 m 1,16,-1
 384 320 l 1,17,-1
 320 320 l 1,18,-1
 320 256 l 1,19,-1
 384 256 l 1,16,-1
320 320 m 1,20,-1
 320 448 l 1,21,-1
 256 448 l 1,22,-1
 256 384 l 1,23,-1
 192 384 l 1,24,-1
 192 320 l 1,25,-1
 320 320 l 1,20,-1
320 448 m 1,26,-1
 384 448 l 1,27,-1
 384 576 l 1,28,-1
 320 576 l 1,29,-1
 320 448 l 1,26,-1
128 576 m 1,30,-1
 320 576 l 1,31,-1
 320 640 l 1,32,-1
 128 640 l 1,33,-1
 128 576 l 1,30,-1
EndSplineSet
EndChar

StartChar: uni00E2
Encoding: 226 226 226
Width: 512
GlyphClass: 2
Flags: W
LayerCount: 2
Fore
SplineSet
448 576 m 1,0,-1
 448 640 l 1,1,-1
 64 640 l 1,2,-1
 64 0 l 1,3,-1
 128 0 l 1,4,-1
 128 576 l 1,5,-1
 448 576 l 1,0,-1
EndSplineSet
EndChar

StartChar: uni00E3
Encoding: 227 227 227
Width: 512
GlyphClass: 2
Flags: W
LayerCount: 2
Fore
SplineSet
448 448 m 1,0,-1
 448 512 l 1,1,-1
 64 512 l 1,2,-1
 64 448 l 1,3,-1
 128 448 l 1,4,-1
 128 0 l 1,5,-1
 192 0 l 1,6,-1
 192 448 l 1,7,-1
 320 448 l 1,8,-1
 320 0 l 1,9,-1
 384 0 l 1,10,-1
 384 448 l 1,11,-1
 448 448 l 1,0,-1
EndSplineSet
EndChar

StartChar: uni00E4
Encoding: 228 228 228
Width: 512
GlyphClass: 2
Flags: W
LayerCount: 2
Fore
SplineSet
448 0 m 1,0,-1
 448 64 l 1,1,-1
 128 64 l 1,2,-1
 128 128 l 1,3,-1
 64 128 l 1,4,-1
 64 0 l 1,5,-1
 448 0 l 1,0,-1
448 576 m 1,6,-1
 448 640 l 1,7,-1
 64 640 l 1,8,-1
 64 512 l 1,9,-1
 128 512 l 1,10,-1
 128 448 l 1,11,-1
 192 448 l 1,12,-1
 192 384 l 1,13,-1
 256 384 l 1,14,-1
 256 256 l 1,15,-1
 192 256 l 1,16,-1
 192 192 l 1,17,-1
 128 192 l 1,18,-1
 128 128 l 1,19,-1
 192 128 l 1,20,-1
 192 192 l 1,21,-1
 256 192 l 1,22,-1
 256 256 l 1,23,-1
 320 256 l 1,24,-1
 320 384 l 1,25,-1
 256 384 l 1,26,-1
 256 448 l 1,27,-1
 192 448 l 1,28,-1
 192 512 l 1,29,-1
 128 512 l 1,30,-1
 128 576 l 1,31,-1
 448 576 l 1,6,-1
EndSplineSet
EndChar

StartChar: uni00E5
Encoding: 229 229 229
Width: 512
GlyphClass: 2
Flags: W
LayerCount: 2
Fore
SplineSet
512 448 m 1,0,-1
 512 512 l 1,1,-1
 128 512 l 1,2,-1
 128 448 l 1,3,-1
 64 448 l 1,4,-1
 64 64 l 1,5,-1
 128 64 l 1,6,-1
 128 0 l 1,7,-1
 320 0 l 1,8,-1
 320 64 l 1,9,-1
 128 64 l 1,10,-1
 128 448 l 1,11,-1
 256 448 l 1,12,-1
 256 384 l 1,13,-1
 320 384 l 1,14,-1
 320 64 l 1,15,-1
 384 64 l 1,16,-1
 384 384 l 1,17,-1
 320 384 l 1,18,-1
 320 448 l 1,19,-1
 512 448 l 1,0,-1
EndSplineSet
EndChar

StartChar: uni00E6
Encoding: 230 230 230
Width: 512
GlyphClass: 2
Flags: W
LayerCount: 2
Fore
SplineSet
512 0 m 1,0,-1
 512 64 l 1,1,-1
 448 64 l 1,2,-1
 448 0 l 1,3,-1
 512 0 l 1,0,-1
64 -64 m 1,4,-1
 0 -64 l 1,5,-1
 0 -128 l 1,6,-1
 64 -128 l 1,7,-1
 64 -64 l 1,4,-1
64 -64 m 1,8,-1
 128 -64 l 1,9,-1
 128 64 l 1,10,-1
 192 64 l 1,11,-1
 192 0 l 1,12,-1
 320 0 l 1,13,-1
 320 64 l 1,14,-1
 192 64 l 1,15,-1
 192 128 l 1,16,-1
 128 128 l 1,17,-1
 128 512 l 1,18,-1
 64 512 l 1,19,-1
 64 -64 l 1,8,-1
320 64 m 1,20,-1
 448 64 l 1,21,-1
 448 512 l 1,22,-1
 384 512 l 1,23,-1
 384 128 l 1,24,-1
 320 128 l 1,25,-1
 320 64 l 1,20,-1
EndSplineSet
EndChar

StartChar: uni00E7
Encoding: 231 231 231
Width: 512
GlyphClass: 2
Flags: W
LayerCount: 2
Fore
SplineSet
384 0 m 1,0,-1
 384 64 l 1,1,-1
 256 64 l 1,2,-1
 256 0 l 1,3,-1
 384 0 l 1,0,-1
448 448 m 1,4,-1
 448 512 l 1,5,-1
 64 512 l 1,6,-1
 64 448 l 1,7,-1
 192 448 l 1,8,-1
 192 64 l 1,9,-1
 256 64 l 1,10,-1
 256 448 l 1,11,-1
 448 448 l 1,4,-1
EndSplineSet
EndChar

StartChar: uni00E8
Encoding: 232 232 232
Width: 512
GlyphClass: 2
Flags: W
LayerCount: 2
Fore
SplineSet
512 0 m 1,0,-1
 512 64 l 1,1,-1
 320 64 l 1,2,-1
 320 128 l 1,3,-1
 448 128 l 1,4,-1
 448 192 l 1,5,-1
 320 192 l 1,6,-1
 320 448 l 1,7,-1
 448 448 l 1,8,-1
 448 192 l 1,9,-1
 512 192 l 1,10,-1
 512 448 l 1,11,-1
 448 448 l 1,12,-1
 448 512 l 1,13,-1
 320 512 l 1,14,-1
 320 576 l 1,15,-1
 512 576 l 1,16,-1
 512 640 l 1,17,-1
 64 640 l 1,18,-1
 64 576 l 1,19,-1
 256 576 l 1,20,-1
 256 512 l 1,21,-1
 128 512 l 1,22,-1
 128 448 l 1,23,-1
 64 448 l 1,24,-1
 64 192 l 1,25,-1
 128 192 l 1,26,-1
 128 128 l 1,27,-1
 256 128 l 1,28,-1
 256 64 l 1,29,-1
 64 64 l 1,30,-1
 64 0 l 1,31,-1
 512 0 l 1,0,-1
128 192 m 1,32,-1
 128 448 l 1,33,-1
 256 448 l 1,34,-1
 256 192 l 1,35,-1
 128 192 l 1,32,-1
EndSplineSet
EndChar

StartChar: uni00E9
Encoding: 233 233 233
Width: 512
GlyphClass: 2
Flags: W
LayerCount: 2
Fore
SplineSet
128 64 m 1,0,-1
 128 0 l 1,1,-1
 384 0 l 1,2,-1
 384 64 l 1,3,-1
 128 64 l 1,0,-1
128 64 m 1,4,-1
 128 320 l 1,5,-1
 384 320 l 1,6,-1
 384 64 l 1,7,-1
 448 64 l 1,8,-1
 448 576 l 1,9,-1
 384 576 l 1,10,-1
 384 384 l 1,11,-1
 128 384 l 1,12,-1
 128 576 l 1,13,-1
 64 576 l 1,14,-1
 64 64 l 1,15,-1
 128 64 l 1,4,-1
128 576 m 1,16,-1
 384 576 l 1,17,-1
 384 640 l 1,18,-1
 128 640 l 1,19,-1
 128 576 l 1,16,-1
EndSplineSet
EndChar

StartChar: uni00EA
Encoding: 234 234 234
Width: 512
GlyphClass: 2
Flags: W
LayerCount: 2
Fore
SplineSet
512 0 m 1,0,-1
 512 64 l 1,1,-1
 384 64 l 1,2,-1
 384 192 l 1,3,-1
 320 192 l 1,4,-1
 320 0 l 1,5,-1
 512 0 l 1,0,-1
192 64 m 1,6,-1
 64 64 l 1,7,-1
 64 0 l 1,8,-1
 256 0 l 1,9,-1
 256 192 l 1,10,-1
 192 192 l 1,11,-1
 192 64 l 1,6,-1
192 192 m 1,12,-1
 192 256 l 1,13,-1
 128 256 l 1,14,-1
 128 192 l 1,15,-1
 192 192 l 1,12,-1
384 192 m 1,16,-1
 448 192 l 1,17,-1
 448 256 l 1,18,-1
 384 256 l 1,19,-1
 384 192 l 1,16,-1
128 256 m 1,20,-1
 128 576 l 1,21,-1
 64 576 l 1,22,-1
 64 256 l 1,23,-1
 128 256 l 1,20,-1
448 256 m 1,24,-1
 512 256 l 1,25,-1
 512 576 l 1,26,-1
 448 576 l 1,27,-1
 448 256 l 1,24,-1
128 576 m 1,28,-1
 448 576 l 1,29,-1
 448 640 l 1,30,-1
 128 640 l 1,31,-1
 128 576 l 1,28,-1
EndSplineSet
EndChar

StartChar: uni00EB
Encoding: 235 235 235
Width: 512
GlyphClass: 2
Flags: W
LayerCount: 2
Fore
SplineSet
384 576 m 1,0,-1
 384 640 l 1,1,-1
 192 640 l 1,2,-1
 192 576 l 1,3,-1
 128 576 l 1,4,-1
 128 384 l 1,5,-1
 192 384 l 1,6,-1
 192 320 l 1,7,-1
 128 320 l 1,8,-1
 128 256 l 1,9,-1
 64 256 l 1,10,-1
 64 64 l 1,11,-1
 128 64 l 1,12,-1
 128 0 l 1,13,-1
 384 0 l 1,14,-1
 384 64 l 1,15,-1
 128 64 l 1,16,-1
 128 256 l 1,17,-1
 192 256 l 1,18,-1
 192 320 l 1,19,-1
 320 320 l 1,20,-1
 320 256 l 1,21,-1
 384 256 l 1,22,-1
 384 64 l 1,23,-1
 448 64 l 1,24,-1
 448 256 l 1,25,-1
 384 256 l 1,26,-1
 384 320 l 1,27,-1
 320 320 l 1,28,-1
 320 384 l 1,29,-1
 192 384 l 1,30,-1
 192 576 l 1,31,-1
 384 576 l 1,0,-1
EndSplineSet
EndChar

StartChar: uni00EC
Encoding: 236 236 236
Width: 512
GlyphClass: 2
Flags: W
LayerCount: 2
Fore
SplineSet
128 256 m 1,0,-1
 128 192 l 1,1,-1
 256 192 l 1,2,-1
 256 256 l 1,3,-1
 128 256 l 1,0,-1
128 256 m 1,4,-1
 128 384 l 1,5,-1
 64 384 l 1,6,-1
 64 256 l 1,7,-1
 128 256 l 1,4,-1
256 256 m 1,8,-1
 320 256 l 1,9,-1
 320 192 l 1,10,-1
 448 192 l 1,11,-1
 448 256 l 1,12,-1
 320 256 l 1,13,-1
 320 384 l 1,14,-1
 256 384 l 1,15,-1
 256 256 l 1,8,-1
448 256 m 1,16,-1
 512 256 l 1,17,-1
 512 384 l 1,18,-1
 448 384 l 1,19,-1
 448 256 l 1,16,-1
128 384 m 1,20,-1
 256 384 l 1,21,-1
 256 448 l 1,22,-1
 128 448 l 1,23,-1
 128 384 l 1,20,-1
320 384 m 1,24,-1
 448 384 l 1,25,-1
 448 448 l 1,26,-1
 320 448 l 1,27,-1
 320 384 l 1,24,-1
EndSplineSet
EndChar

StartChar: uni00ED
Encoding: 237 237 237
Width: 512
GlyphClass: 2
Flags: W
LayerCount: 2
Fore
SplineSet
192 448 m 1,0,-1
 192 512 l 1,1,-1
 128 512 l 1,2,-1
 128 448 l 1,3,-1
 64 448 l 1,4,-1
 64 64 l 1,5,-1
 128 64 l 1,6,-1
 128 0 l 1,7,-1
 256 0 l 1,8,-1
 256 -128 l 1,9,-1
 320 -128 l 1,10,-1
 320 0 l 1,11,-1
 448 0 l 1,12,-1
 448 64 l 1,13,-1
 320 64 l 1,14,-1
 320 448 l 1,15,-1
 256 448 l 1,16,-1
 256 64 l 1,17,-1
 128 64 l 1,18,-1
 128 448 l 1,19,-1
 192 448 l 1,0,-1
448 64 m 1,20,-1
 512 64 l 1,21,-1
 512 448 l 1,22,-1
 448 448 l 1,23,-1
 448 64 l 1,20,-1
320 448 m 1,24,-1
 448 448 l 1,25,-1
 448 512 l 1,26,-1
 320 512 l 1,27,-1
 320 448 l 1,24,-1
EndSplineSet
EndChar

StartChar: uni00EE
Encoding: 238 238 238
Width: 512
GlyphClass: 2
Flags: W
LayerCount: 2
Fore
SplineSet
448 64 m 1,0,-1
 448 128 l 1,1,-1
 384 128 l 1,2,-1
 384 64 l 1,3,-1
 128 64 l 1,4,-1
 128 0 l 1,5,-1
 384 0 l 1,6,-1
 384 64 l 1,7,-1
 448 64 l 1,0,-1
384 256 m 1,8,-1
 384 320 l 1,9,-1
 128 320 l 1,10,-1
 128 256 l 1,11,-1
 64 256 l 1,12,-1
 64 64 l 1,13,-1
 128 64 l 1,14,-1
 128 256 l 1,15,-1
 384 256 l 1,8,-1
448 384 m 1,16,-1
 448 448 l 1,17,-1
 384 448 l 1,18,-1
 384 384 l 1,19,-1
 448 384 l 1,16,-1
128 320 m 1,20,-1
 128 448 l 1,21,-1
 64 448 l 1,22,-1
 64 320 l 1,23,-1
 128 320 l 1,20,-1
128 448 m 1,24,-1
 384 448 l 1,25,-1
 384 512 l 1,26,-1
 128 512 l 1,27,-1
 128 448 l 1,24,-1
EndSplineSet
EndChar

StartChar: uni00EF
Encoding: 239 239 239
Width: 512
GlyphClass: 2
Flags: W
LayerCount: 2
Fore
SplineSet
64 448 m 1,0,-1
 64 0 l 1,1,-1
 128 0 l 1,2,-1
 128 448 l 1,3,-1
 64 448 l 1,0,-1
384 448 m 1,4,-1
 384 0 l 1,5,-1
 448 0 l 1,6,-1
 448 448 l 1,7,-1
 384 448 l 1,4,-1
128 448 m 1,8,-1
 384 448 l 1,9,-1
 384 512 l 1,10,-1
 128 512 l 1,11,-1
 128 448 l 1,8,-1
EndSplineSet
EndChar

StartChar: uni00F0
Encoding: 240 240 240
Width: 512
GlyphClass: 2
Flags: W
LayerCount: 2
Fore
SplineSet
448 128 m 1,0,-1
 448 192 l 1,1,-1
 64 192 l 1,2,-1
 64 128 l 1,3,-1
 448 128 l 1,0,-1
448 256 m 1,4,-1
 448 320 l 1,5,-1
 64 320 l 1,6,-1
 64 256 l 1,7,-1
 448 256 l 1,4,-1
448 384 m 1,8,-1
 448 448 l 1,9,-1
 64 448 l 1,10,-1
 64 384 l 1,11,-1
 448 384 l 1,8,-1
EndSplineSet
EndChar

StartChar: uni00F1
Encoding: 241 241 241
Width: 512
GlyphClass: 2
Flags: W
LayerCount: 2
Fore
SplineSet
512 64 m 1,0,-1
 512 128 l 1,1,-1
 64 128 l 1,2,-1
 64 64 l 1,3,-1
 512 64 l 1,0,-1
512 384 m 1,4,-1
 512 448 l 1,5,-1
 320 448 l 1,6,-1
 320 640 l 1,7,-1
 256 640 l 1,8,-1
 256 448 l 1,9,-1
 64 448 l 1,10,-1
 64 384 l 1,11,-1
 256 384 l 1,12,-1
 256 192 l 1,13,-1
 320 192 l 1,14,-1
 320 384 l 1,15,-1
 512 384 l 1,4,-1
EndSplineSet
EndChar

StartChar: uni00F2
Encoding: 242 242 242
Width: 512
GlyphClass: 2
Flags: W
LayerCount: 2
Fore
SplineSet
448 64 m 1,0,-1
 448 128 l 1,1,-1
 64 128 l 1,2,-1
 64 64 l 1,3,-1
 448 64 l 1,0,-1
448 320 m 1,4,-1
 448 384 l 1,5,-1
 320 384 l 1,6,-1
 320 320 l 1,7,-1
 192 320 l 1,8,-1
 192 256 l 1,9,-1
 64 256 l 1,10,-1
 64 192 l 1,11,-1
 192 192 l 1,12,-1
 192 256 l 1,13,-1
 320 256 l 1,14,-1
 320 320 l 1,15,-1
 448 320 l 1,4,-1
320 384 m 1,16,-1
 320 448 l 1,17,-1
 192 448 l 1,18,-1
 192 384 l 1,19,-1
 320 384 l 1,16,-1
192 448 m 1,20,-1
 192 512 l 1,21,-1
 64 512 l 1,22,-1
 64 448 l 1,23,-1
 192 448 l 1,20,-1
EndSplineSet
EndChar

StartChar: uni00F3
Encoding: 243 243 243
Width: 512
GlyphClass: 2
Flags: W
LayerCount: 2
Fore
SplineSet
448 64 m 1,0,-1
 448 128 l 1,1,-1
 64 128 l 1,2,-1
 64 64 l 1,3,-1
 448 64 l 1,0,-1
448 192 m 1,4,-1
 448 256 l 1,5,-1
 320 256 l 1,6,-1
 320 192 l 1,7,-1
 448 192 l 1,4,-1
448 448 m 1,8,-1
 448 512 l 1,9,-1
 320 512 l 1,10,-1
 320 448 l 1,11,-1
 192 448 l 1,12,-1
 192 384 l 1,13,-1
 64 384 l 1,14,-1
 64 320 l 1,15,-1
 192 320 l 1,16,-1
 192 256 l 1,17,-1
 320 256 l 1,18,-1
 320 320 l 1,19,-1
 192 320 l 1,20,-1
 192 384 l 1,21,-1
 320 384 l 1,22,-1
 320 448 l 1,23,-1
 448 448 l 1,8,-1
EndSplineSet
EndChar

StartChar: uni00F4
Encoding: 244 244 244
Width: 512
GlyphClass: 2
Flags: W
LayerCount: 2
Fore
SplineSet
256 576 m 1,0,-1
 256 -128 l 1,1,-1
 320 -128 l 1,2,-1
 320 576 l 1,3,-1
 256 576 l 1,0,-1
384 576 m 1,4,-1
 384 512 l 1,5,-1
 448 512 l 1,6,-1
 448 640 l 1,7,-1
 320 640 l 1,8,-1
 320 576 l 1,9,-1
 384 576 l 1,4,-1
EndSplineSet
EndChar

StartChar: uni00F5
Encoding: 245 245 245
Width: 512
GlyphClass: 2
Flags: W
LayerCount: 2
Fore
SplineSet
128 256 m 1,0,-1
 128 128 l 1,1,-1
 256 128 l 1,2,-1
 256 192 l 1,3,-1
 192 192 l 1,4,-1
 192 256 l 1,5,-1
 128 256 l 1,0,-1
256 192 m 1,6,-1
 320 192 l 1,7,-1
 320 896 l 1,8,-1
 256 896 l 1,9,-1
 256 192 l 1,6,-1
EndSplineSet
EndChar

StartChar: uni00F6
Encoding: 246 246 246
Width: 512
GlyphClass: 2
Flags: W
LayerCount: 2
Fore
SplineSet
320 64 m 1,0,-1
 320 128 l 1,1,-1
 192 128 l 1,2,-1
 192 64 l 1,3,-1
 320 64 l 1,0,-1
448 256 m 1,4,-1
 448 320 l 1,5,-1
 64 320 l 1,6,-1
 64 256 l 1,7,-1
 448 256 l 1,4,-1
320 448 m 1,8,-1
 320 512 l 1,9,-1
 192 512 l 1,10,-1
 192 448 l 1,11,-1
 320 448 l 1,8,-1
EndSplineSet
EndChar

StartChar: uni00F7
Encoding: 247 247 247
Width: 512
GlyphClass: 2
Flags: W
LayerCount: 2
Fore
SplineSet
448 192 m 1,0,-1
 448 256 l 1,1,-1
 384 256 l 1,2,-1
 384 192 l 1,3,-1
 256 192 l 1,4,-1
 256 128 l 1,5,-1
 384 128 l 1,6,-1
 384 192 l 1,7,-1
 448 192 l 1,0,-1
448 384 m 1,8,-1
 448 448 l 1,9,-1
 384 448 l 1,10,-1
 384 384 l 1,11,-1
 256 384 l 1,12,-1
 256 320 l 1,13,-1
 384 320 l 1,14,-1
 384 384 l 1,15,-1
 448 384 l 1,8,-1
128 192 m 1,16,-1
 64 192 l 1,17,-1
 64 128 l 1,18,-1
 128 128 l 1,19,-1
 128 192 l 1,16,-1
128 192 m 1,20,-1
 256 192 l 1,21,-1
 256 256 l 1,22,-1
 128 256 l 1,23,-1
 128 192 l 1,20,-1
128 384 m 1,24,-1
 64 384 l 1,25,-1
 64 320 l 1,26,-1
 128 320 l 1,27,-1
 128 384 l 1,24,-1
128 384 m 1,28,-1
 256 384 l 1,29,-1
 256 448 l 1,30,-1
 128 448 l 1,31,-1
 128 384 l 1,28,-1
EndSplineSet
EndChar

StartChar: uni00F8
Encoding: 248 248 248
Width: 512
GlyphClass: 2
Flags: W
LayerCount: 2
Fore
SplineSet
192 704 m 1,0,-1
 192 640 l 1,1,-1
 256 640 l 1,2,-1
 256 704 l 1,3,-1
 192 704 l 1,0,-1
192 704 m 1,4,-1
 192 832 l 1,5,-1
 128 832 l 1,6,-1
 128 704 l 1,7,-1
 192 704 l 1,4,-1
256 704 m 1,8,-1
 320 704 l 1,9,-1
 320 832 l 1,10,-1
 256 832 l 1,11,-1
 256 704 l 1,8,-1
192 832 m 1,12,-1
 256 832 l 1,13,-1
 256 896 l 1,14,-1
 192 896 l 1,15,-1
 192 832 l 1,12,-1
EndSplineSet
EndChar

StartChar: uni00F9
Encoding: 249 249 249
Width: 512
GlyphClass: 2
Flags: W
LayerCount: 2
Fore
SplineSet
320 192 m 1,0,-1
 384 192 l 1,1,-1
 384 320 l 1,2,-1
 320 320 l 1,3,-1
 320 384 l 1,4,-1
 192 384 l 1,5,-1
 192 320 l 1,6,-1
 128 320 l 1,7,-1
 128 192 l 1,8,-1
 192 192 l 1,9,-1
 192 128 l 1,10,-1
 320 128 l 1,11,-1
 320 192 l 1,0,-1
EndSplineSet
EndChar

StartChar: uni00FA
Encoding: 250 250 250
Width: 512
GlyphClass: 2
Flags: W
LayerCount: 2
Fore
SplineSet
192 384 m 1,0,-1
 192 256 l 1,1,-1
 320 256 l 1,2,-1
 320 384 l 1,3,-1
 192 384 l 1,0,-1
EndSplineSet
EndChar

StartChar: uni00FB
Encoding: 251 251 251
Width: 512
GlyphClass: 2
Flags: W
LayerCount: 2
Fore
SplineSet
512 704 m 1,0,-1
 512 768 l 1,1,-1
 320 768 l 1,2,-1
 320 192 l 1,3,-1
 256 192 l 1,4,-1
 256 64 l 1,5,-1
 320 64 l 1,6,-1
 320 -64 l 1,7,-1
 384 -64 l 1,8,-1
 384 704 l 1,9,-1
 512 704 l 1,0,-1
256 192 m 1,10,-1
 256 384 l 1,11,-1
 64 384 l 1,12,-1
 64 320 l 1,13,-1
 192 320 l 1,14,-1
 192 192 l 1,15,-1
 256 192 l 1,10,-1
EndSplineSet
EndChar

StartChar: uni00FC
Encoding: 252 252 252
Width: 512
GlyphClass: 2
Flags: W
LayerCount: 2
Fore
SplineSet
128 640 m 1,0,-1
 128 320 l 1,1,-1
 192 320 l 1,2,-1
 192 512 l 1,3,-1
 256 512 l 1,4,-1
 256 576 l 1,5,-1
 192 576 l 1,6,-1
 192 640 l 1,7,-1
 128 640 l 1,0,-1
384 576 m 1,8,-1
 384 320 l 1,9,-1
 448 320 l 1,10,-1
 448 576 l 1,11,-1
 384 576 l 1,8,-1
256 576 m 1,12,-1
 384 576 l 1,13,-1
 384 640 l 1,14,-1
 256 640 l 1,15,-1
 256 576 l 1,12,-1
EndSplineSet
EndChar

StartChar: uni00FD
Encoding: 253 253 253
Width: 512
GlyphClass: 2
Flags: W
LayerCount: 2
Fore
SplineSet
448 320 m 1,0,-1
 448 384 l 1,1,-1
 192 384 l 1,2,-1
 192 512 l 1,3,-1
 128 512 l 1,4,-1
 128 320 l 1,5,-1
 448 320 l 1,0,-1
192 512 m 1,6,-1
 384 512 l 1,7,-1
 384 576 l 1,8,-1
 192 576 l 1,9,-1
 192 512 l 1,6,-1
384 576 m 1,10,-1
 448 576 l 1,11,-1
 448 704 l 1,12,-1
 384 704 l 1,13,-1
 384 576 l 1,10,-1
192 704 m 1,14,-1
 128 704 l 1,15,-1
 128 640 l 1,16,-1
 192 640 l 1,17,-1
 192 704 l 1,14,-1
192 704 m 1,18,-1
 384 704 l 1,19,-1
 384 768 l 1,20,-1
 192 768 l 1,21,-1
 192 704 l 1,18,-1
EndSplineSet
EndChar

StartChar: uni00FE
Encoding: 254 254 254
Width: 512
GlyphClass: 2
Flags: W
LayerCount: 2
Fore
SplineSet
64 512 m 1,0,-1
 64 64 l 1,1,-1
 512 64 l 1,2,-1
 512 512 l 1,3,-1
 64 512 l 1,0,-1
EndSplineSet
EndChar

